<svg xmlns="http://www.w3.org/2000/svg" width="2343.492" height="730" viewBox="0 0 2343.492 730">
  <g>
    <rect width="2267" height="468" x="38.492" y="0" fill="rgb(242,242,242)" rx="0" ry="0"/>
    <g transform="translate(834.49242448 231)">
      <g transform="translate(82)">
        <path fill="rgb(25,24,71)" fill-rule="evenodd" d="M61 77.70685879c11.4289379 0 15.5854974-13.68277498 22.0786187-21.19151052C87.72431383 51.14300196 95.65307946 52.74494419 98 45.22377622 103.9015425 26.31112374 88.10610862 13 67.5 13S33 24.67425243 30 42.22377622C27 59.77330002 40.39389138 77.7068588 61 77.7068588z"/>
        <path fill="rgb(178,139,103)" fill-rule="evenodd" d="M92.14334106 40.13393307c5.79481125 10.8011217 5.1062355 38.1990633-2.38304138 40.12952518-2.9867134.76986695-9.34929657-1.1159935-15.82492256-5.01914596L78 104H54l8.26227379-38.50987244c-4.60790944-5.40875053-7.72663903-12.03725052-7.2054975-19.464674 1.50155377-21.40047406 31.29175353-16.69264244 37.08656477-5.8915205z"/>
        <path fill="rgb(25,24,71)" fill-rule="evenodd" d="M56.61679077 31c-18.38320923 18 .07024384 37.131773 5.12644959 37.131773.3263893-2.5974579 1.3222351-5.12409974 2.78132629-7.52886963-.77498245-1.00357056-1.23452377-2.2513504-1.23452377-3.60290528C63.29004288 53.6885109 66.04873658 51 69.44667053 51c1.06136322 0 2.06035614.26231003 2.9323883.72397614 7.37019349-6.28578568 16.6142273-10.6678238 21.20410157-11.52944947C101.56601715 38.695961 75 13.00000095 56.61679077 31z"/>
      </g>
      <g transform="translate(0 187)">
        <path fill="rgb(153,118,89)" fill-rule="evenodd" d="M128 0l37.63083767 123.02417087 18.22931645 104.6241329h14.2930427L178.89097407 0H128z"/>
        <path fill="rgb(178,139,103)" fill-rule="evenodd" d="M114.53772732 0c2.55597766 67.54688213-.4520627 102.38878715-1.02412107 108.52571506-.57205838 6.13692792-8.40540998 45.92909719-26.9499189 121.18275436l15.230305-5.23077018c29.30786722-69.01874063 39.29494344-104.888999 42.65633396-113.95198418C147.81171682 101.4627299 156.7394031 64.62082486 171.2333852 0h-56.69565788z"/>
        <path fill="rgb(228,228,228)" fill-rule="evenodd" d="M89.4182776 223.35225237c-1.0417975-.5344558-2.31785241-.06362848-2.76284187 1.01940863 0 0-1.65543573 4.02908051-1.65543573 6.73400982C85 233.81060014 85.90124261 239 85.90124261 239h56.4018122s2.19852474-7.26823912-2.53823196-7.84777684c-4.7367567-.57953773-7.8698085-1.04655234-7.8698085-1.04655234l-26.2150217-11.68678736c-.51456887-.22939737-1.11697575.0113584-1.33169813.5322217l-1.68508143 4.08758988s-4.38499781 2.04593567-7.12653195 2.04593567c-2.74153414 0-6.11840355-1.73237834-6.11840355-1.73237834z"/>
        <path fill="rgb(228,228,228)" fill-rule="evenodd" d="M183.4182776 223.35225237c-1.0417975-.5344558-2.31785241-.06362848-2.76284187 1.01940863 0 0-1.65543573 4.02908051-1.65543573 6.73400982C179 233.81060014 179.90124261 239 179.90124261 239h56.4018122s2.19852474-7.26823912-2.53823196-7.84777684c-4.7367567-.57953773-7.8698085-1.04655234-7.8698085-1.04655234l-26.2150217-11.68678736c-.51456887-.22939737-1.11697575.0113584-1.33169813.5322217l-1.68508143 4.08758988s-4.38499781 2.04593567-7.12653195 2.04593567c-2.74153414 0-6.11840355-1.73237834-6.11840355-1.73237834z"/>
        <path fill="rgb(105,161,172)" fill-rule="evenodd" d="M123 0l16 62.67952012h48.87031788L180.58355445 0H123z"/>
        <path fill="rgb(137,197,204)" fill-rule="evenodd" d="M114 0c-7.89684125 23.67081912-3 62.67952012-3 62.67952012h49.87031788L174.58355445 0H114z"/>
      </g>
      <g transform="translate(22 82)">
        <path fill="rgb(178,139,103)" fill-rule="evenodd" d="M194.0444107 89.12251282l28.32791138 27.63502502c8.2423706 3.51581574 14.9958191 7.39797974 20.26037598 11.64649964 1.18389892 1.42807006 2.47277832 4.1643219-3.09747315 2.93989563-5.57025146-1.22444153-11.48440551-2.26185608-12.53131103-.45036316-.45843506.79321289-.12463379 1.77130127.23303223 2.81944275.45916748 1.34538269.95761108 2.80601501-.12997437 4.13867187-1.28988647 1.58050537-5.62786865-3.44680786-13.01400757-15.08193207l-29.45727539-17.36727905 9.40872193-16.27996063zM36.00457765 173.68966675c7.35775375-5.04512024 17.96072387-13.875 19.3933525-16.78141785C58.32839585 150.96310425 68.30793 93.01988983 68.30793 93.01988983l20.89739228.08217621s-19.35476685 62.48051453-20.89739228 66.3035431c-2.00391388 4.96620177 1.40000153 12.18167113 3.70814514 17.07437133.35709382.756958.68795777 1.45829773.9685135 2.08712768-3.20269013 1.43310547-4.7411499-.29911804-6.36309052-2.12533569-1.8319397-2.06266785-3.77037811-4.24523926-8.3335762-2.12228393-1.76298905.82020568-3.43126297 1.78991699-5.0611496 2.73731994-5.62997055 3.27252197-10.8019638 6.27885437-17.83773422 1.9375763-1.11543274-.68826294-2.33776093-3.27966309.61553955-5.30471802z"/>
        <path fill="rgb(25,24,71)" fill-rule="evenodd" d="M127.69499574 5.33202859l8.6471231-1.48316788c14.88754146 37.19023143 40.8796267 70.98227894 77.97625574 101.3761425l-28.03207703 34.05636428c-37.09229814-43.2767844-59.95606541-87.92656414-58.5913018-133.9493389z"/>
        <path fill="rgb(221,227,233)" fill-rule="evenodd" d="M90 114h77S140.24130426 48.93772022 140.24130426 3.4607303L117.01420804 0C98.7598929 29.35840682 93.6048263 65.50454992 90 114z"/>
        <path fill="rgb(47,54,118)" fill-rule="evenodd" d="M55 147C63.42087555 51.99594498 116.50396729 0 116.50396729 0l.01847076.01641892C116.5254898.010945 116.52853394.00547202 116.53158569 0h1.51616669c2.721344.0937097 8.28990936.33767328 8.28990936.33767328l5.61250305 16.03920737c.89050293 29.33331298 10.40097046 118.22909164 10.40097046 118.22909164H91.94989777c.0857544 4.075943.27558136 8.20930481.58071136 12.39402771H55z"/>
        <path fill="rgb(0,0,0)" fill-opacity=".1" fill-rule="evenodd" d="M91.95851135 135c-.4023056-17.7496872 1.17235565-34.41596222 3.79920197-49.49813843C97.13162994 103.39854431 100.0030365 124.93349457 106 135H91.95851135z"/>
        <path fill="rgb(255,255,255)" fill-opacity=".2" fill-rule="evenodd" d="M103.11089892 104L128 92.42927179V104h-24.88910108z"/>
      </g>
    </g>
    <g transform="matrix(-1 0 0 1 1510.49242448 304)">
      <g transform="translate(82)">
        <path fill="rgb(178,139,103)" fill-rule="evenodd" d="M92.14334106 40.13393307c5.79481125 10.8011217 5.1062355 38.1990633-2.38304138 40.12952518-2.9867134.76986695-9.34929657-1.1159935-15.82492256-5.01914596L78 104H54l8.26227379-38.50987244c-4.60790944-5.40875053-7.72663903-12.03725052-7.2054975-19.464674 1.50155377-21.40047406 31.29175353-16.69264244 37.08656477-5.8915205z"/>
        <path fill="rgb(25,24,71)" fill-rule="evenodd" d="M60.41813835 70.30752007C57.40590211 56.90645876 48.82453271 47.77140432 50.13511366 41.781703c1.31058096-5.98970131 6.98618226-7.44956992 6.98618226-7.44956992s2.93536725-11.87494836 18.93432334-10.10175676c15.9989561 1.7731916 25.76382832 8.41738238 21.54686261 23.03750155-3.87638315 0-8.55600605-1.40189123-15.02695191 1-3.07980753 1.1431656-4.40553724 7.09011364-4.40553724 7.09011364h-2.92419487s-4.25708145-7.05740147-8.39501917-5.1868049c-4.13793771 1.87059656-1.88124102 9.08737307-1.88124102 9.08737307l-1.44046163 11.04896038h-3.11093768z"/>
      </g>
      <g transform="translate(0 187)">
        <path fill="rgb(197,207,214)" fill-rule="evenodd" d="M184 42H69c-8.83063889 0-16 7.16935968-16 16v92c0 8.8306427 7.16936111 16 16 16h115c8.8306427 0 16-7.1693573 16-16V58c0-8.83064032-7.1693573-16-16-16zm-16 28H85c-2.20765686 0-4 1.79233932-4 4v60c0 2.20765686 1.79234314 4 4 4h83c2.20765686 0 4-1.79234314 4-4V74c0-2.20766068-1.79234314-4-4-4z"/>
        <path fill="rgb(178,139,103)" fill-rule="evenodd" d="M299.15896374 161c-19.71586876-24.0758252-33.05609671-41.9245654-40.02068384-53.5462206-11.92506402-19.89909517-21.68515882-37.60561474-24.76520152-44.3694255-7.34475685-16.12917428 16.9088174-23.68173576 22.3979521-16.15855391C265.07905388 58.3124345 282.82204371 94.14296739 310 154.41739867L299.15896374 161z"/>
        <path fill="rgb(47,54,118)" fill-rule="evenodd" d="M258.75756695 154l-36.69236977-92.3632231c-7.84776786-16.83719977 30.0505605-27.90470044 35.81807693-20.06900507C270.9773219 59.35722607 302.09884571 129.5340427 306 134.83411543L258.75756695 154z"/>
        <path fill="rgb(178,139,103)" fill-rule="evenodd" d="M161.03302135 135.47696793c7.14752327-10.42601241 33.14550841-45.50261978 47.3059564-60.01591593 4.06914485-4.17053927 8.03959695-8.17343364 11.7949069-11.90366458 11.16210999-11.08756626 33.38981386 7.54829286 22.24828939 17.64721413-27.74679938 25.15030532-68.23110449 59.10234103-71.61359494 62.12958414-4.74070478 4.24281047-14.22755325-1.30479407-9.73555775-7.85721776z"/>
        <path fill="rgb(228,228,228)" fill-rule="evenodd" d="M165.60246668 131.22829544c-.634995-.98375116-1.9755046-1.21403046-2.90239546-.4985877 0 0-3.44819015 2.66156756-4.80065525 5.0041048-1.35246509 2.34253726-3.16666695 7.28731033-3.16666695 7.28731033l48.8453969 28.20091525s5.53809882-5.19521632 1.72571658-8.06548977c-3.81238224-2.87027346-6.29217702-4.84124634-6.29217702-4.84124634l-16.85947672-23.22856875c-.33093094-.45594844-.97300847-.54865139-1.41939522-.20493182l-3.50311877 2.69741531s-4.82048726-.42066754-7.19472521-1.79143505c-2.37423796-1.37076752-4.43250288-4.55948626-4.43250288-4.55948626z"/>
        <path fill="rgb(228,228,228)" fill-rule="evenodd" d="M293.4182776 156.35225237c-1.0417975-.5344558-2.31785241-.06362848-2.76284187 1.01940863 0 0-1.65543573 4.02908051-1.65543573 6.73400982C289 166.81060014 289.90124261 172 289.90124261 172h56.4018122s2.19852474-7.26823912-2.53823196-7.84777684c-4.7367567-.57953773-7.8698085-1.04655234-7.8698085-1.04655234l-26.2150217-11.68678736c-.51456887-.22939737-1.11697575.0113584-1.33169813.5322217l-1.68508143 4.08758988s-4.38499781 2.04593567-7.12653195 2.04593567c-2.74153414 0-6.11840355-1.73237834-6.11840355-1.73237834z"/>
        <path fill="rgb(92,99,171)" fill-rule="evenodd" d="M208.86209056 66.25005224s-45.74522757-7.45247562-61.2815481-10.1919481C118.05745105 50.85238655 109.4482664 34.96533055 114.53847605.30222865h54.39579416c10.7976136 3.11814743 90.23323808 38.5694606 90.23323808 38.5694606 9.52802374 4.72984405 7.75359238 18.67580896 6.01203898 23.2703875-.1065408.28107668-48.18726704 82.57066089-48.18726704 82.57066089l-44.49805313-28.34724733 36.45143146-46.77510275s1.44397124-2.90835026-.083568-3.34033533z"/>
      </g>
      <g transform="translate(22 82)">
        <path fill="rgb(178,139,103)" fill-rule="evenodd" d="M190.7811966 92.21148682l31.8982849 23.42359924c8.65145875 2.33448029 15.87948609 5.2389679 21.68405152 8.7134552 1.37115479 1.2494049 3.0282898 3.77966309-2.65814209 3.34236145-5.6864624-.43728638-11.68743896-.64151001-12.4720459 1.29804993-.34359741.8493042.12310791 1.77145385.62316895 2.759552.64193725 1.2684021 1.33883667 2.64544678.44729614 4.1164856q-.09753418.16091918-.23971558.25242614-2.1703186 1.396698-14.74667358-13.37636566l-31.58764648-13.0986023 7.05142211-17.4309616zM36.00457763 173.68966675c7.35775375-5.04512024 17.96072387-13.875 19.3933525-16.78141785C58.32839585 150.96310425 68.30793 93.01988983 68.30793 93.01988983l20.89739228.08217621s-19.35476685 62.48051453-20.89739228 66.3035431c-2.00391388 4.96620177 1.40000153 12.18167113 3.70814514 17.07437133.35709382.756958.68795777 1.45829773.9685135 2.08712768-3.20269013 1.43310547-4.7411499-.29911804-6.36309052-2.12533569-1.8319397-2.06266785-3.77037811-4.24523926-8.3335762-2.12228393-1.76298905.82020568-3.43126297 1.78991699-5.0611496 2.73731994-5.62997055 3.27252197-10.8019638 6.27885437-17.83773422 1.9375763-1.11543274-.68826294-2.33776093-3.27966309.61553955-5.30471802z"/>
        <path fill="rgb(232,118,19)" fill-rule="evenodd" d="M127.6949955 5.33202845l8.6471231-1.48316787c32.08334349 27.71541036 45.26112071 80.96004627 84.58737897 109.16590779l-9.46549766 11.73285383c-68.22388677-8.44714784-85.13376802-73.39281898-83.76900442-119.41559375z"/>
        <path fill="rgb(221,227,233)" fill-rule="evenodd" d="M90 114h76.5114507c3.4961831 0 2.83739407-5.0483629 2.33199964-7.59579448-5.8328626-29.40043923-28.60214608-61.09269004-28.60214608-102.94347522L118.1718001 0C99.91748497 29.35840682 93.6048263 65.50454992 90 114z"/>
        <path fill="rgb(255,155,33)" fill-rule="evenodd" d="M92.93153381 28.51287651C88.91584778 28.22588348 85.29122161 26.5454731 83 22.41119003 74.9335556 7.85607624 77.84672546-.15759277 86.4671936-2.79173088c4.74028778-1.4484787 9.19850922-.45980573 14.53523255.72368741 4.36697387.96843767 9.32219696 2.06732535 15.50154114 2.06804323L116.51002502 0c.59882355 0 1.14380646.04012132 1.6385193.11686563l7.32304381.41787434s29.7335968 100.77067804 16.4006958 134.46526575H81.39686585c-3.43861389 8.25863648-6.81056213 15.46487427-9.98786926 21H55C53.23459625 98.91862297 74.8454361 54.99643517 92.93153381 28.51287652z"/>
        <path fill="rgb(0,0,0)" fill-opacity=".1" fill-rule="evenodd" d="M81.39686584 135c4.51171875-10.83595276 9.13822175-23.48366547 13.59046174-36.545578C96.6446762 112.83889008 99.40472412 127.28636932 104 135H81.39686584z"/>
      </g>
    </g>
    <g transform="matrix(-1 0 0 1 1718.49242448 304)">
      <g transform="translate(82)">
        <path fill="rgb(178,139,103)" fill-rule="evenodd" d="M92.14334106 40.13393307c5.79481125 10.8011217 5.1062355 38.1990633-2.38304138 40.12952518-2.9867134.76986695-9.34929657-1.1159935-15.82492256-5.01914596L78 104H54l8.26227379-38.50987244c-4.60790944-5.40875053-7.72663903-12.03725052-7.2054975-19.464674 1.50155377-21.40047406 31.29175353-16.69264244 37.08656477-5.8915205z"/>
        <path fill="rgb(25,24,71)" fill-rule="evenodd" d="M82.66349505 28.36997631c-3.27944161-1-8.04003857-1.33913202-10.04268019-1.10971207 1.1391938-2.7294203 1.5912427-5.77032292 1.22271376-8.73117845-.3581942-2.87701972-1.64375844-5.32671857-2.83271207-7.89370696-.54804707-1.18321365-1.16912626-2.3599784-2.09511835-3.26500222-.9432932-.92203283-2.13737592-1.53064865-3.38948625-1.8210108-1.2813538-.29721411-2.62119454-.27246642-3.90453873-.00274079-.56772134.11930483-1.07710886.37887343-1.63388304.52316778-.57017105.14784125-.84675913-.20902528-1.26060778-.56766525-.99734002-.86415386-2.45943682-1.29074922-3.72119291-1.44342715-1.41562878-.17121854-2.88453885.04232097-4.23463776.5076904-1.31411874.45303588-2.5765638 1.18869522-3.52667027 2.26042335-.42303508.47705808-.80702783 1.02005625-1.0565925 1.619563-.10235213.24602589-.11927047.39177124-.3647778.48189475-.22705791.08343276-.49262228.0858511-.72695278.1652533-2.26583283.76742022-4.2030977 2.5181379-5.25792945 4.7659859-.61541422 1.31138572-.90693025 3.6202725-.82708487 6.20815522.07984538 2.58788272 2.41656682 9.3404072 4.60209494 11.80340693 1.95081485 2.19843321 4.81828225 3.649196 7.58561757 4.28425235-1.83682657 2.09952307-3.05954033 4.72310064-3.96371465 7.39133691-.98210586 2.89838173-1.58994128 5.90994181-1.81439637 8.97841352-.21320172 2.91539072-.23295254 5.9984531.45051781 8.85161184.6393755 2.66815566 2.00669896 4.85699612 4.28929702 6.24560754 1.04556878.6361043 2.17052362 1.11396849 3.30198552 1.55072088 1.11507942.4303841 2.23352721.8488377 3.40158172 1.09034936 2.21063769.45690523 4.75780492.37847037 6.46066272-1.38111456.61373004-.63433086 1.28870295-1.43141606 1.73646483-2.20633314.16099218-.2786735.25806212-.4609358.06246772-.7333216-.2343305-.32623421-.61334727-.57621006-.91435594-.83142565-1.7165609-1.4551158-2.77912457-3.39768854-3.04698555-5.70623689-.2717652-2.3423245.35742866-5.36565385 2.63474452-6.3878866 2.81112397-1.26189035 5.9069507.1865347 8.4055064 1.5366945 1.0618747-3.7477837 3.24219717-7.12225617 6.66054412-8.8413742 3.78182335-1.901864 8.12141607-2.12443198 12.0078116-3.7562479 1.0127273-.42522496 2.04421022-.90792583 2.78984208-1.7743368.31157306-.36210627.6771164-.8318287.80151597-1.31074084.16344189-.62909112-.24229208-1.1565313-.55570243-1.64697086-1.66182509-2.6004421-7.963907-7.8540948-11.24334861-8.8540948z"/>
      </g>
      <g transform="translate(0 187)">
        <path fill="rgb(178,139,103)" fill-rule="evenodd" d="M246.20755005 74.67166042c-1.8607483 20.34105683-.00100708 64.06417847 1 76.67678833.62910461 7.92663575 11.43222046 5.85128785 12.44067383-.49258423C260.65667725 144.51200772 279.97161865 44.03112698 280 22.86555481c.01083374-8.06127548-17.93634033-14.50748634-25.1162262-4.7698288-5.90316772-4.14626598-14.28192138-5.25794983-19.44772338 3.11628342-3.91073609 6.33966255-13.20281983 24.33770275-23.11264039 45.3544569-8.68144226 18.41159058-22.24684143 63.1057129-22.24684143 63.1057129l11.51657105 5.26159667s28.44795227-45.73827362 46.35980224-77.80644226c-.59461975 5.5180626-1.18569946 11.42597199-1.74539184 17.54432678z"/>
        <path fill="rgb(31,40,207)" fill-rule="evenodd" d="M190.89992237 113.12535469l39.52746167-93.63805378c9.46932164-15.23246624 36.01877245 3.09968393 32.78952956 11.93441739-7.33138107 20.05757995-44.61720191 84.99251957-46.80146526 90.96834273l-25.51552597-9.26470634z"/>
        <path fill="rgb(43,68,255)" fill-rule="evenodd" d="M281 30.1765514c0 26.54117895-11.63373869 88.9294429-11.64173319 94.7738842L241.17614953 124s7.3894087-81.36422037 6.2323663-81.91554753c-1.73556358-.82699075-71.146384 9.6067173-91.9638184 10.3945733C125.42585403 53.61511802 113.00765967 35.19881727 112 .25055648h58.14764577s74.58210115 8.90267169 98.03686847 12.38391356C278.22590169 14.1248493 281 22.86513988 281 30.17655141z"/>
        <path fill="rgb(228,228,228)" fill-rule="evenodd" d="M191.43062903 126.38061861c-.88155503-.77061387-2.23360911-.62247788-2.92739095.32073564 0 0-2.58098532 3.50891323-3.23536717 6.13349453-.65438186 2.6245813-1.03533991 7.87786409-1.03533991 7.87786409l54.72643613 13.6448381s3.89156592-6.52046974-.56428585-8.22871827c-4.45585178-1.70824853-7.38285739-2.9193449-7.38285739-2.9193449l-22.60903221-17.68162954c-.4437877-.3470688-1.08654462-.25919997-1.4208971.19424537l-2.62390511 3.55851268s-4.74970136.92433524-7.40980016.26109787c-2.6600988-.66323737-5.51756028-3.16109557-5.51756028-3.16109557z"/>
        <path fill="rgb(228,228,228)" fill-rule="evenodd" d="M248.4182776 135.35225237c-1.0417975-.5344558-2.31785241-.06362848-2.76284187 1.01940863 0 0-1.65543573 4.02908051-1.65543573 6.73400982C244 145.81060014 244.90124261 151 244.90124261 151h56.4018122s2.19852474-7.26823912-2.53823196-7.84777684c-4.7367567-.57953773-7.8698085-1.04655234-7.8698085-1.04655234l-26.2150217-11.68678736c-.51456887-.22939737-1.11697575.0113584-1.33169813.5322217l-1.68508143 4.08758988s-4.38499781 2.04593567-7.12653195 2.04593567c-2.74153414 0-6.11840355-1.73237834-6.11840355-1.73237834z"/>
        <path fill="rgb(47,54,118)" fill-rule="evenodd" d="M248.5 151h46c1.93170259 0 3.5 1.56829741 3.5 3.5s-1.56829741 3.5-3.5 3.5h-46c-1.93170259 0-3.5-1.56829741-3.5-3.5s1.56829741-3.5 3.5-3.5z"/>
        <path fill="rgb(47,54,118)" fill-rule="evenodd" d="M109 6h107c5.51915024 0 10 4.48084976 10 10v49H103c-2.2076601 0-4-1.7923399-4-4V16c0-5.51915024 4.48084976-10 10-10z"/>
        <path fill="rgb(47,54,118)" fill-rule="evenodd" d="M216 6h2.19367793c4.89752733 0 9.07440404 3.54701889 9.86788144 8.3798408L250 148h-10.68571429"/>
        <ellipse cx="245" cy="150" fill="rgb(25,24,71)" rx="18" ry="18"/>
        <g transform="translate(36 14)">
          <path fill="rgb(25,24,71)" fill-rule="evenodd" d="M152 76c0-41.94554138-34.05445862-76-76-76S0 34.05445862 0 76s34.05445862 76 76 76 76-34.05445862 76-76zm-14 0c0-34.21873093-27.78126526-62-62-62-34.21873093 0-62 27.78126907-62 62 0 34.21873474 27.78126907 62 62 62 34.21873474 0 62-27.78126526 62-62z"/>
          <rect width="8" height="132" x="72" y="10" fill="rgb(25,24,71)" rx="0" ry="0"/>
          <path fill="rgb(25,24,71)" fill-rule="evenodd" d="M121.2548475 27.91675159l2.82842633 2.82842792c.7805255.78052593.78052514 2.04790163-8e-7 2.82842712l-90.5096934 90.50964258c-.78052594.78052549-2.04790164.78052513-2.82842713-8e-7l-2.82842633-2.82842792c-.7805255-.78052593-.78052514-2.04790163 8e-7-2.82842712l90.5096934-90.50964258c.78052594-.78052549 2.04790164-.78052513 2.82842713 8e-7z"/>
          <path fill="rgb(25,24,71)" fill-rule="evenodd" d="M142.00000112 74.00003707l-.00000224 4c-6.2e-7 1.10383005-.89617108 1.9999995-2.00000113 1.99999888l-128-.0000719c-1.10383005-6.2e-7-1.9999995-.89617107-1.99999887-2.00000112l.00000224-4c6.2e-7-1.10383005.89617108-1.9999995 2.00000113-1.99999888l128 .0000719c1.10383005 6.2e-7 1.9999995.89617107 1.99999887 2.00000112z"/>
          <path fill="rgb(25,24,71)" fill-rule="evenodd" d="M124.083223 121.2548745l-2.82842951 2.82842475c-.78052637.78052505-2.04790207.78052399-2.82842713-.00000239L27.91677462 33.57355262c-.78052505-.78052637-.78052398-2.04790207.00000239-2.82842713l2.8284295-2.82842474c.78052637-.78052505 2.04790207-.78052399 2.82842713.00000239l90.50959174 90.50974424c.78052505.78052637.78052398 2.04790207-.00000239 2.82842713z"/>
        </g>
      </g>
      <g transform="translate(22 82)">
        <path fill="rgb(178,139,103)" fill-rule="evenodd" d="M191.4562378 2.34082222l37.90377807-11.37841797q10.60647583-8.25667 20.008667-12.07377815c1.82299804-.34313011 4.84106444-.14385224 1.06962585 4.13438988-3.7714386 4.27823734-7.54600525 8.94791698-6.4691925 10.74180126 1.07679748 1.79388141 5.00015258.44158172 6.13566588 3.28320026.75698853 1.89441109-5.74308776 3.25123215-19.50027465 4.07045555l-29.47093201 17.3440876-9.67733765-16.12173843zm-3.3493805 66.82730865l31.89826965 23.42359162c8.651474 2.33448791 15.87950135 5.2389679 21.68408203 8.71346283 1.37112427 1.24939728 3.0282898 3.77965545-2.6581726 3.34236145-5.68644715-.43728638-11.6874237-.64151764-12.4720459 1.29804992-.3435669.84929657.12312317 1.7714615.6231842 2.75954438.641922 1.2684021 1.33882141 2.64546203.44728089 4.11650085q-.09751892.16090393-.23970032.2524109-2.17030335 1.39669799-14.74667358-13.37635804l-31.58764649-13.0986023 7.05142212-17.4309616z"/>
        <path fill="rgb(32,38,162)" fill-rule="evenodd" d="M138.56072852 6.08677722c17.37071801 32.389551 42.48943587 57.21845568 78.9049352 83.02909531l-13.78837608 15.5469118c-40.65937664-15.10998425-62.11835306-24.2265257-72.65635056-54.82803339-2.64482372-7.68035799-4.49330856-32.16389817-6.07908477-45.04593529l13.6188762 1.29796157z"/>
        <path fill="rgb(242,242,242)" fill-rule="evenodd" d="M90 114h77S140.83731614 34.2080716 140.2702156 4.47156148c-.01927423-1.01066401-1.88583708-2.79159676-2.71164535-2.55836776C128.5 4.47156148 118.1718001 0 118.1718001 0 99.91748497 29.35840682 93.6048263 65.50454992 90 114z"/>
        <path fill="rgb(31,40,207)" fill-rule="evenodd" d="M137.48625183 44.79075623c12.02619934 51.58634185 11.47174072 93.81521606-15.07878113 93.81521606H81.35112762C74.83043671 94.78395081 91.96809387 34.02361679 107.85595703 3.37659454 108.46266174 2.2062769 109.7544098 0 112.79699707 0h11.9297638c.00524902.01579857.01049041.03159714.01573944.04739666 3.58997344.0293951 7.54340362.1606388 11.8247757.30276966C158.6084137 1.0818758 189.3412628 2.10212898 223.92266082-9l4.07733154 20.37347984c-31.21312714 20.07474709-62.8190689 35.62558556-90.51374054 33.41727639z"/>
      </g>
    </g>
    <g transform="translate(625.49242448 231)">
      <g transform="translate(82)">
        <path fill="rgb(178,139,103)" fill-rule="evenodd" d="M92.14334106 40.13393307c5.79481125 10.8011217 5.1062355 38.1990633-2.38304138 40.12952518-2.9867134.76986695-9.34929657-1.1159935-15.82492256-5.01914596L78 104H54l8.26227379-38.50987244c-4.60790944-5.40875053-7.72663903-12.03725052-7.2054975-19.464674 1.50155377-21.40047406 31.29175353-16.69264244 37.08656477-5.8915205z"/>
        <path fill="rgb(25,24,71)" fill-rule="evenodd" d="M75.13532257 48.38890076c2.07588959-3.09104538 4.06892395-5.44876862 6.66148377-6.8179474 10.55106353.16672898 11.78635406-1.72478103 11.78635406-8.1000061-1.70414734-1.21943283-7.71720123-3.27278327-14.45110321-3.85037612-3.43517303-.98303795-7.50460815-.79815102-11.4247055.84163856-4.83931733 1.37303162-8.9368744 4.33003426-10.74686432 9.86606789-6.54836274 11.30069351-1.57807923 23.06440162 5.11989975 27.08291817 1.78290176-2.11231232 3.33880996-4.15937806 4.72713089-6.11898041C65.69229126 60.20274353 65 58.68222045 65 57c0-3.31370544 2.68629456-6 6-6 .24360657 0 .48382568.01451874.71983337.04273605.14913178 4.14303208.76270295 18.1599102 2.37458802 23.02873803 1.90034485 5.7401123 12.98926544 7.14952087 16.8568039 7.14952087 3.34047698 0 3.22660827-3.16319275 3.14500426-5.43019867-.01174926-.32647705-.02283477-.63437653-.02283477-.91156006 0-.57913208-.7532425-.57762909-1.60430909-.57593536-1.10511017.00219726-2.37516784.0047226-2.37516784-1.263237 0-2.2444458 5.0367813-3.6398697 6.07104492-5.08758545 1.2536087-1.75473786 1.67585754-4.12143707-.21537018-4.12143707-2.5943985 0-7.61099243 3.75365448-13.52379608 3.75365448-5.87599945 0-7.27331543-18.9597187-7.29047394-19.19579506z"/>
      </g>
      <g transform="translate(0 187)">
        <path fill="rgb(25,24,71)" fill-rule="evenodd" d="M128 0l36.25496225 127.22690916L190.7069573 221H210L181.89097407 0H128z"/>
        <path fill="rgb(47,54,118)" fill-rule="evenodd" d="M118.30434211 0c-.83857375 65.57422437-3.6980947 101.34018825-4.57856282 107.29789163C112.84531115 113.25559502 99.53217183 151.15629781 73.78636132 221h19.98628545c32.77638651-67.00309831 51.07300404-104.9038011 54.88985257-113.70210837C152.47934788 98.49958437 164.25851476 62.7336205 182 0h-63.69565789z"/>
        <path fill="rgb(25,24,71)" fill-rule="evenodd" d="M72 239l1-21h21c14.93640491 10.5 39 17 39 17v4H95l-13-2v2H72z"/>
        <path fill="rgb(25,24,71)" fill-rule="evenodd" d="M188 239l1-21h21c14.93640491 10.5 39 17 39 17v4h-38l-13-2v2h-10z"/>
      </g>
      <g transform="translate(22 82)">
        <path fill="rgb(178,139,103)" fill-rule="evenodd" d="M6.8242693 155.20285034c7.98829555-3.97201538 19.71695804-11.24031067 21.5401411-13.91906738 3.72934723-5.47943115 25.30272865-63.74786377 25.30272865-63.74786377l17.71178437 2.57221985s-28.51804352 61.87428284-30.57772065 65.44541931c-2.67558288 4.6389923-.30898285 12.25801086 1.295784 17.42436218.24826813.79924011.47829437 1.53979492.66860199 2.20152283-3.37097168.97343445-4.65338135-.95603943-6.00537872-2.99021912-1.5270443-2.29754638-3.14286232-4.72865295-7.95711136-3.26142883-1.85998535.56686401-3.6469841 1.29496765-5.39286804 2.00630188-6.03061104 2.45713806-11.570673 4.71440125-17.93378544-.56382751-1.00878859-.836792-1.85856843-3.5730896 1.3478241-5.16741944zM190.35887336 88.6100235l30.18663025 25.59165192c8.46754455 2.93228912 15.4753418 6.33389282 21.02340698 10.20483398 1.2806549 1.3420105 2.75727844 3.98168945-2.88482666 3.14880371-5.6421051-.832901-11.61419678-1.45523071-12.5322113.42487335-.40197754.82326508-.00076294 1.7757187.4291687 2.7963028.55187988 1.3100891 1.15103149 2.73240661.15904235 4.1376648-1.17651367 1.66664123-5.85462951-3.0458069-14.0343933-14.13737489l-30.59698487-15.27013397 8.25016785-16.8966217z"/>
        <path fill="rgb(197,207,214)" fill-rule="evenodd" d="M127.6949954 5.33202858l10.97493636-3.62939221c14.88754145 37.19023143 37.0905734 73.17368846 74.18720244 103.56755203l-9.17353002 15.82659214c-32.60266862-19.2051257-63.46507532-34.12400926-75.98861043-62.94208946-4.20322213-9.67209269-.34294615-41.25772241.00000165-52.8226625z"/>
        <path fill="rgb(50,51,55)" fill-rule="evenodd" d="M90 110s47.15748912 5 74.23623368 0c2.23658324-.41297765 2.58943343-4.15761166 1.5522207-6.69903417-16.15210168-39.5765631-27.22815252-74.10933927-27.22815252-101.5983285C134.11474082 3.94386364 123 2.37438889 123 2.37438889 103.08620167 30.70267617 93.93253778 63.20614466 90 110z"/>
        <path fill="rgb(221,227,233)" fill-rule="evenodd" d="M117.29317093 0c.51400757-.34637004.78544617-.5186758.78544617-.5186758L118.0493965 0h8.2990265c1.93234252 11.36487103 8.0270996 165.26258945 26.84217834 215.60597324H51.38531875c2.14802933-44.88418579 18.69633866-98.5592575 35.83890916-144.13565063-12.64977265 12.5854721-27.42295456 33.68260193-39.36236954 68.80236816l-19.06923676-4.89505005C48.22592163 51.63823414 105.16194534 8.45168495 116.20959854.74382352c.1078949-.24927627.21522522-.49722104.32199097-.74382352h.76158142z"/>
      </g>
    </g>
    <g transform="translate(417.49242448 231)">
      <g transform="translate(82)">
        <path fill="rgb(178,139,103)" fill-rule="evenodd" d="M92.14334106 40.13393307c5.79481125 10.8011217 5.1062355 38.1990633-2.38304138 40.12952518-2.9867134.76986695-9.34929657-1.1159935-15.82492256-5.01914596L78 104H54l8.26227379-38.50987244c-4.60790944-5.40875053-7.72663903-12.03725052-7.2054975-19.464674 1.50155377-21.40047406 31.29175353-16.69264244 37.08656477-5.8915205z"/>
        <path fill="rgb(25,24,71)" fill-rule="evenodd" d="M82.66349505 28.36997631c-3.27944161-1-8.04003857-1.33913202-10.04268019-1.10971207 1.1391938-2.7294203 1.5912427-5.77032292 1.22271376-8.73117845-.3581942-2.87701972-1.64375844-5.32671857-2.83271207-7.89370696-.54804707-1.18321365-1.16912626-2.3599784-2.09511835-3.26500222-.9432932-.92203283-2.13737592-1.53064865-3.38948625-1.8210108-1.2813538-.29721411-2.62119454-.27246642-3.90453873-.00274079-.56772134.11930483-1.07710886.37887343-1.63388304.52316778-.57017105.14784125-.84675913-.20902528-1.26060778-.56766525-.99734002-.86415386-2.45943682-1.29074922-3.72119291-1.44342715-1.41562878-.17121854-2.88453885.04232097-4.23463776.5076904-1.31411874.45303588-2.5765638 1.18869522-3.52667027 2.26042335-.42303508.47705808-.80702783 1.02005625-1.0565925 1.619563-.10235213.24602589-.11927047.39177124-.3647778.48189475-.22705791.08343276-.49262228.0858511-.72695278.1652533-2.26583283.76742022-4.2030977 2.5181379-5.25792945 4.7659859-.61541422 1.31138572-.90693025 3.6202725-.82708487 6.20815522.07984538 2.58788272 2.41656682 9.3404072 4.60209494 11.80340693 1.95081485 2.19843321 4.81828225 3.649196 7.58561757 4.28425235-1.83682657 2.09952307-3.05954033 4.72310064-3.96371465 7.39133691-.98210586 2.89838173-1.58994128 5.90994181-1.81439637 8.97841352-.21320172 2.91539072-.23295254 5.9984531.45051781 8.85161184.6393755 2.66815566 2.00669896 4.85699612 4.28929702 6.24560754 1.04556878.6361043 2.17052362 1.11396849 3.30198552 1.55072088 1.11507942.4303841 2.23352721.8488377 3.40158172 1.09034936 2.21063769.45690523 4.75780492.37847037 6.46066272-1.38111456.61373004-.63433086 1.28870295-1.43141606 1.73646483-2.20633314.16099218-.2786735.25806212-.4609358.06246772-.7333216-.2343305-.32623421-.61334727-.57621006-.91435594-.83142565-1.7165609-1.4551158-2.77912457-3.39768854-3.04698555-5.70623689-.2717652-2.3423245.35742866-5.36565385 2.63474452-6.3878866 2.81112397-1.26189035 5.9069507.1865347 8.4055064 1.5366945 1.0618747-3.7477837 3.24219717-7.12225617 6.66054412-8.8413742 3.78182335-1.901864 8.12141607-2.12443198 12.0078116-3.7562479 1.0127273-.42522496 2.04421022-.90792583 2.78984208-1.7743368.31157306-.36210627.6771164-.8318287.80151597-1.31074084.16344189-.62909112-.24229208-1.1565313-.55570243-1.64697086-1.66182509-2.6004421-7.963907-7.8540948-11.24334861-8.8540948z"/>
      </g>
      <g transform="translate(0 187)">
        <path fill="rgb(153,118,89)" fill-rule="evenodd" d="M130 0l74.30641303 124.22690916 55.70843142 105.02338058h11.9991018L178.67368775 0H130z"/>
        <path fill="rgb(228,228,228)" fill-rule="evenodd" d="M255.4182776 223.35225237c-1.0417975-.5344558-2.31785241-.06362848-2.76284187 1.01940863 0 0-1.65543573 4.02908051-1.65543573 6.73400982C251 233.81060014 251.90124261 239 251.90124261 239h56.4018122s2.19852474-7.26823912-2.53823196-7.84777684c-4.7367567-.57953773-7.8698085-1.04655234-7.8698085-1.04655234l-26.2150217-11.68678736c-.51456887-.22939737-1.11697575.0113584-1.33169813.5322217l-1.68508143 4.08758988s-4.38499781 2.04593567-7.12653195 2.04593567c-2.74153414 0-6.11840355-1.73237834-6.11840355-1.73237834z"/>
        <path fill="rgb(219,39,33)" fill-rule="evenodd" d="M244.54305673 212.43288902l23.14005644-7s-15.20743412-45.46202173-37.2777393-100.0585761C208.3350687 50.77775856 183 0 183 0h-65.3559269s28.16714844 64.23153298 59.72190902 116.72518563c31.55476059 52.49365265 67.1770746 95.70770339 67.1770746 95.70770339z"/>
        <path fill="rgb(178,139,103)" fill-rule="evenodd" d="M125.11662798 0c-7.01312976 43.65418883-20.53953693 99.42746848-21.81606503 101.14864846-.85101873 1.14745333-31.4879116 11.41355058-91.9106786 30.79829176l2.59195083 10.58099789c72.05400788-10.396162 110.02032511-18.46193217 113.8989517-24.19731053C133.69872674 109.72756003 162.74848568 41.76313698 174 0h-48.88337202z"/>
        <path fill="rgb(255,65,51)" fill-rule="evenodd" d="M32.62950778 122.80047705l4.5654391 17.04146211c53.89219974 4.7266814 86.91314085 1.31135713 99.06282334-10.2459728C148.40745272 118.03863647 162.25450435 74.839981 177.79892514 0h-62.32077926c-9.84857908 61.2838742-15.35457575 93.21212588-16.51799001 95.78475508-1.16341427 2.57262919-23.2736303 11.57786985-66.33064809 27.01572197z"/>
        <path fill="rgb(228,228,228)" fill-rule="evenodd" d="M15.85848469 130.0550817c.34543053-1.11877735-.33982788-2.29368817-1.4836827-2.54385038 0 0-4.25533267-.93064558-6.91916826-.46094087-2.6638356.46970472-7.61789857 2.25838279-7.61789857 2.25838279l9.79404418 55.54494682s7.5395876.9030115 7.28779405-3.86241902c-.25179355-4.76543052-.3359211-7.9319805-.3359211-7.9319805l6.95706197-27.84614247c.13655863-.54658578-.2051461-1.0980341-.7553824-1.2190477l-4.31810106-.94968086s-2.7762982-3.96310823-3.25235927-6.66299255c-.47606106-2.69988431.64361316-6.32627527.64361316-6.32627527z"/>
      </g>
      <g transform="translate(22 82)">
        <path fill="rgb(153,118,89)" fill-rule="evenodd" d="M193.34780884 23.6898241L158.638031 42.70023441l12.81774902 13.75740815 25.22088623-23.0924263q18.70394897-5.1546898 18.35531616-7.71191407-.0228424-.16753769-.12745666-.32392883c-.95643616-1.42969513-2.49897766-1.38005066-3.91983033-1.33432388-1.1068573.03562164-2.1398468.06886673-2.76438903-.60145188-1.42623902-1.53080272 1.2949829-6.883214 4.09449768-11.85208988 2.79951477-4.96887207-.1940155-4.53630829-1.90583802-3.82165527q-8.40310669 5.68852329-17.06115722 15.96997165zM228.246521 50.36420536L213 58.7398386l.8682251 15.3003769s9.87471008-7.1271286 18.3701477-9.4958725c10.8321991-3.02027894 15.2147522-5.32670975 20.5079956-12.07125092 2.83212281-3.60863876 5.23580933-10.86296463 2.54006959-13.22549057-1.03405762-.90624237-4.88705445 1.23478317-8.81834412 3.41932678-2.99613952 1.6648941-6.0377655 3.3550644-7.91171264 3.74085617-2.52261353.5193367-2.22727967-2.75038528-1.99128724-5.36323547.1693573-1.87492752.30815125-3.41161728-.64674377-2.96731568-4.46287537.07653046-7.67182922 12.28697205-7.67182922 12.28697205z"/>
        <path fill="rgb(32,38,162)" fill-rule="evenodd" d="M141.73409105 38.46537743c12.15759963-.12843578 28.36980357-2.69619756 45.6683336-13.67663874l6.7934947 15.14994146C182.2638172 51.78031158 165.48616733 61.5096598 150.8160859 61.0976751c-11.56083273-.32466666-17.46938968-14.30849715-9.08199485-22.63229767z"/>
        <path fill="rgb(31,40,207)" fill-rule="evenodd" d="M108.9445877 142.2585144c-11.55793761-1.50689697-22.1782379-2.89154052-28.47180175-1.65254211-7.06144714-22.93295288-1.19785309-37.37205505 4.21507263-50.70137787 3.26237488-8.03359222 6.36103821-15.66405487 6.36766052-24.50798035C91.07479858 39.64215851 111.7544098 0 114.79699707 0h27.74674988c1.24049377 15.93736553 6.53501892 33.19304657 11.86357117 50.55961227 1.24438476 4.055645 2.49061584 8.1173401 3.68751525 12.16970444 20.16494751 4.57720947 64.9411087-11.355896 64.9411087-11.355896s11.30358887 23.3851471 10.45074464 33.34363556c-26.06240845 13.61399079-48.40015412 19.68378449-66.80345917 20.08448029.5848236 10.91983032-.74430847 21.31031036-5.20928955 30.80443573-5.9826355 12.72116089-30.89811707 9.4727478-52.52935028 6.65254211z"/>
      </g>
    </g>
    <g transform="translate(208.49242448 231)">
      <g transform="translate(82)">
        <path fill="rgb(178,139,103)" fill-rule="evenodd" d="M92.14334106 40.13393307c5.79481125 10.8011217 5.1062355 38.1990633-2.38304138 40.12952518-2.9867134.76986695-9.34929657-1.1159935-15.82492256-5.01914596L78 104H54l8.26227379-38.50987244c-4.60790944-5.40875053-7.72663903-12.03725052-7.2054975-19.464674 1.50155377-21.40047406 31.29175353-16.69264244 37.08656477-5.8915205z"/>
        <path fill="rgb(25,24,71)" fill-rule="evenodd" d="M78.46395003 27.68525676c-3.16313052-.51871894-11.67999893-.8753526-13.2506616-.87512237-1.00372758 0-2.09146254.22931383-2.68594103-.69231595-.48682968-.75470958-.30848614-2.03113115-.4537776-2.90694422-.16870335-1.01740745-.40833098-2.02169152-.65071294-3.02344301-.68973276-2.8505367-1.7327097-5.56247207-3.1920511-8.1086384-2.7382735-4.77691102-6.7497409-8.51868652-11.81405495-10.69601675-5.59245884-2.40411148-11.92078565-2.95460281-17.93626528-2.46696557-6.43735279.521712-12.26461915 2.64677893-18.3425305 4.64659815-5.791919 1.9056532-11.85835393 2.65575808-17.91606678 1.72514913-6.103389-.93751598-10.7150731-4.24552917-15.863165-7.38524074-5.270201-3.21430764-11.29302555-5.31658133-17.52334374-4.83331855-5.81578995.45126015-11.17596607 2.85260882-15.98504457 6.06046988-4.49944472 3.00134047-8.21206618 6.61234262-10.30811929 11.69454495-2.25488675 5.46692463-2.252821 11.4677637 1.4552099 16.29924037 5.3746364 7.00328126 15.35246436 8.81430797 23.65358755 8.63426438 4.80150406-.10383588 9.5171645-.98033966 14.0503499-2.57471544 6.04554785-2.12644835 11.26984318-5.73054345 16.92565185-8.65475528 2.65426612-1.37219923 5.39781877-2.49919844 8.27357978-3.31100624 2.79060597-.78809362 5.53920825-1.1495622 8.0658566.53621678 2.67285791 1.78339854 5.0679865 3.53525491 8.1257635 4.65166332 2.93337263 1.07105215 6.04049823 1.67012302 9.16575657 1.64594837 6.0806657-.0469679 12.07479919-1.94156982 17.98056426-3.21062388 4.81596435-1.03467506 9.96887635-2.0658966 14.8787178-1.07128239 2.04877027.4151133 5.04136122 1.27204711 5.7813607 3.40125827-12.45443912 2.2572217-17.34590686 17.65992787-13.83481132 28.9669877 1.89498626 6.10283307 13.28600897 13.2369804 17.71498848 10.0286289 2.80588595-2.03258299 1.10242478-4.7009963 0-6.46252253-2.11120199-3.37339986-2.83352778-7.70664849 1.07304515-10.05527339 3.36970606-2.0256055 6.91271984 2.78467002 6.97974212 2.77937462.926147-.07298442 8.92886177-4.5988712 14.44258658-11.20328786 5.43931001.32243658 6.26453207-3.26410448 4.96573136-6.19722101-1.2988007-2.93311654-9.40549662-6.62446993-13.7759464-7.34165124z"/>
      </g>
      <g transform="translate(0 187)">
        <path fill="rgb(178,139,103)" fill-rule="evenodd" d="M116.6440448.00001877c1.80311795 24.60963525 117.96264032 97.06346987 118.64036268 99.09636852.45181491 1.35526576-36.15608996 85.68169546-36.15608996 85.68169546l10.15412933 3.94580576s56.1502841-89.30783775 53.26620908-98.82392247C258.4194865 76.27565816 172.4219552.26170116 172.4219552.26170116L116.6440448.00001877z"/>
        <path fill="rgb(47,54,118)" fill-rule="evenodd" d="M201.80045735 172.08194519l16.5781789 6.03478664c34.95746453-39.44241511 48.65983917-71.98613223 46.16139463-88.56758073C262.04158635 72.9677026 174.7242558.06027698 174.7242558.06027698l-59.26908743.00002034c2.02231013 56.99223172 109.687696 99.25303383 111.12776428 101.681646 1.4400683 2.42861216-12.73194774 26.21496538-24.7824753 70.34000187z"/>
        <path fill="rgb(228,228,228)" fill-rule="evenodd" d="M198.32624817 182.79044318c-.79617466-.85853999-2.15630648-.8525437-2.9448804.01298283 0 0-2.93362784 3.2199045-3.85876847 5.7617065-.92514062 2.541802-1.85312952 7.72648576-1.85312952 7.72648576l53.0003643 19.2905625s4.55182243-6.07797035.29894096-8.2426244c-4.25288148-2.16465406-7.03725855-3.67507142-7.03725855-3.67507142l-20.63694326-19.9480559c-.405078-.39155598-1.05349862-.37135493-1.43341745.04465703l-2.98149707 3.2647459s-4.82030135.42279247-7.39650063-.51486775c-2.57619929-.93766022-5.15690991-3.72052105-5.15690991-3.72052105z"/>
        <path fill="rgb(153,118,89)" fill-rule="evenodd" d="M130 0L78.25403763 124.22690916l-50.858227 105.02338058h11.99910181L170.67368775 0H130z"/>
        <path fill="rgb(228,228,228)" fill-rule="evenodd" d="M29.4182776 223.35225237c-1.0417975-.5344558-2.31785241-.06362848-2.76284187 1.01940863 0 0-1.65543573 4.02908051-1.65543573 6.73400982C25 233.81060014 25.90124261 239 25.90124261 239h56.4018122s2.19852474-7.26823912-2.53823196-7.84777684c-4.7367567-.57953773-7.8698085-1.04655234-7.8698085-1.04655234l-26.2150217-11.68678736c-.51456887-.22939737-1.11697575.0113584-1.33169813.5322217l-1.68508143 4.08758988s-4.38499781 2.04593567-7.12653195 2.04593567c-2.74153414 0-6.11840355-1.73237834-6.11840355-1.73237834z"/>
        <path fill="rgb(92,99,171)" fill-rule="evenodd" d="M31.98854881 207.43288902l26.6621371 5C79.2657755 182.12487453 165.5407671 57.85183904 175 0h-59.3559269C84.05488056 41.82102199 51.6389867 176.62352186 31.9885488 207.43288902z"/>
      </g>
      <g transform="translate(22 82)">
        <path fill="rgb(178,139,103)" fill-rule="evenodd" d="M198 77.61708832l36.2345581-15.91291428q9.5211792-9.48772812 18.38812256-14.42222214c1.76757813-.56274414 4.78741455-.73275375 1.56549073 3.97321701-3.22193909 4.70596695-6.39927674 9.8008461-5.11187744 11.45012665.56373596.72219849 1.59568786.77910996 2.70143127.8400917 1.4194336.07828141 2.96043396.16326905 3.78862 1.67089082.98223876 1.78804016-5.3040619 3.92690277-18.8588562 6.41659546l-27.13754273 20.80641174L198 77.61708832zM51.5082817 82L72 86.06584167q-30.91187286 57.60780335-33.15496826 61.06436158c-2.91384506 4.49014282-.94981003 12.21832275.38196945 17.45866394.2060318.81071472.3969345 1.56188965.55230331 2.23231506-3.41628265.79524231-4.59560394-1.19761658-5.83892059-3.29859924-1.40429306-2.37301636-2.89022636-4.88398743-7.7732277-3.67138672-1.88654899.46847534-3.70866775 1.10171509-5.48886489 1.72036743-6.1491251 2.13697815-11.79805756 4.10011292-17.87441301-1.50082397-.9633267-.88795472-1.66852749-3.66345215 1.61594152-5.08699036 8.18281079-3.54655457 20.27222347-10.18740845 22.23252201-12.76565552Q30.66217041 136.94424438 51.50828171 82z"/>
        <path fill="rgb(219,39,33)" fill-rule="evenodd" d="M127.6949953 5.33202834l8.6471231-1.48316788c18.8342622 18.27010313 26.52016873 62.16359952 39.07185676 67.97363505 11.86711317 5.49315351 28.68962585.17750532 48.68584888-6.99999848l6.12371776 13.68209256c-18.16849575 19.6559894-56.87433042 36.26226451-72.56344882 26.78205635-25.08363908-15.15688224-30.87434134-69.29295872-29.96509768-99.9546176z"/>
        <path fill="rgb(221,227,233)" fill-rule="evenodd" d="M90 114h76.5114507c3.4961831 0 2.83739407-5.0483629 2.33199964-7.59579448-5.8328626-29.40043923-28.60214608-61.09269004-28.60214608-102.94347522L118.1718001 0C99.91748497 29.35840682 93.6048263 65.50454992 90 114z"/>
        <path fill="rgb(255,65,51)" fill-rule="evenodd" d="M27 141.85882568Q42.49589157 45.75659943 116.7480545 0h8.73834229s29.71878815 101.30541992 16.38588715 135H73c1.08963013-16.43654633 4.58339691-33.81879425 9.36875916-50.76683044Q58.97270584 126.43515015 43.03744506 145L27 141.85882568z"/>
      </g>
    </g>
    <g transform="translate(.49242448 231)">
      <g transform="translate(82)">
        <path fill="rgb(25,24,71)" fill-rule="evenodd" d="M51 49c0-12.1421318 9.8578682-22 22-22h1c10.5780716 0 19.42245483 7.48179626 21.52548218 17.43770218 3.47167206 12.2257843 8.28127289 42.0028572 3.59178924 46.58475876h-29c-.0040741-.07076264-.00804138-.14128113-.01189422-.21155548C59.3291397 89.39199829 51 80.16101837 51 69V49z"/>
        <path fill="rgb(178,139,103)" fill-rule="evenodd" d="M92.14334106 40.13393307c5.79481125 10.8011217 5.1062355 38.1990633-2.38304138 40.12952518-2.9867134.76986695-9.34929657-1.1159935-15.82492256-5.01914596L78 104H54l8.26227379-38.50987244c-4.60790944-5.40875053-7.72663903-12.03725052-7.2054975-19.464674 1.50155377-21.40047406 31.29175353-16.69264244 37.08656477-5.8915205z"/>
        <path fill="rgb(25,24,71)" fill-rule="evenodd" d="M51.88117218 46.15044785c.69682693-.6890564 1.37099457-1.35570527 2.03994751-1.95238877l-.03224182-.777359S61.42138672 28 73.00141907 28s15.23516845 5.38832092 18.34725952 9.96308517c-2.32724762 7.98540116-11.35894776 9.16919327-19.38387299 14.147007-.94602203-.76873399-2.15200805-1.22967911-3.4648056-1.22967911-3.03553009 0-5.5 2.46446609-5.5 5.5 0 3.0355339 2.46446991 5.5 5.5 5.5.08377075 0 .167099-.00187684.24996185-.00559235 1.10577393 11.8780098.66277314 25.44244003-2.63269043 28.66230392H37.11726761c-.8324852-14.46407318 2.90916061-18.59017181 6.73256683-22.80641937 3.59752655-3.9671669 7.26743317-8.01415253 7.26743317-20.82791138.25813293-.2522087.51249313-.50373458.76390457-.75234603z"/>
      </g>
      <g transform="translate(0 187)">
        <path fill="rgb(31,40,207)" fill-rule="evenodd" d="M97.40782515 98.0880741s35.98402202 10.06477536 62.09185329 10.06477536C185.6075097 108.15284946 208 92.6532736 208 92.6532736s-35.21363868-10.3305757-58-10.3305757c-22.78636132 0-52.59217485 15.7653762-52.59217485 15.7653762z"/>
        <path fill="rgb(153,118,89)" fill-rule="evenodd" d="M180.26683545 117.82432721c-.23131459-.34774213-.42666033-.7260158-.5816042-1.1357757C176.47863668 108.20848825 125.11688497 16.7255336 120 0h57.8260873c3.8904399 12.71665938 21.4009305 92.51975955 23.86523312 108.44165429 7.77532782 25.11506473 23.7839502 106.45359034 25.82758257 112.0884747 2.14986659 5.92780276-9.94671887 12.10304072-13.1701742 4.81554223-5.1290617-11.59564054-17.3500802-43.68056955-22.7915935-63.2714034-5.10140702-18.36636464-9.25531468-34.88976667-11.29029984-44.2499406z"/>
        <path fill="rgb(178,139,103)" fill-rule="evenodd" d="M132.95706193 128.99359549c-23.48174857 5.93487842-109.3730332 16.66408855-115.26726933 18.34693794-6.06333004 1.731127-11.37971028-10.7667546-3.8851069-13.47400757 11.9251794-4.30769656 44.7844463-14.26081377 64.70713864-18.32248432 16.02460727-3.26696183 30.64725806-5.93279845 40.46452064-7.49388296C118.14464927 80.47344027 114.3427557 14.29354553 116.83468742 0H168c-2.38959496 13.70654906-22.58988762 113.7177139-26.34440026 123.7285488-1.19149839 3.57393522-4.74668091 5.15335074-8.69853781 5.26504669z"/>
        <path fill="rgb(228,228,228)" fill-rule="evenodd" d="M15.85848469 133.0550817c.34543053-1.11877735-.33982788-2.29368817-1.4836827-2.54385038 0 0-4.25533267-.93064558-6.91916826-.46094087-2.6638356.46970472-7.61789857 2.25838279-7.61789857 2.25838279l9.79404418 55.54494682s7.5395876.9030115 7.28779405-3.86241902c-.25179355-4.76543052-.3359211-7.9319805-.3359211-7.9319805l6.95706197-27.84614247c.13655863-.54658578-.2051461-1.0980341-.7553824-1.2190477l-4.31810106-.94968086s-2.7762982-3.96310823-3.25235927-6.66299255c-.47606106-2.69988431.64361316-6.32627527.64361316-6.32627527z"/>
        <path fill="rgb(228,228,228)" fill-rule="evenodd" d="M213.4182776 223.35225237c-1.0417975-.5344558-2.31785241-.06362848-2.76284187 1.01940863 0 0-1.65543573 4.02908051-1.65543573 6.73400982C209 233.81060014 209.90124261 239 209.90124261 239h56.4018122s2.19852474-7.26823912-2.53823196-7.84777684c-4.7367567-.57953773-7.8698085-1.04655234-7.8698085-1.04655234l-26.2150217-11.68678736c-.51456887-.22939737-1.11697575.0113584-1.33169813.5322217l-1.68508143 4.08758988s-4.38499781 2.04593567-7.12653195 2.04593567c-2.74153414 0-6.11840355-1.73237834-6.11840355-1.73237834z"/>
        <path fill="rgb(43,68,255)" fill-rule="evenodd" d="M117 0s33.82025916-9.6761086 64 0c7 31.9374682 24.00893992 44.6134741 27 93.57892575-34 16.89379839-76-12.04846867-111 4.4263852C87 74.96110732 101 19.46451811 117 0z"/>
      </g>
      <g transform="translate(22 82)">
        <path fill="rgb(153,118,89)" fill-rule="evenodd" d="M192.00000763 65.31079102l39.48287964-5.38562775c7.89816284-4.39313507 15.16409302-7.3672142 21.79782104-8.92223358 1.86679077-.0545044 4.83648682.62412262.41244507 4.3122673s-8.9128418 7.76800156-8.12463379 9.73630142c.78823853 1.96829224 4.90255738 1.23595429 5.58410645 4.2633667.45440674 2.0182724-6.22286988 2.34622193-20.0317688.98384094L199.08386994 83l-7.08386231-17.68920898zm-171.99543 108.37887573c7.35775567-5.04510498 17.96072007-13.87498474 19.3933487-16.78140259 2.93046951-5.94514465 28.5718689-82.45858002 28.5718689-82.45858002l21.8973999.08218384s-36.01663971 81.05071259-37.55926895 84.87374115c-2.00392151 4.96621704 1.40001297 12.18170166 3.70816421 17.07441712.35708618.75692749.6879425 1.4582672.96849442 2.0870819-3.20269013 1.43310547-4.74114609-.29910278-6.3630867-2.12532043-1.8319397-2.06266785-3.77038193-4.24525452-8.33358002-2.1222992-1.76298141.8202057-3.4312439 1.789917-5.0611267 2.73731995-5.6299801 3.27252197-10.80197907 6.27885437-17.83775521 1.9375763-1.11543083-.68826294-2.33776093-3.27966309.61554146-5.30471802z"/>
        <path fill="rgb(175,185,197)" fill-rule="evenodd" d="M127.94941292 4.9999984l17.14494231 1.14216086c4.22245072 38.20121238 27.22204535 62.3306289 78.71667241 54.1618535l6.84132093 49.19464762c-48.1295487 6.22018129-90.33932977-13.04885292-98.98994041-65.22021118-2.23936981-13.5055165-4.0075807-27.56063118-3.71299524-39.2784508z"/>
        <path fill="rgb(197,207,214)" fill-rule="evenodd" d="M42.40163422 147Q60.25723648 51.99594498 117.77587128 0h1.70127868l.01366425.01593845 25.97679138 5.94933827C145.4676056 50.64442444 159.70002747 79.15045929 167 112H96.84365082c-.98827362 11.35089874-1.59516907 23.01756287-1.9114151 35h-52.5306015z"/>
        <path fill="rgb(0,0,0)" fill-opacity=".1" fill-rule="evenodd" d="M96.84365082 112c2.01204681-23.10946655 5.60490417-44.91008759 11.54432678-65.4018631C107.08617401 68.51229858 106.72484589 95.69792175 111.10244751 112h-14.2587967z"/>
      </g>
    </g>
    <g transform="matrix(-1 0 0 1 2343.49242448 304)">
      <g transform="translate(82)">
        <path fill="rgb(178,139,103)" fill-rule="evenodd" d="M92.14334106 40.13393307c5.79481125 10.8011217 5.1062355 38.1990633-2.38304138 40.12952518-2.9867134.76986695-9.34929657-1.1159935-15.82492256-5.01914596L78 104H54l8.26227379-38.50987244c-4.60790944-5.40875053-7.72663903-12.03725052-7.2054975-19.464674 1.50155377-21.40047406 31.29175353-16.69264244 37.08656477-5.8915205z"/>
        <path fill="rgb(25,24,71)" fill-rule="evenodd" d="M102.77569977 25.1604378c-.49699025-1.7469388-1.83376809-3.24268248-3.63530003-3.68642765-.43686886-.10763628-.88804292-.1511111-1.33756891-.13298564-.1612466.00643585-.20646949.05293157-.28181898-.05982712-.05590234-.08360036-.05715487-.28784003-.08016185-.38608523-.0715919-.30550578-.16111475-.60720258-.27160098-.90108443-.37694524-1.00235054-1.0103952-1.88944686-1.77404223-2.63672765-1.4283443-1.39802387-3.3582934-2.36287574-5.36339424-2.5374317-1.097413-.09548698-2.18684936.08281229-3.22433874.43980485-.53713708.18480079-1.0579913.4149152-1.56526546.66932823-.1527426.07657346-.64828254.4516258-.8015525.4273272-.16928916-.02679415-.50951554-.44748848-.64716186-.55308893-1.70139557-1.30536079-3.80241374-1.81858685-5.92162655-1.80289126-2.39200039.01766574-4.69533492.13718864-6.69028369 1.59536799-.42229997.3087237-.82449356.64673708-1.20743776 1.00261322-.20165713.187362-.3969857.38175088-.58328288.58421742-.11239798.12214977-.22182944.24705776-.3271737.37531503-.17878201.21770242-.1501057.28921914-.40034777.13731998-.96009628-.583298-2.07267147-.85609916-3.1932892-.71838514-.66542241.0818272-1.31284795.2816012-1.9275759.54455157-.20930416.08951083-.69376911.44656906-.91685108.45004968-.22130206.00341494-.698977-.32757155-.92693724-.41169728-1.2312358-.45451537-2.55832303-.56655167-3.85244897-.35653286-1.334932.21671734-2.64626373.74931662-3.77729724 1.48530185-.54399303.35403733-1.01863552.74629571-1.39986574 1.27272184-.16460865.22729052-.31339589.46771542-.49995675.67845662-.1092337.12339754-.32552565.250013-.3841308.40618083.0350708-.09351681-1.4599212-.6698536-1.6009955-.70669555-.7515832-.19629337-1.5168783-.15649618-2.25283785.08570186-1.38391248.45543478-2.57407853 1.4767645-3.5522376 2.52390329-.50239589.53785304-.9420335 1.13238094-1.31522116 1.76578663-.17884793.30340427-.34240182.61547724-.49204605.93418308-.07251482.15439469-.12057237.3475358-.21609418.48662894-.12314335.17921867-.20587618.18263361-.42889223.2607832-1.13261564.39678975-2.1650949 1.06841649-2.95135338 1.97593677-.79528986.91815914-1.31133173 2.0488326-1.5276896 3.23953022-.01272305.07013761-.02030415.36080153-.0613739.3987599-.05629788.05227486-.28406036.02915834-.37022115.03927181-.29836555.03500314-.59462157.08708097-.88692224.15629918-.53885107.12753487-1.06333102.31522522-1.55946427.56070686-1.93403631.95690557-3.3170918 2.75086545-3.99398473 4.76948898-.71024975 2.11844484-.69765854 4.54548204.15122638 6.62439239.13711894.33578053.3002773.66171028.4919142.97003995.11767178.18926648.15564318.18972618.07923893.38831807-.08517196.22092035-.24074922.43560186-.34187444.65146547-.32994246.7044627-.56060552 1.45161215-.7062944 2.21471988-.23903523 1.2517725-.35749809 2.56724675-.12169306 3.82854168.10949739.5856622.3002773 1.15819.59132544 1.67982208.1483917.26597128.32203174.51821713.51808546.75154947.10178445.1211647.20989746.23687862.32295466.34773282.06467004.06330773.14944647.11873484.20442589.1894635.13421835.17245446.1624332.03066878.09321451.28389971-.09677433.35403733-.31616464.70334628-.45051483 1.04786118-.1384374.35502241-.26355843.71490454-.378 1.07833295-.23178376.73591956-.42777155 1.4851705-.5503216 2.24729316-.23534358 1.46323608-.19401013 3.02235317.49811092 4.3652783.2959264.57443229.72046775 1.07833294 1.23538893 1.47032864.25202198.19176201.52500733.35705824.81137497.4928021.14713917.06987493.3350185.09982132.40212767.24213238.07225113.15301557-.03500489.45687955-.05946216.62795491-.21279805 1.48825709-.31952669 3.05085479.12287967 4.50929682.4074674 1.34331915 1.30460762 2.52935406 2.46939348 3.31459322 2.25962788 1.52326022 5.30551422 1.43736135 7.67978144.21789944.61888108-.31791778 1.197879-.71260602 1.71438232-1.17815428 1.31522116 1.770515 4.0216722 1.71449686 5.94390837 1.21000516 2.39483506-.62848029 4.31647793-2.2937232 5.42364746-4.48164894 1.51391178 1.84295113 4.69111588 1.24500829 5.74093278-.7543077.25696618-.48932148.40937915-1.0286193.48439904-1.57435297.03948762-.2869863.0143052-.57646812.04397035-.8611559.03783955-.3627717.28017092-.71529857.4194653-1.06624932.27127137-.68298798.43970353-1.38850144.44695502-2.12520905.00375758-.38464045-.0449592-.75949577-.08154622-1.14104964-.03289536-.34346415.06236275-.66348342.11648518-1.00248188-.61420057.10113476-1.36248765-.06448983-1.94115595-.24259208-.567857-.17475298-1.09972028-.63504748-1.5005295-1.05541345-.9306289-.97614744-1.49914513-2.25576483-1.88795643-3.5293404-.8534995-2.79525967-.50364843-6.14892769 2.30788319-7.68302377 1.30974959-.71464185 5.23359398-.71229776 6.7935638-.3590974 1.64023998.37137471 3.49971786 3.99062331 3.59121839 4.33080386.05662748.21054418.02814893.47113037.22156575.6114056.42506872.308461 1.12608931-.22683082 1.43961705-.49102896.54102651-.45596015.92693723-1.06263737 1.26116465-1.67758924.72824661-1.3397072 1.315353-2.77641182 1.73007188-4.24306285.31972446-1.13073914.52415034-2.2967441.9420335-3.39865328.41583957-1.0964584 1.07137358-2.07648049 2.09060241-2.69760552 1.10875168-.6756984 2.37967287-1.03157454 3.59686718-1.45620919 1.20651484-.42082567 2.39219815-.93516816 3.32744163-1.82810928.2056125-.19635904.40535787-.40499874.57088944-.6361639.13065853-.18250227.25980084-.5318769.458887-.64759082.30950646-.18000673.7612079.28810272 1.02885352.45806165 1.32042905.83863044 2.42206109 2.00824736 3.31056546 3.28596027.88356019 1.27075168 1.60856348 2.49349719 2.19771348 3.9124704.4370007 1.05239254.70973548 2.40017738 1.4783267 3.26264673.34312697.38510015 2.89367114.61807525 3.71981276.28186389.82614163-.33621137 1.7520241-1.2092171 2.02929442-1.75632987.28386258-.55998448.3516969-1.17513337.23039938-1.78818075-.07132822-.3606702-.2170171-.69756715-.29671748-1.0518015-.06710918-.29755948-.12802163-.57883232-.27285351-.85143646-.27450158-.51657534-.74347473-.88788438-1.30902444-1.0431328.58855669-.54264709 1.07625185-1.19181403 1.41370948-1.91748877.35064214-.75391366.64782108-1.67075935.73213604-2.49822556.06855947-.67208645-.03724625-1.36840583-.4051601-1.94599038-.38597664-.60588915-1.06972552-1.00116845-1.66131465-1.37911035.90366657-.70702391 1.67707014-1.56686638 2.31289331-2.51884655 1.23650962-1.85129147 2.00134325-4.18487753 1.37336487-6.39197947z"/>
      </g>
      <g transform="translate(0 187)">
        <path fill="rgb(197,207,214)" fill-rule="evenodd" d="M184 42H69c-8.83063889 0-16 7.16935968-16 16v92c0 8.8306427 7.16936111 16 16 16h115c8.8306427 0 16-7.1693573 16-16V58c0-8.83064032-7.1693573-16-16-16zm-16 28H85c-2.20765686 0-4 1.79233932-4 4v60c0 2.20765686 1.79234314 4 4 4h83c2.20765686 0 4-1.79234314 4-4V74c0-2.20766068-1.79234314-4-4-4z"/>
        <path fill="rgb(178,139,103)" fill-rule="evenodd" d="M245.71102905 96.58005905c3.71936798 13.0282135 12.98545075 37.72148132 25.7982254 66.07978821l12.175354-3.5524292c-10.65173339-65.2548027-19.51651-108.45667267-24.59436034-121.60559082-3.35498047-8.6875267-28.73686981-7.66959953-25.81691742 9.81094742 1.2244873 7.33051681 6.06922912 26.95979309 12.43769836 49.2672844zm-50.04380798-46.2188301C175.81195068 54.4748764 134.64405823 69.0168228 122.8883438 73.6635437c-7.38809967 2.92030335-2.62532806 12.8244629 3.67744446 11.9579773 4.4970169-.61823273 57.04576874-6.12722779 94.11277008-11.46196747 14.88400269-2.142128 6.87742615-30.02152634-8.57647705-27.07128525-5.1992035.99255753-10.72924805 2.09086227-16.43486023 3.27296066z"/>
        <path fill="rgb(31,40,207)" fill-rule="evenodd" d="M158 0h7.56217957s92.27653503 23.51358414 94.30647277 30.13784218c.01431275.04673004.0270691.09354019.03829956.14042854.03155518.04138184.06259156.0830326.0930481.12493897 12.1914978 16.766819 19.49295044 98.62375259 21.8894043 104.75291824l-23.36166382 3.48524475c-3.5333252-13.102211-10.13923645-24.63288116-16.7887268-36.23964691-10.168396-17.74903107-20.43872071-35.67599487-19.97952271-59.67271423-.20507813-1.16423417-.25689698-2.26831437-.17236328-3.31275177L158 7.04671764V0z"/>
        <path fill="rgb(43,68,255)" fill-rule="evenodd" d="M163.2831726 58.64047623c-5.81806945-1.16465378-11.17588805-2.2040863-15.76046752-3.00821686C117.9092865 50.43808365 109.27376556 34.5862503 114.37954712 0h54.56221008c8.91282654 2.560318 55.23228455 21.98483849 79.26486206 32.31633759 15.90602112 6.83791732 10.891922 31.48816299 1.88433838 37.90315246-.04891968.39354706-.21102905.66086578-.49969482.78050995-34.1508484 14.15433502-63.27334595 13.09823608-81.97427368 12.42007446-7.83259583-.28404236-13.83700562-.50178528-17.61698914.49208832l-5.92288208-18.68374634 19.20605469-6.58794021z"/>
        <path fill="rgb(228,228,228)" fill-rule="evenodd" d="M129.0524207 72.6964136c.0236722-1.17065138-.95888987-2.11116523-2.12738774-2.03634734 0 0-4.34700895.27833512-6.77818378 1.46409712-2.43117484 1.185762-6.70029901 4.27067495-6.70029901 4.27067495l24.72490684 50.69362288s7.49642035-1.21016238 5.94084974-5.72158434c-1.55557062-4.51142196-2.50925897-7.53211638-2.50925897-7.53211638l-.98788277-28.6850562c-.01939093-.56305262-.4998584-.99895215-1.06213534-.96361214l-4.41259264.27733856s-3.7611301-3.04433227-4.96293858-5.5084073c-1.20180849-2.46407505-1.12507774-6.25860982-1.12507774-6.25860982z"/>
        <path fill="rgb(228,228,228)" fill-rule="evenodd" d="M268.4182776 156.35225237c-1.0417975-.5344558-2.31785241-.06362848-2.76284187 1.01940863 0 0-1.65543573 4.02908051-1.65543573 6.73400982C264 166.81060014 264.90124261 172 264.90124261 172h56.4018122s2.19852474-7.26823912-2.53823196-7.84777684c-4.7367567-.57953773-7.8698085-1.04655234-7.8698085-1.04655234l-26.2150217-11.68678736c-.51456887-.22939737-1.11697575.0113584-1.33169813.5322217l-1.68508143 4.08758988s-4.38499781 2.04593567-7.12653195 2.04593567c-2.74153414 0-6.11840355-1.73237834-6.11840355-1.73237834z"/>
      </g>
      <g transform="translate(22 82)">
        <path fill="rgb(178,139,103)" fill-rule="evenodd" d="M194.0444107 89.12251282l28.32791138 27.63502502c8.2423706 3.51581574 14.9958191 7.39797974 20.26037598 11.64649964 1.18389892 1.42807006 2.47277832 4.1643219-3.09747315 2.93989563-5.57025146-1.22444153-11.48440551-2.26185608-12.53131103-.45036316-.45843506.79321289-.12463379 1.77130127.23303223 2.81944275.45916748 1.34538269.95761108 2.80601501-.12997437 4.13867187-1.28988647 1.58050537-5.62786865-3.44680786-13.01400757-15.08193207l-29.45727539-17.36727905 9.40872193-16.27996063zM36.00457765 173.68966675c7.35775375-5.04512024 17.96072387-13.875 19.3933525-16.78141785C58.32839585 150.96310425 68.30793 93.01988983 68.30793 93.01988983l20.89739228.08217621s-19.35476685 62.48051453-20.89739228 66.3035431c-2.00391388 4.96620177 1.40000153 12.18167113 3.70814514 17.07437133.35709382.756958.68795777 1.45829773.9685135 2.08712768-3.20269013 1.43310547-4.7411499-.29911804-6.36309052-2.12533569-1.8319397-2.06266785-3.77037811-4.24523926-8.3335762-2.12228393-1.76298905.82020568-3.43126297 1.78991699-5.0611496 2.73731994-5.62997055 3.27252197-10.8019638 6.27885437-17.83773422 1.9375763-1.11543274-.68826294-2.33776093-3.27966309.61553955-5.30471802z"/>
        <path fill="rgb(25,24,71)" fill-rule="evenodd" d="M127.69499574 5.33202859l8.6471231-1.48316788c14.88754146 37.19023143 40.8796267 70.98227894 77.97625574 101.3761425l-28.03207703 34.05636428c-37.09229814-43.2767844-59.95606541-87.92656414-58.5913018-133.9493389z"/>
        <path fill="rgb(221,227,233)" fill-rule="evenodd" d="M90 114h77S140.24130426 48.93772022 140.24130426 3.4607303L117.01420804 0C98.7598929 29.35840682 93.6048263 65.50454992 90 114z"/>
        <path fill="rgb(47,54,118)" fill-rule="evenodd" d="M55 147C63.42087555 51.99594498 116.50396729 0 116.50396729 0l.01847076.01641892C116.5254898.010945 116.52853394.00547202 116.53158569 0h1.51616669c2.721344.0937097 8.28990936.33767328 8.28990936.33767328l5.61250305 16.03920737c.89050293 29.33331298 10.40097046 118.22909164 10.40097046 118.22909164H91.94989777c.0857544 4.075943.27558136 8.20930481.58071136 12.39402771H55z"/>
        <path fill="rgb(0,0,0)" fill-opacity=".1" fill-rule="evenodd" d="M91.95851135 135c-.4023056-17.7496872 1.17235565-34.41596222 3.79920197-49.49813843C97.13162994 103.39854431 100.0030365 124.93349457 106 135H91.95851135z"/>
        <path fill="rgb(255,255,255)" fill-opacity=".2" fill-rule="evenodd" d="M103.11089892 104L128 92.42927179V104h-24.88910108z"/>
      </g>
    </g>
    <g transform="matrix(-1 0 0 1 1927.49242448 304)">
      <g transform="translate(82)">
        <path fill="rgb(178,139,103)" fill-rule="evenodd" d="M92.14334106 40.13393307c5.79481125 10.8011217 5.1062355 38.1990633-2.38304138 40.12952518-2.9867134.76986695-9.34929657-1.1159935-15.82492256-5.01914596L78 104H54l8.26227379-38.50987244c-4.60790944-5.40875053-7.72663903-12.03725052-7.2054975-19.464674 1.50155377-21.40047406 31.29175353-16.69264244 37.08656477-5.8915205z"/>
        <path fill="rgb(25,24,71)" fill-rule="evenodd" d="M63 41c13.8492508.09921646 23.48535156-.48439407 29-2-.25143433-4.6937828-5.13092804-10-18-10-14.31801605 0-22 8.34550858-22 18 0 8.8205185 5.67813873 19.56280518 10 20 1.11876297-.2447586 2.07395172-1.5911789 3.02373505-3.44698715C63.24582672 62.70963669 62 60.76359177 62 58.5c0-3.0355339 2.24042511-5.5 5-5.5 1.00228119 0 1.93608093.32509995 2.71892548.88458633C71.53517914 50.95372391 73.8116989 48.76198578 77 49l-2-6-12-1v-1z"/>
      </g>
      <g transform="translate(0 187)">
        <ellipse cx="116" cy="58.5" fill="rgb(197,207,214)" rx="77" ry="73.5" transform="translate(10 42)"/>
        <path fill="rgb(178,139,103)" fill-rule="evenodd" d="M245.71102905 96.58005905c3.71936798 13.0282135 12.98545075 37.72148132 25.7982254 66.07978821l12.175354-3.5524292c-10.65173339-65.2548027-19.51651-108.45667267-24.59436034-121.60559082-3.35498047-8.6875267-28.73686981-7.66959953-25.81691742 9.81094742 1.2244873 7.33051681 6.06922912 26.95979309 12.43769836 49.2672844zm-50.04380798-46.2188301C175.81195068 54.4748764 134.64405823 69.0168228 122.8883438 73.6635437c-7.38809967 2.92030335-2.62532806 12.8244629 3.67744446 11.9579773 4.4970169-.61823273 57.04576874-6.12722779 94.11277008-11.46196747 14.88400269-2.142128 6.87742615-30.02152634-8.57647705-27.07128525-5.1992035.99255753-10.72924805 2.09086227-16.43486023 3.27296066z"/>
        <path fill="rgb(31,40,207)" fill-rule="evenodd" d="M158 0h7.56217957s92.27653503 23.51358414 94.30647277 30.13784218c.01431275.04673004.0270691.09354019.03829956.14042854.03155518.04138184.06259156.0830326.0930481.12493897 12.1914978 16.766819 19.49295044 98.62375259 21.8894043 104.75291824l-23.36166382 3.48524475c-3.5333252-13.102211-10.13923645-24.63288116-16.7887268-36.23964691-10.168396-17.74903107-20.43872071-35.67599487-19.97952271-59.67271423-.20507813-1.16423417-.25689698-2.26831437-.17236328-3.31275177L158 7.04671764V0z"/>
        <path fill="rgb(43,68,255)" fill-rule="evenodd" d="M163.2831726 58.64047623c-5.81806945-1.16465378-11.17588805-2.2040863-15.76046752-3.00821686C117.9092865 50.43808365 109.27376556 34.5862503 114.37954712 0h54.56221008c8.91282654 2.560318 55.23228455 21.98483849 79.26486206 32.31633759 15.90602112 6.83791732 10.891922 31.48816299 1.88433838 37.90315246-.04891968.39354706-.21102905.66086578-.49969482.78050995-34.1508484 14.15433502-63.27334595 13.09823608-81.97427368 12.42007446-7.83259583-.28404236-13.83700562-.50178528-17.61698914.49208832l-5.92288208-18.68374634 19.20605469-6.58794021z"/>
        <path fill="rgb(228,228,228)" fill-rule="evenodd" d="M129.0524207 72.6964136c.0236722-1.17065138-.95888987-2.11116523-2.12738774-2.03634734 0 0-4.34700895.27833512-6.77818378 1.46409712-2.43117484 1.185762-6.70029901 4.27067495-6.70029901 4.27067495l24.72490684 50.69362288s7.49642035-1.21016238 5.94084974-5.72158434c-1.55557062-4.51142196-2.50925897-7.53211638-2.50925897-7.53211638l-.98788277-28.6850562c-.01939093-.56305262-.4998584-.99895215-1.06213534-.96361214l-4.41259264.27733856s-3.7611301-3.04433227-4.96293858-5.5084073c-1.20180849-2.46407505-1.12507774-6.25860982-1.12507774-6.25860982z"/>
        <path fill="rgb(228,228,228)" fill-rule="evenodd" d="M268.4182776 156.35225237c-1.0417975-.5344558-2.31785241-.06362848-2.76284187 1.01940863 0 0-1.65543573 4.02908051-1.65543573 6.73400982C264 166.81060014 264.90124261 172 264.90124261 172h56.4018122s2.19852474-7.26823912-2.53823196-7.84777684c-4.7367567-.57953773-7.8698085-1.04655234-7.8698085-1.04655234l-26.2150217-11.68678736c-.51456887-.22939737-1.11697575.0113584-1.33169813.5322217l-1.68508143 4.08758988s-4.38499781 2.04593567-7.12653195 2.04593567c-2.74153414 0-6.11840355-1.73237834-6.11840355-1.73237834z"/>
      </g>
      <g transform="translate(22 82)">
        <path fill="rgb(178,139,103)" fill-rule="evenodd" d="M2.01430633 151.35992715c8.12204877-3.69082124 20.09722676-10.54536751 22.01278126-13.15886699 3.91831212-5.34593574 27.51209164-62.82596473 27.51209164-62.82596473l17.6112129 3.18877891s-30.66004194 60.84132602-32.84309275 64.3383999c-2.83585726 4.54280887-.73658144 12.23979674.68689493 17.45895398.22021717.8074366.4242647 1.5555692.59135713 2.22353432-3.40289184.85519495-4.61717897-1.11785489-5.89735913-3.19797349-1.44593723-2.34943968-2.97592898-4.8354691-7.83844696-3.5371358-1.87863394.50160781-3.689954 1.16688748-5.45959834 1.8168784-6.11270247 2.24516329-11.72815945 4.30770416-17.90318404-1.18938235-.97897054-.87150123-1.73273714-3.63577437 1.52734336-5.11722215zm193.87523995-66.22843986l31.89828112 23.42359826c8.65146425 2.33447995 15.8794748 5.23895811 21.68404847 8.71345625 1.37114925 1.24940742 3.02831056 3.77965216-2.65814984 3.34236878-5.68646147-.4372986-11.68741696-.64152014-12.47204524 1.29804918-.34356972.8493078.12312366 1.7714681.62318303 2.75954622.64192276 1.26840059 1.3388297 2.64544345.44728395 4.1164914-1.05738869 1.74465086-6.05283275-2.62998899-14.98637998-13.12394678l-31.58764318-13.09859813 7.05142167-17.43096518z"/>
        <path fill="rgb(105,161,172)" fill-rule="evenodd" d="M138.26416016 2.0414443l-10.69503022 4.38612414c.11226654 2.7933712.10121155 6.767097.08855439 11.31965398-.03974152 14.28873444-.09534455 34.2795086 3.59617614 41.37434197 14.50326538 27.87427902 46.33119202 40.60396957 80.19412232 57.48806381l8.04716492-16.427948c-.93215943-.66069793-1.85609437-1.3251419-2.77192688-1.9932785 1.26431274-.44294739 2.31855773-1.44339752 2.77944946-2.8112793.79354858-2.35518646-.47239685-4.90773773-2.82759094-5.70128631-4.7862854-1.61268616-9.25053406-2.29257203-13.35462952-1.99793244C173.34902954 62.42323446 153.17262268 32.858253 138.26416016 2.0414443z"/>
        <path fill="rgb(25,24,71)" fill-rule="evenodd" d="M90 113.90974514s47.15748912 5.18050972 74.23623368 0c2.23658324-.42788694 2.13836408-10.06934415 1.10115136-12.70251694-16.15210168-41.0053539-26.77708318-71.02319574-26.77708318-99.50459086C134.11474082 4.02477624 123 2.39864042 123 2.39864042 103.08620167 31.7496339 93.93253778 65.42654073 90 113.90974514z"/>
        <path fill="rgb(137,197,204)" fill-rule="evenodd" d="M30.19255066 114.40551758C57.98120689 34.97990036 114.97566796 0 114.97566796 0h11.37275695c-1.288208 17.0356636 4.76454926 41.82602692 11.7860794 70.58420563 11.22952271 45.99293518 24.93689729 102.13440704 15.05608369 152.93390655-12.14893341 2.71307373-26.42422486.8607483-41.8783722-1.14453125C89.00826074 219.47947693 64.2489376 216.26678467 39.8828125 226c1.53489304-33.24934387 32.2807827-72.30978394 44.27602959-107.24298096-1.06732941-1.00491333-1.62430573-2.5109787-1.35095215-4.06122589l.52094269-2.954422c.35275268-2.00056457 1.97971344-3.4590454 3.89885711-3.68782043.33564759-1.50036621.62503815-2.99069214.8640442-4.4701004 1.22116088-7.55883026.44158935-15.02864075-.32922364-22.41448975-.42320251-4.05512237-.84375763-8.08493042-.92910004-12.09026337-13.39304352 11.93140412-29.60540771 32.73410798-43.28546333 68.79235077l-18.8867855-5.5575714c.72219276-2.68302918 1.4789543-5.3220215 2.26766013-7.91726685-2.1860733-1.20500946-4.7633953-6.92612458-2.92221641-7.88005066 1.9454174-1.00793457 4.00953674-1.7091446 6.1859455-2.11064148z"/>
        <path fill="rgb(0,0,0)" fill-opacity=".1" fill-rule="evenodd" d="M119.10575879 1l-5.1591552 15.86544512 10.389393 11.8935984-9.389393 9.346463L137.66225107 77l-27.77866455-38.81678806 9.22217227-9.42416841-9.22217227-10.51058527L119.10575879 1z"/>
        <path fill="rgb(0,0,0)" fill-opacity=".4" fill-rule="evenodd" d="M127 88c0-2.20765686 1.79234314-4 4-4s4 1.79234314 4 4-1.79234314 4-4 4-4-1.79234314-4-4zm5 23c0-2.20765686 1.79234314-4 4-4s4 1.79234314 4 4-1.79234314 4-4 4-4-1.79234314-4-4zm1 23c0-2.20765686 1.79234314-4 4-4s4 1.79234314 4 4-1.79234314 4-4 4-4-1.79234314-4-4z"/>
      </g>
    </g>
    <g transform="matrix(-1 0 0 1 2135.49242448 304)">
      <g transform="translate(82)">
        <path fill="rgb(178,139,103)" fill-rule="evenodd" d="M92.14334106 40.13393307c5.79481125 10.8011217 5.1062355 38.1990633-2.38304138 40.12952518-2.9867134.76986695-9.34929657-1.1159935-15.82492256-5.01914596L78 104H54l8.26227379-38.50987244c-4.60790944-5.40875053-7.72663903-12.03725052-7.2054975-19.464674 1.50155377-21.40047406 31.29175353-16.69264244 37.08656477-5.8915205z"/>
        <g transform="translate(36 28)">
          <path fill="rgb(44,44,44)" fill-rule="evenodd" d="M50.73500016 5.01147183c-.54972934-.3281041-1.69985921-1.0201734-2.28252581-1.27100148-.13788442-.06035719-1.10331347-.74911607-1.12927578-.74038811-.73094886.24659839-2.8475696 1.15705676-3.0292412 1.94378148-.02815813.05961867-.0557996.11554474-.08273065.1644213-.29992282.54522883-.5751104 1.10401957-.83763975 1.66959126-.57607914 1.24151847-1.0733672 2.5390973-1.54830958 3.82647112-.92508495 2.50720669-1.7287541 5.07282355-2.46764666 7.64428144-.7522612 2.61771606-1.3907274 5.26597997-2.10546595 7.89450528-1.02848211 3.78229423-2.34481005 7.47180355-3.36618804 11.2525536-.65222235 2.41408609-1.0149843 4.85650446-.84371054 7.34115273.00167915.02987648.0026479.05935012.00536038.08969656.00103332.01242055.00258331.02470683.00368122.03712739.02912687.38194888.07065365.76483768.12600117 1.14886784.04843715.32837264.09700346.65795377.14879892.98746776.93296405-1.86039785 1.64524846-3.91032666 2.4011263-5.85598995.07394738-.1904709.14447187-.3823517.21338179-.57483675.24373573-.39457084.49225059-.78632189.74354251-1.1765959 1.58473432-2.46101564 3.17573318-4.91296763 4.69536797-7.41849586 2.73327598-4.50637907 5.44104172-9.10802716 8.68155151-13.24615353.95685972-1.22198127 1.93600052-2.42523101 2.88084782-3.65721587.53765235-.70105646 1.0613548-1.41386208 1.56807194-2.13935682.36224529-.5187764 1.9371334-2.32700792 1.36683174-3.4134373-.29179048-.55586328-3.71577509-3.65520172-5.14182931-4.5064462z"/>
          <path fill="rgb(137,145,220)" fill-rule="evenodd" d="M48.62601707 3.83116599c.5346006.17965322.2745115-.93280529-.24329264-1.3242817C45.9838484.6932577 36.81265309.03512997 28.83168309 1.69188378c-5.346502 1.1098698-11.56461877 3.87227907-15.83502868 7.4235744-3.84965977 3.20150106-6.49716996 8.33367492-7.86023194 13.29221686-1.43116903 5.20656574-1.64792708 10.63461227-.85058122 15.97369301.17516998 1.1727611.5515683 2.29036874.76128532 3.43825409.2361702 1.2926715.35731518 2.53725879.77832853 3.79491751.25781969.7699475.69594205 1.52475615.9159245 2.29910526.25110768.88358895.0980478 1.70102044-.08508445 2.59974825-.29842069 1.46480095-.66843602 2.9266008-1.19427499 4.32557774-.7896468 2.10076624-1.7478832 4.06828389-2.3486728 6.24827903C2.31396158 63.98790792-1.0299139 73.42713604 1.41378875 76h46.5186025c-1.17137522-3.19523211-4.68748249-6.95571445-5.39928327-10.37616204-.41923665-2.01493494-.61868827-6.41527328-.66257948-6.57519828-1.04830206-7.22630243-3.09520236-10.67717616-4.37718712-11.92954134-1.28198476-1.25236517-2.9894937-1.63747384-3.07747352-2.72380341-.36363235-4.49297213 1.42300935-8.79794235 2.7330992-12.99113847 1.56139494-4.99762286 2.70565896-10.11922428 4.31535397-15.09990763.71278785-2.2055378 4.38591353-13.40588813 7.16169604-12.47308284z"/>
          <path fill="rgb(0,0,0)" fill-opacity=".2" fill-rule="evenodd" d="M30.56184196 25.14210892c-.3772869-7.60507393 0-10.57615853 1.75419426-16.14210892h-1.0815773c-1.70995712 2.20890713-3.14068603 8.96520615-1.53313827 16.14210892h.86052131zm-8.34838676-9.84980297c1.48475838 11.2587614 1.91823196 17.68977642 9.65299034 30.00533199l-.82292366.25159073c-7.96039581-10.7230835-9.22224235-19.47513199-9.59833145-30.19508934l.76826477-.06183338zm.45668793 27.1068449C13.5415306 35.9803772 12.05106258 31.29637527 8.78209019 23.3643074l-.68758679.33044434c2.16963768 7.93585777 4.80862046 14.06210327 13.8707409 19.19797134l.70489883-.49357223zm-8.29662037 5.48128128l-.70406914.85588455C20.92756844 50.25533295 23.40442657 59.63406372 34 64.00681305l1.01120758-.61270142C22.91069412 57.1023674 23.98085976 50.8896637 14.37352276 47.88043213z"/>
        </g>
      </g>
      <g transform="translate(0 187)">
        <g transform="translate(65 42)">
          <path fill="rgb(197,207,214)" fill-rule="evenodd" d="M27.6226415 0h77.25455148L115 124H0L27.6226415 0z"/>
          <path fill="rgb(0,0,0)" fill-opacity=".1" fill-rule="evenodd" d="M27.6226415 0h23.7601596l14.22097248 124H0L27.6226415 0z"/>
        </g>
        <path fill="rgb(178,139,103)" fill-rule="evenodd" d="M212.32341003 66.56646729c-8.68144226 18.41159439-22.24684143 63.1057167-22.24684143 63.1057167l11.51657105 5.26159668s29.22111511-46.98135376 47.0792694-79.09739304c-.83213805 7.22999955-1.67939758 15.36973572-2.464859 23.92626572-1.8607483 20.27046204-.00100708 64.06414795 1 76.71472168.62910461 7.95050049 11.43222046 6.28494263 12.44067383-.0206604C260.65667725 150.1511116 279.97161865 50.40290833 280 29.23841476c.00949097-7.07369613-13.80987549-13.42826175-22.0466919-8.48229408-5.6578369-6.03693008-16.36566162-9.5164051-22.51725768.45588875-3.91073609 6.33966255-13.20281983 24.3377037-23.11264039 45.35445786z"/>
        <path fill="rgb(31,40,207)" fill-rule="evenodd" d="M190.89992237 113.12535469l39.52746167-93.63805378c9.46932164-15.23246624 36.01877245 3.09968393 32.78952956 11.93441739-7.33138107 20.05757995-44.61720191 84.99251957-46.80146526 90.96834273l-25.51552597-9.26470634z"/>
        <path fill="rgb(228,228,228)" fill-rule="evenodd" d="M191.60246668 124.22829544c-.634995-.98375116-1.9755046-1.21403046-2.90239546-.4985877 0 0-3.44819015 2.66156756-4.80065525 5.0041048-1.35246509 2.34253726-3.16666695 7.28731033-3.16666695 7.28731033l48.8453969 28.20091525s5.53809882-5.19521632 1.72571658-8.06548977c-3.81238224-2.87027346-6.29217702-4.84124634-6.29217702-4.84124634l-16.85947672-23.22856875c-.33093094-.45594844-.97300847-.54865139-1.41939522-.20493182l-3.50311877 2.69741531s-4.82048726-.42066754-7.19472521-1.79143505c-2.37423796-1.37076752-4.43250288-4.55948626-4.43250288-4.55948626z"/>
        <path fill="rgb(228,228,228)" fill-rule="evenodd" d="M247.4182776 150.35225237c-1.0417975-.5344558-2.31785241-.06362848-2.76284187 1.01940863 0 0-1.65543573 4.02908051-1.65543573 6.73400982C243 160.81060014 243.90124261 166 243.90124261 166h56.4018122s2.19852474-7.26823912-2.53823196-7.84777684c-4.7367567-.57953773-7.8698085-1.04655234-7.8698085-1.04655234l-26.2150217-11.68678736c-.51456887-.22939737-1.11697575.0113584-1.33169813.5322217l-1.68508143 4.08758988s-4.38499781 2.04593567-7.12653195 2.04593567c-2.74153414 0-6.11840355-1.73237834-6.11840355-1.73237834z"/>
        <path fill="rgb(43,68,255)" fill-rule="evenodd" d="M282.77037312 36.4330278c0 26.5669722-12.6167735 88.53726557-12.62475727 94.38708375L243 130.84096261s5.95991587-82.94322234 4.22668288-83.8367647c-1.73323298-.89354235-71.05084528 6.92083266-91.84032504 6.92083266C125.40782515 53.92503057 113.00630654 35.02039713 112 0h59.38635784c12.09159567 1.29386693 75.16246762 14.01525676 98.58573876 18.38841285C280 20.26063585 282.77037312 29.1145109 282.77037312 36.4330278z"/>
      </g>
      <g transform="translate(22 82)">
        <path fill="rgb(178,139,103)" fill-rule="evenodd" d="M24.00457764 166.68966675c7.35775566-5.04510498 17.96072387-13.875 19.3933487-16.78140259 2.9304695-5.94514465 17.57186507-82.45858002 17.57186507-82.45858002l21.89739609.08218384S57.85055542 148.58258057 56.30793 152.40560913c-2.00392152 4.96621704 1.40001296 12.18170166 3.7081642 17.07441712.35708619.75692749.68794251 1.4582672.96849442 2.0870819-3.2026863 1.43310547-4.74114608-.29910278-6.3630867-2.12532043-1.8319397-2.06266785-3.77038192-4.24525452-8.33358383-2.12228394-1.76299667.8202057-3.43127441 1.789917-5.06117248 2.7373352-5.62995148 3.27250672-10.80194474 6.27882386-17.83771134 1.93754579-1.11542892-.68826294-2.33775902-3.27966309.61554337-5.30471802zm175.48853302-74.22933197l28.32791137 27.63502502c8.2423706 3.51581574 14.9958191 7.3979721 20.26037598 11.646492 1.18389893 1.42807007 2.47277832 4.16433716-3.09747314 2.93989564-5.57025147-1.22444153-11.48440552-2.26184082-12.53131104-.45036316-.45843506.79321289-.12463379 1.77134704.23303223 2.81944275.45916748 1.34539795.95761108 2.80603027-.12997437 4.13867187-1.28988647 1.58052063-5.62786865-3.4467926-13.01400757-15.08192444l-29.45727539-17.36727905 9.40872193-16.27996063z"/>
        <path fill="rgb(219,39,33)" fill-rule="evenodd" d="M127.69499548 5.3320284l8.6471231-1.48316787c13.62183596 48.15186274 83.61047614 80.9740953 87.90698806 98.97447858 1.57564448 6.6012163-3.17524042 9.93818196-.72115892 11.94885032l-11.23957435 8.22781172c-1.90332231-2.22066773-5.96500095 1.84145275-14.44708199-1.00000045-8.48208104-2.8414532-70.14629768-59.65210311-70.1462959-116.6679723z"/>
        <path fill="rgb(255,65,51)" fill-rule="evenodd" d="M139.24986267-2.83754945l-26.93423462-1.88342452c-2.20228576-.15399885-4.11528778 1.50894785-4.26927948 3.71123028l-.40960693 5.85764313c-16.27355957 12.5232811-56.60718918 49.94540023-67.11755371 119.60899734-1.10406113 7.31782532.89256286 11.23742676 2.48788833 14.36923218 1.09130478 2.14234924 1.99482727 3.9160614 1.58955384 6.15673828l14.70962906 4.06039429c0-4.06039429 11.16492462-5.73576355 14.04486846-16.27578736 1.6174698-5.9196167 3.9859848-13.31323242 6.81570435-21.53816223C80.43403625 122.12235546 82.49986267 132.14039898 87 140.437747c11.22733307 20.700943 76.10876465-2.00117493 82.8872757-23.1194992 3.61709594-11.26909638-1.51538086-20.73000336-8.30347443-33.24272156-8.61653137-15.88317108-19.9006958-36.6836815-19.34310913-72.34166336l.72039795-10.30212975c.1539917-2.2022829-1.50894165-4.11528396-3.71122742-4.26928258z"/>
      </g>
    </g>
  </g>
</svg>
