<svg xmlns="http://www.w3.org/2000/svg" width="1011" height="820.335" viewBox="0 0 1011 820.335">
  <g>
    <g>
      <g opacity=".505">
        <path fill="rgb(242,242,242)" fill-rule="evenodd" d="M936.0766515 571.63238934c12.55507362 80.06193212-291.92683184 132.28359066-554.00146614 95.83935421C120.00055106 631.02750711-.22686503 488.7086534 124.83078115 412.87557351c125.05764617-75.83307987 798.69079673 78.69488371 811.24587035 158.75681583z"/>
      </g>
      <path fill="rgb(242,242,242)" fill-rule="evenodd" d="M680.46527988 316.35264552c3.4673981-2.65080698 8.84722988-.96138485 12.33811891.60328033 1.34501561.60347683 4.7824232 2.53321393 7.33179003 4.70519765-.33683249-1.50547046-.63734284-3.02410317-.8996735-4.5551896-1.07862362-6.29530292-1.82150393-12.7098861-2.1787162-19.08729676-.09305655-1.66355264.0281271-3.52221488.1509558-5.40526904.04155123-.63773746.0833713-1.2782723.11704408-1.9149558-.13965741-.15042908-.23383425-.35815725-.2734814-.63957908-.03851682.30577629-.03358542.45308685-.06362126.4605889-.01864188.00467651-.05072258-.04443305-.11493536-.14283821-.02506575-.0383517-.0549948-.08420088-.0909628-.13727298-2.57972968-3.85975423-4.746258-8.20886876-5.04399334-12.98988387-.25199972-4.05481742 3.07840086-11.72678623 7.79897901-6.41578047 2.111974 2.3719005 1.563442 19.02996229-1.60846949 20.05084213.84728504 5.51983426 1.91264192 11.03034731 3.24734883 16.47090734.2000615-.0353544.40399575-.03847954.60571214-.01094753-.01907952-1.35261422-.02118129-2.82859343.03420276-3.33609496.475435-4.37197843 4.12589213-13.24820752 9.93721822-11.52486472 4.46567285 1.3244587 1.72859318 6.7763596.2088027 9.16258403-2.44636203 3.84183197-5.21367183 5.5054038-8.71811493 7.50326119-.0701594.82558457-.60229549 1.30556414-1.23064734 1.4616133 2.34654225 8.78621697 5.42968903 17.35553014 9.46422789 25.44990608.53402933-2.55465369 1.19015402-5.79349127 1.5952737-6.43769206 1.97738322-3.14884346 6.35514194-6.99491587 10.3917612-5.13168791 8.47835879 3.91842307-.72431022 15.18046763-7.94235949 16.40551813-.29995855.41492373-.6175388.74858312-.9551635.93991565 1.40236708 2.44335045 2.90121594 4.83586404 4.50518155 7.16671688 2.4050732 3.50598185 4.99024547 7.00065243 7.7001939 10.47487825.08368847-2.71760619 1.15630904-8.77462889 1.46049916-9.42540266 1.85073105-3.952105 7.18524618-8.01860937 11.5131724-5.21101543 4.8673725 3.16541834.45396262 9.14719538-2.32237883 11.85426613-1.1378336 1.10990969-6.76631742 5.17732655-8.75156579 5.1956747 6.54760068 8.19283128 13.77461426 16.24542997 21.12256302 24.00683972-.60878207-3.47461132-1.40394508-13.0433176-1.31510408-14.10524786.45603116-5.48166196 4.0564286-14.2493698 11.14965175-12.11297365 6.88159346 2.06944242 3.8373181 11.17766573 1.48166942 15.5195595-1.42683632 2.62777894-3.39978875 5.29789622-5.7789951 7.1306017-.94590291.72822667-2.5303376 1.16182814-3.33473882 1.94581566-.80578023.78580993-.46313635 1.8107013-1.32465022 2.5508988 3.97107763 4.17626116 7.96982033 8.265472 11.91137707 12.24115228 1.85971963 1.87657438 3.75319625 3.7166269 5.66541335 5.53379462 1.0461925-.43421438 2.53788536.1367638 2.46018956 1.61928736-.01128558.21534169-.06098961.4010442-.12804398.5714439 1.44908066 1.34908074 2.90740444 2.68856127 4.37718055 4.01360674-.03355774-.3859522-.02379077-.93034605.04377867-1.68202079-1.058315 1.50636887-1.01403951-.68777186-.98028836-2.36038634.01196364-.59097358.02259448-1.11686424-.01723236-1.39135849-.48788228-3.37094335-1.42444349-6.6379986-1.39302897-10.07716394.04620092-4.9726586 3.19319357-13.3083952 9.81554574-10.3472762 6.08931043 2.71783096 3.8737721 10.08790066 1.57667912 14.7084484-1.45421253 2.92390168-3.44404392 5.53473524-5.52374806 8.03414513-.92146977 1.1086889-2.0940431 3.19168583-2.8315945 3.73687084 8.1863172 7.34389897 16.65157338 14.37539974 24.9931293 21.54792817.11236802-.48691288.20521342-.96983714.28516832-1.42138009-.16149817.1823495-.38103997.26753393-.66271977.25087702-.07510733-.37333895-.18376335-.86923765-.31432459-1.46496085-1.59365786-7.27287726-6.4476028-29.42396974 6.6952084-25.13078746 9.6292922 3.15449124 2.83244367 22.4425147-4.34935387 29.18945068 4.35825326 3.76716123 8.67517817 7.58236572 12.89115068 11.51155309 3.0506412 2.84299787 6.01115314 5.78355478 8.85903697 8.82180566-1.47366739-3.9342632-2.86221894-9.02731147-1.95082966-13.08077973 1.32694906-5.89865872 7.54425607-11.4682319 13.6144566-8.11170131 7.56728795 4.20242934 1.74557343 9.94168147-3.71374483 15.32364736-2.78753601 2.74807549-5.4805902 5.4030067-6.24851515 7.71263102 9.05284819 9.96697174 16.7817887 21.03972438 21.94612072 33.65300492 5.61672252 13.71674669 10.83065473 32.14766384 7.94707438 47.49373227.53245206-6.74743297-1.74443992-15.21945451-3.3437519-21.170412-.21783774-.81033232-.42303218-1.57385726-.60685214-2.27991037-2.40281194-9.22861096-5.81647243-18.20759851-10.31491763-26.61192603-7.20555954-13.4603763-16.72331324-24.8867849-27.7116053-35.26093638-4.0368067 1.40809116-8.63450956 4.7510879-10.92764248 5.74144058-4.20444902 1.81613642-12.2768429 4.4189554-14.95545533-1.30106244-2.63354854-5.6247554 4.08881643-8.77037839 8.25480594-10.0310953 4.02609644-1.21655571 7.65570587-1.06963863 11.41139572-.07239785-6.88606616-6.11250987-13.97111436-11.99567843-21.01772772-17.91949372-1.51421516 1.24307334-3.18671945 3.03993122-4.9625282 4.94783724-5.6360264 6.05512829-12.31296633 13.22860718-18.27612513 7.36777693-8.9991359-8.8448555 8.21234773-17.83463077 15.5451563-17.13266884.90014205.08546546 1.7710302.27546967 2.62023195.53407404-7.47784682-6.35572868-14.84010878-12.84224506-21.80270429-19.78494064-1.2497981.22814668-3.23888065 2.06898224-5.62833845 4.28039335-5.37031936 4.97010471-12.76318756 11.81202027-18.3317703 6.42482118-4.01988318-3.88874857-2.6434517-9.94555677 1.24221958-13.40874676 3.90087518-3.4780702 9.55651854-3.47232139 14.36336144-2.30071842 2.07792348.50375816 3.99499737 1.46554613 5.7821695 2.6377123.07606749.00398653.1489929.00845014.22195186.01227376-6.85148004-6.90423475-13.744786-13.96318377-20.38422792-21.26308304-.11569395.0372395-.23462445.07559286-.3535869.11455574-.40156868.49247581-1.07365859.672575-1.68941104.56372277-.3390722.11632488-.68584586.23615775-1.03934444.35835798-5.25913166 1.81758118-12.01852685 4.15369924-17.26002301 3.1460659-3.85790179-.74143634-7.35807975-3.88168396-4.09273689-7.74776464 2.65488286-3.14411057 9.85761147-2.69252474 13.37020526-1.94785472 2.43423672.51677826 5.17500093 2.42571337 7.80518123 3.76008038.20205705-.40813634.55463741-.67025533.9563665-.7961009-6.55627614-7.33572642-12.81224975-14.9250046-18.48644143-22.84415-1.71734633.26641263-3.62210027 1.02179513-5.58664967 1.80090564-4.7273986 1.87475466-9.80095744 3.88679324-13.44219639-.44652352-5.3756073-6.3987495 4.73415443-10.13336939 9.53992356-9.52555303 1.62284467.20496503 3.222885.66546495 4.76769037 1.27375882-4.12891304-6.51985626-7.28217464-13.48890023-9.49743189-20.80804479-.05524567.02787808-.09934176.05759341-.16202192.0850513.05788019-.03149882.10409416-.06547316.1582563-.09716683-.22107316-.73226968-.4332338-1.46783108-.6352339-2.20600762-.37536566-.20926297-.7261863-.36324102-.89411829-.42665172 2.18349772 1.50745468-7.02837533 2.24507268-8.75360334 2.38315036-3.81390562.30484162-8.92318339.41876327-11.72135152-2.70978288-2.34981463-2.62795465-2.21259543-6.51043234.66400156-8.70942357zm4.73544635-31.21058827c3.02207022 1.50122379 5.8870278 3.54544516 7.87671276 6.36615047.67463716.95617386 2.64536312 7.28392808 3.25731628 7.3159992-6.11435451.13679076-16.9409529.05152916-19.86922818-6.84885262-2.73370027-6.44386363 3.81947384-9.27084782 8.73519914-6.83329705zM854.7368652 543.68397764c.74943553-1.67926546 1.15068215-3.71549978 1.31264538-5.93944123-.31951065 2.04051792-.7506919 4.02751067-1.31264538 5.93944123z"/>
      <g opacity=".2">
        <path fill="rgb(193,222,226)" fill-rule="evenodd" d="M236.29702294 62.32972293c-2.53067346-1.91549082-6.4593545-.69189092-9.00876127.44081354-.98226705.43685615-3.49275109 1.83351793-5.35498222 3.40501898.24650463-1.08872632.46648977-2.18695725.65860797-3.2941638.78986002-4.55252865 1.33464368-9.19115728 1.5978162-13.8027806.06858064-1.20285428-.01921943-2.54668135-.10817283-3.9081419-.0301465-.46123164-.06041447-.9244891-.08477663-1.3849734.10201783-.10884378.17084916-.25906772.1998799-.46258718.0280069.22098216.02435996.32749346.04624026.33302783.0136113.00344274.03709493-.0321521.08418914-.10354324.01827458-.02769725.04011698-.06078806.0663015-.09907616 1.88501358-2.79194104 3.46846461-5.93757226 3.68760701-9.39481555.18549907-2.93210355-2.2433111-8.4784497-5.69196102-4.63633895-1.54289562 1.7159054-1.14853195 13.76107082 1.16700278 14.49809574-.62069264 3.99168275-1.40056602 7.97672603-2.37710914 11.91124773-.14603443-.02548075-.29495799-.0276613-.44226208-.00768707.01447515-.97806538.01651218-2.04535428-.02371246-2.41228986-.34552894-3.16119455-3.00758836-9.5782023-7.25131233-8.32992469-3.26102197.95937522-1.2646189 4.90059893-.15581061 6.62551473 1.78475119 2.77710227 3.80466103 3.97900472 6.36263274 5.42234228.05090505.59696988.4392811.94384132.89801197 1.05643541-1.71657004 6.3541503-3.97087903 12.55174658-6.9196486 18.406243-.3889495-1.84707399-.86680605-4.18880718-1.16236482-4.65447628-1.44262165-2.2761902-4.6375554-5.05564522-7.58556285-3.7068677-6.19182007 2.836533.52322094 10.97668119 5.79300256 11.85983008.21884748.29993158.45059636.54107056.69703008.67931024-1.02484817 1.76728585-2.12007348 3.4978604-3.29204596 5.18388285-1.75737724 2.53604715-3.64617181 5.06399982-5.62613406 7.57720672-.06006455-1.96507612-.84101015-6.34449016-1.06286551-6.81493867-1.34980349-2.85708512-5.24327247-5.7955731-8.40427091-3.76381406-3.55504459 2.2907128-.33485693 6.61446534 1.69127233 8.5709216.83038146.80215344 4.93840694 3.74119675 6.38791915 3.75374648-4.78369135 5.92661797-10.0633753 11.75211776-15.43127144 17.3670714.44575178-2.51268854 1.02986768-9.43210566.9654392-10.19994288-.33097009-3.96360473-2.95652625-10.30218473-8.13632996-8.7547277-5.02531529 1.49896485-2.80592145 8.08397391-1.08757125 11.22269386 1.04081618 1.89960827 2.48034564 3.82961491 4.21681578 5.15395639.69039815.52623403 1.84706536.83920504 2.43413327 1.40579912.5880236.56791918.3374715 1.30914445.96622721 1.8440486-2.90098263 3.02130755-5.82214758 5.9796813-8.7015012 8.85595081-1.35854337 1.35762925-2.74174105 2.6888637-4.1385792 4.00356221-.76370525-.31359467-1.8530885.09983608-1.79690975 1.17179028.00816073.15571587.04441333.29000418.0933157.4131782-1.05855382.97603434-2.1238564 1.94516449-3.19745397 2.90383491.02462706-.2790914.01768792-.67273085-.03133237-1.21624405.7721255 1.0888594.74059267-.49769366.71655444-1.70712323-.00849148-.42734157-.01605915-.80760886.01311241-1.00610867.35749835-2.4377155 1.0425512-4.80044537 1.02086073-7.2872764-.0318712-3.59569752-2.32653241-9.62207725-7.16286626-7.478452-4.44706837 1.967509-2.83215353 7.29596348-1.15665982 10.63620768 1.06071615 2.11371923 2.51260733 4.0008754 4.03013164 5.8073987.67239316.8013571 1.52777823 2.30714575 2.06607031 2.7010834-5.97985423 5.31339214-12.16325779 10.40096747-18.25640955 15.59048069-.08190667-.35204602-.14949777-.70120572-.20769627-1.02770887.1178398.1318308.27807774.19333784.48377817.18118236.05497532-.27000137.13450552-.62862853.23003938-1.05945075 1.1662803-5.25946949 4.71850686-21.27873396-4.87911132-18.16944991-7.03190362 2.28454353-2.0764068 16.2291178 3.16478923 21.10515864-3.18350699 2.72562992-6.336896 5.48598606-9.4165818 8.32873364-2.22845926 2.05687117-4.39113948 4.18429473-6.4715984 6.3822952 1.07742867-2.84539827 2.09316-6.52868167 1.429225-9.45939146-.96665497-4.26482428-5.50409932-8.2898574-9.93745297-5.86050393-5.52674386 3.0415543-1.27820323 7.18943505 2.7058425 11.07909125 2.03429888 1.98609862 3.99964134 3.9048673 4.55945584 5.57466513-6.61352589 7.21042286-12.26080871 15.21997392-16.03618166 24.34249366-4.10602907 9.92059703-7.91975979 23.2498488-5.8200161 34.34545517-.38627472-4.87907919 1.27945925-11.00640784 2.449279-15.30953648.1593078-.58599914.3094181-1.13816061.44389166-1.64873628 1.75779063-6.67406402 4.25355057-13.16801294 7.54115075-19.24681047 5.2660399-9.73581483 12.21956594-18.00174861 20.24640136-25.50730704 2.9468965 1.01668979 6.30261947 3.4322964 7.97657934 4.14756347 3.06916213 1.31169006 8.96217317 3.19078534 10.92002842-.94632714 1.92493286-4.06820212-2.98215383-6.34031668-6.02342196-7.25037405-2.93918025-.87820144-5.58932806-.77063647-8.33187015-.04814029 5.03004602-4.42249623 10.20525907-8.67920597 15.35246779-12.96529784 1.10512218.89828845 2.32557978 2.19695794 3.62147816 3.57589562 4.11278832 4.3763221 8.9853115 9.5610518 13.3414344 5.3208654 6.573892-6.39899376-5.989546-12.89310465-11.34377356-12.38281648-.65725513.06214744-1.29322242.1998682-1.91334394.38716634 5.46223448-4.59857004 10.8400748-9.29168397 15.92630465-14.31448569.91244804.16450773 2.36408414 1.49488393 4.10793878 3.09307899 3.91926254 3.59188787 9.31451085 8.53648302 13.382341 4.63897224 2.93652189-2.81345578 1.9337438-7.19260455-.90205503-9.69537107-2.8468606-2.51353963-6.9762921-2.50728262-10.48638452-1.65832202-1.51736815.36503895-2.91742296 1.06119923-4.22277894 1.9094569-.05552683.00291003-.10877449.00615902-.1620461.00895087 5.00508689-4.9949573 10.04079766-10.10180861 14.89119191-15.3827936.08448464.02688052.17128843.05457155.25814586.08270289.29298723.35595788.78366187.48592787 1.23325657.40699186.24759467.08400455.50080907.1705719.75897053.2588205 3.83917105 1.31231582 8.7734698 2.99896716 12.60084885 2.2684358 2.81705086-.53755885 5.37385916-2.80954113 2.99113418-5.60387534-1.93726304-2.27251443-7.1964375-1.94332195-9.76139396-1.40354228-1.77752432.37459347-3.77936934 1.7559438-5.70026398 2.72179777-.14738777-.29504357-.40472467-.48447192-.69799723-.57531155 4.78970667-5.30686652 9.36026393-10.79697278 13.50614657-16.52537655 1.25380246.19201417 2.6442587.73752935 4.07836434 1.30015458 3.45096836 1.35389567 7.15460156 2.8069054 9.81483481-.32785423 3.92734018-4.62888472-3.45282335-7.3256324-6.96191213-6.88435702-1.18498326.14879955-2.35343636.48239678-3.48159114.92281126 3.0171148-4.71599487 5.3220278-9.75645825 6.94217852-15.0497223.04032409.02013398.0724973.04159665.11826091.06143792-.04227914-.02274368-.07597503-.04731236-.11551135-.07019979.1616835-.52958865.31685544-1.06155583.46462547-1.5953965.2741568-.15145768.53033141-.26293325.65300514-.30884514-1.59482977 1.0908442 5.13084367 1.62079376 6.3904331 1.72001645 2.78459654.21902176 6.515036.29950012 8.55922211-1.96378435 1.71668242-1.901135 1.6179463-4.70848497-.481598-6.2975049zm-4.08091802-22.8839717c-2.15861428 1.07231706-4.20505618 2.53247584-5.62624703 4.54725758-.4818989.68298267-1.88952062 5.20281431-2.32664961 5.22572328 4.36742157.09769435 12.10067817.03680122 14.19229902-4.89204268 1.95262838-4.60274806-2.72817816-6.62203453-6.23940238-4.88093818zM109.10398666 225.97110112c-.71947298-1.1079834-1.08492568-2.46035462-1.20797343-3.94218216.28369387 1.35665602.6798195 2.67562262 1.20797343 3.94218216z"/>
      </g>
      <g opacity=".7" transform="translate(753 320)">
        <path fill="rgb(105,161,172)" fill-rule="evenodd" d="M27.82188094 115.76992677c13.65245966-.70830545 30.53664973 7.26069963 31.99323706 22.10080076 1.05803921 10.78263863.73037877 21.53427351 2.36778883 32.30080633 1.30936465 8.60466236 4.07849476 16.86479083 7.85524298 24.70280216 3.6316101 7.53708936 11.16493174 13.95298709 13.12426073 22.0048989 1.2487583 5.13050603.54974714 12.34766029-1.17239949 17.36611994-2.09438028 6.1016684-.98123956 5.6194237 3.19188944 10.7392125 8.17742716 10.03329558 15.54079812 20.32210324 20.74784093 32.30523802 7.5004388 17.25997012 12.41782013 37.43508852 9.6340887 56.32833482-.35420744 2.39929836-.77404052 11.00907069-4.07778175 11.61087649-3.68982093.67283088-1.96448858-4.25127847-1.76749752-5.84190434 1.25540443-10.14917885 2.37092094-19.02061702.85655491-29.32835067-5.84348811-39.77059238-34.37436908-65.97378475-52.95187306-99.72796473-1.02126395-1.7406824-3.1772348-5.88559816-4.67627728-8.62012318-2.36663944-4.31721-4.74588342-12.53209797-7.94969065-15.733281-6.03389602-6.03079066-.48661862 6.09326295.68911809 8.40779682 1.48654804 2.92774533 3.12191319 6.0393601 4.64523453 8.60478797 6.97004848 11.89162082 14.74995135 24.87236364 21.94855495 37.13053193-31.13329175 7.09358269-53.0593652-30.33520424-61.41414669-54.94237176-6.88366377-20.27358391-15.11971266-67.67349007 16.95585529-69.40821096"/>
        <path fill="rgb(137,197,204)" fill-rule="evenodd" d="M210.80537014 78.12119964c-22.8227354 1.8108064-37.47443031 16.8705534-44.2948439 37.93433166-3.67595905 11.35142425-4.0972941 23.01264709-6.14005422 34.67807914-3.07297056 17.55076334-9.6848191 30.8510564-22.60660146 43.35496507-4.00226243 3.87248231-6.95160774 7.84851144-9.0481911 12.10234908-4.16205018 4.24710289-7.78502697 9.05319018-10.44675435 14.92926117-3.40011494 7.50419725-4.36220534 16.50771864-.43647283 23.9891861 1.05544008 2.01116528 3.68857386 6.04864901 6.4175803 7.88302705-10.2171646 21.75998324-15.83496519 45.59174452-15.20170114 69.39319942.3826496 14.36775123 1.08403368 28.74139538 1.90231511 43.0914679.22033889 3.8531199 1.47509315 10.21577671 3.35974751 3.7537823 1.72486662-5.91058659-.4381548-15.18939096-.63830997-21.36431656-.97386424-30.08076916-1.80644247-57.43143828 10.5762665-85.53555777 1.29848565-2.9456121 2.6751832-5.86765255 4.10906792-8.76612138.08409882-.04882695.16231071-.10775603.2413636-.16500142.05466422.0420922.10428252.08755177.15894675.12880213.0916677-.16331774.21697493-.3577837.36330686-.57497944.41124319-.42428937.77034511-.96054399 1.11178629-1.55909506 1.09833047-1.52205392 2.3413109-3.31013053 2.3480388-4.28919508 0-.0075766-.00420493-.01936242-.00420493-.02693901 7.66560665-12.51316895 16.44552255-24.33686767 25.41381978-35.9290593-.06727905.0841844 9.7277095-13.25230796 8.21308991-5.87691284-.72997768 3.5542653-7.93472284 10.3226909-10.84454171 14.0874172-6.43692302 8.37550577-13.99572418 18.987791-20.2770644 29.24986914-.84519305.48574398-2.03939617 2.87068798-2.90309096 4.64697878-.47684026.89993122-.92172297 1.80743903-1.35903679 2.59793053 22.2567504 7.35350718 39.57017269-7.45873768 51.37596382-24.68707477.0142968-.02020425.02691162-.04125035.04036743-.0614546 3.59270122-4.76062773 7.2728652-9.48758168 11.87054721-13.25062428 7.67065258-6.27931426 15.88542447-7.38718094 24.92941063-10.4775902 24.6636584-8.42685826 35.14993917-40.3908324 38.4802521-64.1081029 3.75753489-26.75716912-14.62226032-67.7869611-46.71100276-65.14862206"/>
        <path fill="rgb(137,197,204)" fill-rule="evenodd" d="M165.722705 3.19050609c-23.4238802 24.37886171-34.74039916 58.19276095-43.7011187 89.98119455-10.00798588 35.5044647-16.61840482 71.55671417-16.87218691 108.47053281-.16626686 24.25251737-.82607552 48.65647163.58950602 72.88083465.50217892 8.60327419 1.35982443 17.22158035 2.72342328 25.73236872.11231057.69935673 3.16318263 19.70245029 6.08230832 15.27431763 1.66019778-2.51819765-3.12721306-19.7129257-3.4890707-22.57681753-2.03491323-16.1305576-2.50776666-32.3801375-2.40852335-48.62734409.16316343-26.750457-.62557048-53.36397352 2.08573602-80.01607792.40418663-3.97931322.72407777-8.15884165 1.66927527-12.0516917 1.00348214-4.1386542-.27464595-2.33205341 2.99435612-3.97045866 3.17633656-1.59286897 7.10144008-1.36538273 10.3971114-3.36356421 13.07258471-7.92693683 19.75985724-28.28845794 24.96449911-41.64837206 5.95309314-15.27779086 9.57107323-31.56931006 12.46090943-47.64699453 2.12173574-11.81268899 3.63890245-23.5535281 4.49745573-35.51831458.27044717-3.77088564.2865552-7.71420711 1.02764438-11.42201586.1995557-1.0001658 1.2013348-2.7694576 1.16501969-3.65519116-.07697703-1.87456795-1.20849034-2.9770394-1.30111883-4.55220204-.98053041.88243002-1.9432213 1.78634474-2.88522629 2.70979598"/>
        <path fill="rgb(137,197,204)" fill-rule="evenodd" d="M38 328c0 40.31678674 32.68321326 73 73 73s73-32.68321326 73-73"/>
        <path fill="rgb(105,161,172)" fill-rule="evenodd" d="M161.02757263 264.08480835c18.06703186-1.33197022 38.24357605 13.24368286 46.9584961 28.41183472 7.02546691 12.22949218 5.8419342 28.28845214 1.50257873 41.28112793-2.90582275 8.69842529-9.24777222 21.1003418-19.82385254 21.2211914-13.23187256.15127564-13.86993408-16.20263672-14.12585449-25.76309204-.34005737-12.7104187-1.946167-23.78289795-11.9616394-32.44665527-2.33424378-2.01824951-4.8856659-3.7939148-7.2434845-5.78427124-3.69203186-3.11529541-7.77210999-6.30493164-8.24772644-11.45874024-.6565857-7.11035156 3.35700989-8.3899231 9.48513794-7.0689392.19767761.0425415.73477173.24612426 1.46517944.52297973 3.12945557 1.18618774 9.80766296 3.71749878 8.54438782.69152832-.4756012-1.14013672-2.21302796-2.04360962-4.40585327-2.72058105-5.67442322-.61697388-12.44145203-1.33282471-14.38764954-.90518189-20.99558258 4.60614014-29.17007446 33.6890564-31.34101868 52.1668396-.23429107 1.99447632-.42375183 3.99545288-.588974 5.99951172H113c.26764679-4.83950806.62114716-9.67056274 1.43019104-14.45620728 3.09436798-18.30285644 12.76974487-45.18493652 33.99009705-48.15570068.78283691-.11071777 3.66256713-.12930298 7.1508789.07522583 1.65325928-.92376709 3.50515747-1.48242187 5.45640564-1.61087036z"/>
      </g>
      <g opacity=".5" transform="translate(22 191)">
        <path fill="rgb(105,161,172)" fill-rule="evenodd" d="M178.22298029 111.44451792c4.20232897-5.99200907 12.00064893-21.20974502 17.91534829-23.35086974 3.80961321-1.37908227 2.69886648 12.88646718 2.7459129 15.60659452.18321252 10.52374406-.84131132 20.98075942-2.1065157 31.41614717-2.27939096 18.82017918-9.73280002 35.58097929-19.955703 51.59888806-5.26048906 8.24218886-11.43062549 16.58431786-19.97655313 21.72704871-3.93369868 2.36833162-8.66692618 2.76486886-12.55170065 4.80537912-4.52438689 2.3754206-2.0604147.45514252-4.09940183 5.16978152-2.83156515 6.54564588-3.73726113 14.99022681-5.04738183 21.9746637-6.01543195 32.06236095-20.57868 201.55236185-18.05397123 234.1659114.22423455 2.89072174-3.80650551 3.58199265-4.00772233.053026-1.06950235-18.7115706 8.18514539-148.28890909 12.85427206-190.66442478 4.66912668-42.37551569 9.39406967-79.81216416 14.1317613-94.4727659 5.74752584-17.78642568 16.12788668-39.17597595 24.76881221-55.76258782 4.01364486-7.7057654 8.38859693-15.1460716 13.38284294-22.26679196z"/>
        <path fill="rgb(193,222,226)" fill-rule="evenodd" d="M209.41413178 319.27776533c10.93503564-8.028068 22.7713903 7.12329045 12.87630969 15.1525927-5.47023521 4.4381111-11.18904662 2.8593539-14.40858169-.8391592-2.08999169 2.54759072-4.04615332 5.21134383-5.9257704 7.46128967-5.72671315 6.85601195-11.1393228 13.87566183-16.31220881 21.05898827-10.74587132 14.92318518-19.954889 30.68921166-29.5835724 46.1669439-9.5022513 15.27567951-18.92852197 30.6295999-27.5412348 46.2923016C121.22288305 467.8408287 111.4979883 483.45204408 109 498c3.79011066-30.8536968 18.17186319-60.50956195 35.29802198-87.70945961 16.98680236-26.97645175 36.48113172-56.43773196 62.78300401-77.72695763-2.67688684-3.93654058-2.7511976-9.5556525 2.3331058-13.28581743z"/>
        <path fill="rgb(105,161,172)" fill-rule="evenodd" d="M1.9131966 244.03076813c6.11924403 1.19672368 16.1180198 15.0394067 21.16210162 20.31357667 5.99455225 6.2676114 11.43309886 12.94799282 16.55956903 19.9473708 11.03624058 15.06587104 20.90621803 31.08401947 29.29905626 47.78814357 13.68252382 27.23106421 24.6440046 55.18469519 32.5992202 84.83779895 4.86967594 18.15173657 8.02258955 36.96530547 9.89117588 55.64749362.35289045 3.52334891 4.04688054 30.6877007-1.27593303 31.41985482-4.7873096.65925914-3.30868836-20.6264496-3.53964146-23.52183017-2.61067335-32.6653102-10.43151077-64.44838263-21.31022397-95.23707338-2.36953968-6.70702467-4.57092583-14.92193173-8.36037886-20.95760639-2.72893708-4.34740057-.01957003-2.83132188-4.81531809-4.4766031-4.11791396-1.4135812-8.80969088-1.06816392-13.02652798-2.79850486-9.16066188-3.75672707-16.49572413-11.04965337-22.92540828-18.38547951-12.49513-14.25653473-22.39688494-29.67987447-27.55825144-47.94751926-2.8631693-10.1288118-5.49427575-20.316541-6.95437827-30.7585573-.3777031-2.6989545-3.6864205-16.64186514.2549384-15.87106446z"/>
        <path fill="rgb(137,197,204)" fill-rule="evenodd" d="M26.06136295 13.71603187c23.049925 39.9743796 41.99140912 83.88518754 54.22206197 128.36019511 7.41031582 26.94692543 12.59257213 54.59843036 17.74155636 82.0501912 7.97227345 42.50562858 15.5131296 85.00797783 17.65814616 128.26863331 2.15802428 43.51136233 6.42537162 93.6966069-7.82229311 135.60494851 7.11677995-42.54835328.34112234-87.83776255-.85857158-130.65018038-.57330493-20.43795472-2.23463618-40.67609384-4.4139921-60.99461964-2.11484792-19.71006233-5.56991108-39.32626906-8.78735342-58.88141027-1.56727575-9.52370725-3.21326845-19.03308494-4.88911752-28.53726125-.50029843-2.83558253-.71163512-11.2497457-2.5103612-13.18685721-1.81037544-1.94986617-11.04715008-2.74476023-13.9470695-4.1754555-5.8394416-2.88159548-11.33222453-6.97469269-16.19348015-11.29957423-9.31909065-8.29068848-17.42623042-19.12348033-23.82503383-29.80214991-14.80517138-24.70876141-20.72427165-54.86244747-20.42509639-83.47833698.05748267-5.5559127 8.99263934-65.38420331 5.4041367-66.20808836.2160583-.2530369.42043292-.51430509.61314103-.78606627 2.716804 4.54878452 5.38277584 9.12839556 8.03332658 13.71603187z"/>
        <path fill="rgb(137,197,204)" fill-rule="evenodd" d="M274.84616197 157.88728753c.35565201-.51298304 2.67038445-4.0806268 1.50475771-3.85262145 2.37325804-.46422713-3.2642665 3.93473146 2.64908032 1.23555056-2.80769815 2.65169072-1.18728528 6.09627861-1.14981002 9.66516357.0611401 5.79428382-.90832948 11.54105319-1.99963315 17.211014-1.72443014 8.96247744-4.29336633 17.67662491-8.0221301 26.01280562-8.12695704 18.16643383-21.92694649 35.654946-38.31009867 47.01246823-8.08790888 5.6076647-16.01441961 7.51686746-25.23868455 10.0984246-5.8264364 1.63093865-6.28848192 4.64486685-9.38116839 10.29877012-6.43874085 11.7758711-12.7628145 23.50938368-18.44121246 35.68257393-6.78038381 14.53607052-13.36250113 29.0881627-19.57134814 43.88012187C135.96942203 404.9574858 118.94533736 456.57789182 110.00480829 510c-.21890172-31.48148507 7.06382586-63.90472205 16.2502823-93.9118137 6.6917809-21.86248598 15.4032228-42.93726114 24.69482647-63.7986887 2.25154356-5.05392605 5.66355358-11.55498848 6.61971104-17.13474165.66950173-3.90945186-1.37736278-7.66919774-2.31453073-11.78750278-3.65359855-16.03744158-3.39209843-34.0045453-.18369564-50.12773785 3.53751018-17.77887966 13.76782605-26.03066098 31.07372667-28.54892444 6.32911422-.92115513 14.37358148-.58354568 20.17706747-3.28216217 6.32281106-2.93870525 8.93106596-12.59819177 12.52644775-18.79882305 9.65707333-16.65620497 21.13107427-32.63052286 34.3063966-46.66475731 3.64812161-3.88625811 7.571337-7.47159477 11.73342995-10.79476195 2.62461327-2.09673382 8.1690341-4.67990677 9.9576918-7.26279887z"/>
        <path fill="rgb(193,222,226)" fill-rule="evenodd" d="M75.84495416 481.7294837C75.39969792 478.71028046 77.7395946 476 80.79145328 476h61.41709344c3.05185869 0 5.39175536 2.71028045 4.94649912 5.7294837l-4.7469837 32.18845113C140.96096 523.73047673 132.5407391 531 122.62206567 531h-22.24413134c-9.91867344 0-18.33889433-7.26952327-19.78599647-17.08206517l-4.7469837-32.18845112z"/>
      </g>
      <g transform="translate(32 635)">
        <path fill="rgb(242,242,242)" fill-rule="evenodd" d="M15.41772152 48.4556962C15.41772152 69.74312738 17.09760472 87 39.64556962 87s24.2278481-17.25687262 24.2278481-38.5443038"/>
        <path fill="rgb(242,242,242)" fill-rule="evenodd" d="M46.35341703 35.1741665c-.82649828 1.42903848-1.56345435 2.88665773-2.21440275 4.36615913-.02297465-3.04697798.14550612-6.1162847.6055882-9.2275694.78643992-5.32942039 1.98760172-10.63115315 3.116305-15.92440099.81118186-3.8039218.75993072-10.63651203 3.83853374-13.6678599.8441711-.65512483 1.04740838.63011665 1.04740838 1.18788823.01060368.11789568-.00235638-2.27663693-.82178554-1.85953632-4.87062567 2.5155543-6.44880736 10.42528228-8.00813805 14.38550517-2.27507939 5.78046065-4.21084088 11.68953476-5.00788448 17.70355389-.20147 1.51924653-.31104141 3.03804649-.33637244 4.554167-.16553529-.40548967-.321056-.81410536-.49307132-1.2182553-2.81115454-6.59322629-6.60491716-13.0265789-11.33651675-18.95976803-1.164638-1.45985212-15.80891518-15.86456-16.95529127-13.65982157.11310596.32019394.34992158.58590578.71103594.79713553.02120737.02411503.02179646.01071779.0094255-.02500817.86007662 1.38929334 3.30540405 3.53508394 4.06710204 4.7524461 1.9169105 3.06350123 3.40672814 6.31456377 4.92069863 9.50355245 3.19877811 6.73925616 6.16604245 13.54639164 9.04258637 20.3678175.6697994 1.58891217 1.36787528 3.16889284 2.08008942 4.74396118C23.27685442 32.4045113 13.48258465 22.79065493 0 17.28707048c4.60494447 2.34272996 7.62404905 6.75042052 10.73387403 10.1251842 3.75075879 4.0705268 7.7012203 8.03164283 11.45904822 12.09770388 4.43234005 4.79665697 9.64758547 9.84786142 13.91085567 15.15584623 4.12954596 8.66979782 8.1424514 17.34897371 10.61958988 26.46266661-1.01500823-3.14879697-.07952764-7.50021914-.25331024-10.80487063-.1378479-2.63032395-.44535474-5.23921232-.86655665-7.84318837.52075872 1.174491.96964802 2.34987514 1.1728853 3.44308958-.18556447-1.833635-.39940544-3.65565906-.62915193-5.46830506.58968267-1.69698319 1.16876165-3.28053645 1.55991979-4.58498064 2.00468543-6.69147268 4.3916926-13.26772913 7.64231094-19.67741329 3.0079118-5.92916997 6.45823286-11.78286884 10.21782806-17.4579379 1.75373157-2.64595406 3.53161598-5.28208348 5.29830761-7.92267864 1.15639069-1.72868999 2.25740658-4.4965589 3.86739932-6.1529038-10.4069271 9.51471682-21.77702218 19.09820612-28.37958297 30.51488385"/>
      </g>
      <g transform="translate(766)">
        <path fill="rgb(242,242,242)" fill-rule="evenodd" d="M214.63338237 123.82728223c-2.98310017-9.9512187-9.9877572-17.73986357-17.25889371-24.87623728-14.15492064-13.89285254-21.7679436-22.48271641-26.8129181-42.80539648-2.96664481-11.95224074-5.98637691-24.61799863-15.39658682-33.28949646-6.85171875-6.31476873-18.64439423-11.6203018-27.80753125-7.0984189-14.09688475 8.41398868-17.88239664 25.68087895-16.46096116 41.1423709 1.76206517 19.16341677 10.71357727 30.97957059 27.91040051 38.0379185 9.68967898 3.97528807 16.13081878 9.22058922 21.39065825 18.36055075 4.20739155 7.30855022 6.6605384 16.46041011 11.94768847 23.08586332 7.9044196 9.90414276 17.79609098 14.3069353 29.9884433 12.66176974-11.41982479-21.0114533-24.76276882-42.22029053-40.85616831-59.91100046-1.50633276-1.77856673-10.39182592-8.58597595-8.59978658-11.61710066 1.97430345-3.33743956 11.09585573 9.19944399 11.031286 9.12368944 4.67686757 5.36852232 9.00458612 11.07340006 13.25441102 16.83302794-.01079465.00561032-.0234674.00867649-.0352131.01459582 4.37549313 5.91016192 8.7161721 11.90734093 12.9740581 17.97978828 1.72201755 2.5685826 3.39793134 5.17002008 5.00251284 7.83669333 2.35440526 3.91296267 6.09118753 15.01879138 9.944294 17.42487792.82431903.51445034 1.58648066.80200321 2.29901056.92062506 2.62877398 4.30433309 5.18676474 8.64323113 7.61945305 13.03335705 6.3531222 11.46596107 11.80611554 23.57242586 14.30889281 36.51760762.7302866 3.7782498.21346829 17.91169608 2.79254622 20.63921108 4.71548328 4.98901497 3.3340422-4.61831253 3.05215202-7.51813096-2.34222463-24.01351862-10.96312494-44.47181395-23.48021746-64.65989397 3.84529986-5.02206074 4.40056082-17.80425125 3.19246934-21.83627158"/>
        <path fill="rgb(242,242,242)" fill-rule="evenodd" d="M53.1305463 135.42995407c4.97114798-5.85722018 16.92137853-6.85106594 24.23007767-6.4589682 9.04377758.4850723 18.33292712 2.6866025 26.9370309 5.3486575 14.1736245 4.38467926 27.94605741 12.38632231 40.42887717 20.13107954 1.50426684.9332173 20.03754796 12.07857091 18.39702253 14.0345507-1.62515891 1.93789788-19.81892716-11.30117849-23.87363823-13.58298435-8.65251477-4.87056284-16.58787008-10.63060444-26.1255567-13.84699184-9.87557188-3.33096502-20.3196368-4.6498449-30.70433657-4.55890858-1.33280735.0118695-5.6801735-.9173588-5.77398942 1.05440287-.09182893 1.92843882 7.10146245.9222912 8.3701536.93382809 5.2389448.04813099 10.51033265.54124756 15.67507035 1.4491531 9.67656796 1.7008747 18.77374763 5.12748568 27.06151201 10.38322647-2.3123708 5.37681171-7.85603302 7.85602982-13.67137227 6.51052356-5.0260076-1.1635536-9.92560942-4.03204943-14.84712872-4.86157427-3.389504-.57106813-6.78341724-.2313198-10.07023563.7236268-8.66987644 2.5196667-13.67017153 7.68142884-23.20254597 4.0909133-7.47281371-2.8147012-19.97032002-12.92717647-12.83094072-21.35053469"/>
        <path fill="rgb(242,242,242)" fill-rule="evenodd" d="M31.75252914 41.05125809c-11.0380516-.80504227-23.36489868 8.00443268-28.6892662 17.17198562-4.29220581 7.3914566-3.56912613 17.09740448-.91799545 24.95012665 1.77530288 5.2572937 5.64990997 12.75295258 12.11135864 12.82600403 8.0840149.09143066 8.4738388-9.79279327 8.63018036-15.57110596.2077713-7.68211364 1.18902206-14.37426758 7.3079605-19.61060714 1.4261055-1.21982193 2.98489762-2.29303742 4.4254036-3.4960022 2.25564385-1.88285446 4.74837303-3.81066132 5.03894234-6.92559433.40114212-4.2974701-2.05095863-5.07083893-5.79493904-4.27243805-.12077522.02571106-.4489193.14875793-.89517212.31608963-1.91194534.71693039-5.99195862 2.24682617-5.22016525.41794586.2905693-.6890831 1.35205078-1.23514175 2.6917572-1.64430618 3.46678162-.37289047 7.60110092-.80554962 8.79012299-.54707718 12.82724094 2.78392792 17.82144212 20.36149979 19.14777755 31.52939987.15016341 1.26457977.27018476 2.53348541.37458444 3.80432129h2.35176444c-.16475746-2.98459625-.37935215-5.96434784-.88367343-8.91551208-1.89050364-11.06216431-7.80167127-27.30957795-20.766227-29.10508347-.47828294-.06691742-2.2376442-.07815552-4.36883164.04545975-1.01005173-.5583191-2.14147377-.89596558-3.33358193-.97360611z"/>
      </g>
    </g>
    <g>
      <g>
        <g transform="translate(229.12666667 380)">
          <path fill="rgb(178,139,103)" fill-rule="evenodd" d="M101.39334098 48.51215334c5.79481125 10.80112171 5.1062355 38.1990633-2.38304138 40.12952519-2.98671341.76986694-9.34929657-1.1159935-15.82492256-5.01914597l4.06462287 28.75568771h-24l8.2622738-38.50987243c-4.60790897-5.40875244-7.72663904-12.03725052-7.20549751-19.464674 1.50155401-21.40047407 31.29175353-16.69264245 37.08656478-5.8915205z"/>
          <path fill="rgb(25,24,71)" fill-rule="evenodd" d="M92.85865944 31.89130826c-3.68390608-1.12412178-9.03164332-1.50534747-11.28127741-1.2474515 1.27969437-3.0682008 1.78749595-6.48654568 1.37351512-9.81490787-.40237148-3.23412052-1.84648865-5.98788035-3.1820799-8.8734879-.61563954-1.33007625-1.31331849-2.65290313-2.35351627-3.67026012-1.0596327-1.03647718-2.40098562-1.72063548-3.8075229-2.0470379-1.43938743-.33410485-2.94447519-.30628544-4.3860985-.00308097-.6377403.13411315-1.20995228.42589987-1.83539527.58810429-.64049216.16619156-.95119277-.23496987-1.41608275-.63812488-1.12034529-.97141417-2.76276736-1.4509593-4.18014003-1.6225879-1.590223-.19247049-3.24029864.04757393-4.75690976.57070584-1.47619337.5092675-2.89434 1.3362382-3.96162626 2.54099113-.4752094.53627137-.90656126 1.14666744-1.18690557 1.82058603-.11497557.27656306-.1339805.44039859-.40976707.54170839-.25506172.09378859-.55337903.0965071-.8166103.18576483-2.54528553.86267379-4.72147973 2.83069367-5.90640741 5.35754855-.6913153 1.47415726-1.01878498 4.06962717-.929092 6.9787225.08969298 2.90909533 2.71461006 10.49975517 5.16968665 13.2684668 2.19141535 2.47130667 5.41253706 4.1021407 8.52117707 4.81602139-2.06336851 2.3601196-3.43688364 5.3093403-4.45257279 8.3087628-1.10323225 3.25813402-1.78603403 6.6434943-2.03817192 10.09283019-.2394966 3.2772542-.26168335 6.74299176.50608167 9.95028965.7182318 2.99933188 2.25419184 5.45985512 4.81831032 7.02082346 1.17452226.7150587 2.43822153 1.25223625 3.7092304 1.74319912 1.25260589.48380413 2.50899557.95419695 3.82111013 1.22568546 2.483283.51361712 5.34460086.42544679 7.2574778-1.55254096.6894234-.71306512 1.44764297-1.60908596 1.95062882-2.48018713.18084788-.31326294.28988977-.51814797.07017207-.8243428-.26323127-.36672697-.68899344-.64773026-1.02712651-.93462367-1.92827007-1.63572736-3.12188327-3.81941568-3.42278043-6.41450516-.30528291-2.633058.40151153-6.03164836 2.95969635-7.18076246 3.15782925-1.41851843 6.63547461.20968772 9.44218552 1.72743176 1.19283924-4.2129653 3.64206815-8.00628328 7.48201123-9.9387813 4.24824822-2.13792674 9.12305738-2.38812026 13.48877503-4.22248007 1.13763033-.47800464 2.29632948-1.0206192 3.1339226-1.99457066.3500004-.40705153.76062742-.93507676.9003696-1.47343232.18359972-.70717502-.27217477-1.30008201-.62423906-1.8513958-1.86678352-2.92321362-8.9461222-8.82895904-12.63002827-9.95308082z"/>
        </g>
        <g transform="translate(162 581.33489461)">
          <ellipse cx="116" cy="58.5" fill="rgb(197,207,214)" rx="77" ry="73.5" transform="translate(10 42)"/>
          <path fill="rgb(178,139,103)" fill-rule="evenodd" d="M245.71102905 96.58005905c3.71936798 13.0282135 12.98545075 37.72148132 25.7982254 66.07978821l12.175354-3.5524292c-10.65173339-65.2548027-19.51651-108.45667267-24.59436034-121.60559082-3.35498047-8.6875267-28.73686981-7.66959953-25.81691742 9.81094742 1.2244873 7.33051681 6.06922912 26.95979309 12.43769836 49.2672844zm-50.04380798-46.2188301C175.81195068 54.4748764 134.64405823 69.0168228 122.8883438 73.6635437c-7.38809967 2.92030335-2.62532806 12.8244629 3.67744446 11.9579773 4.4970169-.61823273 57.04576874-6.12722779 94.11277008-11.46196747 14.88400269-2.142128 6.87742615-30.02152634-8.57647705-27.07128525-5.1992035.99255753-10.72924805 2.09086227-16.43486023 3.27296066z"/>
          <path fill="rgb(31,40,207)" fill-rule="evenodd" d="M158 0h7.56217957s92.27653503 23.51358414 94.30647277 30.13784218c.01431275.04673004.0270691.09354019.03829956.14042854.03155518.04138184.06259156.0830326.0930481.12493897 12.1914978 16.766819 19.49295044 98.62375259 21.8894043 104.75291824l-23.36166382 3.48524475c-3.5333252-13.102211-10.13923645-24.63288116-16.7887268-36.23964691-10.168396-17.74903107-20.43872071-35.67599487-19.97952271-59.67271423-.20507813-1.16423417-.25689698-2.26831437-.17236328-3.31275177L158 7.04671764V0z"/>
          <path fill="rgb(43,68,255)" fill-rule="evenodd" d="M163.2831726 58.64047623c-5.81806945-1.16465378-11.17588805-2.2040863-15.76046752-3.00821686C117.9092865 50.43808365 109.27376556 34.5862503 114.37954712 0h54.56221008c8.91282654 2.560318 55.23228455 21.98483849 79.26486206 32.31633759 15.90602112 6.83791732 10.891922 31.48816299 1.88433838 37.90315246-.04891968.39354706-.21102905.66086578-.49969482.78050995-34.1508484 14.15433502-63.27334595 13.09823608-81.97427368 12.42007446-7.83259583-.28404236-13.83700562-.50178528-17.61698914.49208832l-5.92288208-18.68374634 19.20605469-6.58794021z"/>
          <path fill="rgb(228,228,228)" fill-rule="evenodd" d="M129.0524207 72.6964136c.0236722-1.17065138-.95888987-2.11116523-2.12738774-2.03634734 0 0-4.34700895.27833512-6.77818378 1.46409712-2.43117484 1.185762-6.70029901 4.27067495-6.70029901 4.27067495l24.72490684 50.69362288s7.49642035-1.21016238 5.94084974-5.72158434c-1.55557062-4.51142196-2.50925897-7.53211638-2.50925897-7.53211638l-.98788277-28.6850562c-.01939093-.56305262-.4998584-.99895215-1.06213534-.96361214l-4.41259264.27733856s-3.7611301-3.04433227-4.96293858-5.5084073c-1.20180849-2.46407505-1.12507774-6.25860982-1.12507774-6.25860982z"/>
          <path fill="rgb(228,228,228)" fill-rule="evenodd" d="M268.4182776 156.35225237c-1.0417975-.5344558-2.31785241-.06362848-2.76284187 1.01940863 0 0-1.65543573 4.02908051-1.65543573 6.73400982C264 166.81060014 264.90124261 172 264.90124261 172h56.4018122s2.19852474-7.26823912-2.53823196-7.84777684c-4.7367567-.57953773-7.8698085-1.04655234-7.8698085-1.04655234l-26.2150217-11.68678736c-.51456887-.22939737-1.11697575.0113584-1.33169813.5322217l-1.68508143 4.08758988s-4.38499781 2.04593567-7.12653195 2.04593567c-2.74153414 0-6.11840355-1.73237834-6.11840355-1.73237834z"/>
        </g>
        <g transform="translate(181.46666667 473.17798595)">
          <path fill="rgb(178,139,103)" fill-rule="evenodd" d="M190.7811966 92.21148682l31.8982849 23.42359924c8.65145875 2.33448029 15.87948609 5.2389679 21.68405152 8.7134552 1.37115479 1.2494049 3.0282898 3.77966309-2.65814209 3.34236145-5.6864624-.43728638-11.68743896-.64151001-12.4720459 1.29804993-.34359741.8493042.12310791 1.77145385.62316895 2.759552.64193725 1.2684021 1.33883667 2.64544678.44729614 4.1164856q-.09753418.16091918-.23971558.25242614-2.1703186 1.396698-14.74667358-13.37636566l-31.58764648-13.0986023 7.05142211-17.4309616zM36.00457763 173.68966675c7.35775375-5.04512024 17.96072387-13.875 19.3933525-16.78141785C58.32839585 150.96310425 68.30793 93.01988983 68.30793 93.01988983l20.89739228.08217621s-19.35476685 62.48051453-20.89739228 66.3035431c-2.00391388 4.96620177 1.40000153 12.18167113 3.70814514 17.07437133.35709382.756958.68795777 1.45829773.9685135 2.08712768-3.20269013 1.43310547-4.7411499-.29911804-6.36309052-2.12533569-1.8319397-2.06266785-3.77037811-4.24523926-8.3335762-2.12228393-1.76298905.82020568-3.43126297 1.78991699-5.0611496 2.73731994-5.62997055 3.27252197-10.8019638 6.27885437-17.83773422 1.9375763-1.11543274-.68826294-2.33776093-3.27966309.61553955-5.30471802z"/>
          <path fill="rgb(232,118,19)" fill-rule="evenodd" d="M127.6949955 5.33202845l8.6471231-1.48316787c32.08334349 27.71541036 45.26112071 80.96004627 84.58737897 109.16590779l-9.46549766 11.73285383c-68.22388677-8.44714784-85.13376802-73.39281898-83.76900442-119.41559375z"/>
          <path fill="rgb(221,227,233)" fill-rule="evenodd" d="M90 114h76.5114507c3.4961831 0 2.83739407-5.0483629 2.33199964-7.59579448-5.8328626-29.40043923-28.60214608-61.09269004-28.60214608-102.94347522L118.1718001 0C99.91748497 29.35840682 93.6048263 65.50454992 90 114z"/>
          <path fill="rgb(255,155,33)" fill-rule="evenodd" d="M92.93153381 28.51287651C88.91584778 28.22588348 85.29122161 26.5454731 83 22.41119003 74.9335556 7.85607624 77.84672546-.15759277 86.4671936-2.79173088c4.74028778-1.4484787 9.19850922-.45980573 14.53523255.72368741 4.36697387.96843767 9.32219696 2.06732535 15.50154114 2.06804323L116.51002502 0c.59882355 0 1.14380646.04012132 1.6385193.11686563l7.32304381.41787434s29.7335968 100.77067804 16.4006958 134.46526575H81.39686585c-3.43861389 8.25863648-6.81056213 15.46487427-9.98786926 21H55C53.23459625 98.91862297 74.8454361 54.99643517 92.93153381 28.51287652z"/>
          <path fill="rgb(0,0,0)" fill-opacity=".1" fill-rule="evenodd" d="M81.39686584 135c4.51171875-10.83595276 9.13822175-23.48366547 13.59046174-36.545578C96.6446762 112.83889008 99.40472412 127.28636932 104 135H81.39686584z"/>
        </g>
      </g>
      <g transform="matrix(-1 0 0 1 701 308)">
        <path fill="rgb(178,139,103)" fill-rule="evenodd" d="M92.14334106 40.13393307c5.79481125 10.8011217 5.1062355 38.1990633-2.38304138 40.12952518-2.9867134.76986695-9.34929657-1.1159935-15.82492256-5.01914596L78 104H54l8.26227379-38.50987244c-4.60790944-5.40875053-7.72663903-12.03725052-7.2054975-19.464674 1.50155377-21.40047406 31.29175353-16.69264244 37.08656477-5.8915205z"/>
        <path fill="rgb(25,24,71)" fill-rule="evenodd" d="M78.46395003 27.68525676c-3.16313052-.51871894-11.67999893-.8753526-13.2506616-.87512237-1.00372758 0-2.09146254.22931383-2.68594103-.69231595-.48682968-.75470958-.30848614-2.03113115-.4537776-2.90694422-.16870335-1.01740745-.40833098-2.02169152-.65071294-3.02344301-.68973276-2.8505367-1.7327097-5.56247207-3.1920511-8.1086384-2.7382735-4.77691102-6.7497409-8.51868652-11.81405495-10.69601675-5.59245884-2.40411148-11.92078565-2.95460281-17.93626528-2.46696557-6.43735279.521712-12.26461915 2.64677893-18.3425305 4.64659815-5.791919 1.9056532-11.85835393 2.65575808-17.91606678 1.72514913-6.103389-.93751598-10.7150731-4.24552917-15.863165-7.38524074-5.270201-3.21430764-11.29302555-5.31658133-17.52334374-4.83331855-5.81578995.45126015-11.17596607 2.85260882-15.98504457 6.06046988-4.49944472 3.00134047-8.21206618 6.61234262-10.30811929 11.69454495-2.25488675 5.46692463-2.252821 11.4677637 1.4552099 16.29924037 5.3746364 7.00328126 15.35246436 8.81430797 23.65358755 8.63426438 4.80150406-.10383588 9.5171645-.98033966 14.0503499-2.57471544 6.04554785-2.12644835 11.26984318-5.73054345 16.92565185-8.65475528 2.65426612-1.37219923 5.39781877-2.49919844 8.27357978-3.31100624 2.79060597-.78809362 5.53920825-1.1495622 8.0658566.53621678 2.67285791 1.78339854 5.0679865 3.53525491 8.1257635 4.65166332 2.93337263 1.07105215 6.04049823 1.67012302 9.16575657 1.64594837 6.0806657-.0469679 12.07479919-1.94156982 17.98056426-3.21062388 4.81596435-1.03467506 9.96887635-2.0658966 14.8787178-1.07128239 2.04877027.4151133 5.04136122 1.27204711 5.7813607 3.40125827-12.45443912 2.2572217-17.34590686 17.65992787-13.83481132 28.9669877 1.89498626 6.10283307 13.28600897 13.2369804 17.71498848 10.0286289 2.80588595-2.03258299 1.10242478-4.7009963 0-6.46252253-2.11120199-3.37339986-2.83352778-7.70664849 1.07304515-10.05527339 3.36970606-2.0256055 6.91271984 2.78467002 6.97974212 2.77937462.926147-.07298442 8.92886177-4.5988712 14.44258658-11.20328786 5.43931001.32243658 6.26453207-3.26410448 4.96573136-6.19722101-1.2988007-2.93311654-9.40549662-6.62446993-13.7759464-7.34165124z"/>
      </g>
      <g transform="matrix(-1 0 0 1 817 501)">
        <path fill="rgb(153,118,89)" fill-rule="evenodd" d="M143.78666667 0l42.27197432 138.46653541 20.4775988 117.75686926h16.0558513L200.95419421 0h-57.16752754z"/>
        <path fill="rgb(178,139,103)" fill-rule="evenodd" d="M128.66404702 0c2.8712149 76.02557026-.5078171 115.24093616-1.15042933 122.14818976-.64261225 6.9072536-9.4420772 51.69425583-30.27374223 136.39397875l17.10870928-5.8873522c32.92250417-77.68218088 44.1413198-118.05498215 47.9172818-128.25558053C166.04182857 114.1986374 176.07059618 72.73222548 192.35216938 0h-63.68812235z"/>
        <path fill="rgb(228,228,228)" fill-rule="evenodd" d="M100.20984767 251.26644118c-1.04241786-.53581647-2.3200756-.0644756-2.76476927 1.01995135 0 0-1.96174507 4.78389813-1.96174507 7.82835831C95.48333333 263.15921104 96.4957292 269 96.4957292 269h63.3580357s2.46967613-8.1805704-2.85128057-8.83285344c-5.3209567-.65228304-8.84041822-1.17791873-8.84041822-1.17791873l-29.56307063-13.2050544c-.51490846-.22999621-1.11804502.01103754-1.33262104.53256042l-1.94136507 4.71845011s-4.9258142 2.30274768-8.00547089 2.30274768c-3.07965668 0-7.1096908-2.07149046-7.1096908-2.07149046z"/>
        <path fill="rgb(228,228,228)" fill-rule="evenodd" d="M205.803181 251.26644118c-1.04241786-.53581647-2.3200756-.0644756-2.76476927 1.01995135 0 0-1.96174506 4.78389813-1.96174506 7.82835831 0 3.0444602 1.01239587 8.88524916 1.01239587 8.88524916h63.3580357s2.46967613-8.1805704-2.85128057-8.83285344c-5.3209567-.65228304-8.84041823-1.17791873-8.84041823-1.17791873l-29.56307063-13.2050544c-.51490846-.22999621-1.11804501.01103754-1.33262104.53256042l-1.94136506 4.71845011s-4.92581421 2.30274768-8.0054709 2.30274768c-3.07965668 0-7.1096908-2.07149046-7.1096908-2.07149046z"/>
        <path fill="rgb(105,161,172)" fill-rule="evenodd" d="M138.17 0l17.97333333 70.5472423h54.89765708L202.85552616 0H138.17z"/>
        <path fill="rgb(137,197,204)" fill-rule="evenodd" d="M128.06 0c-8.870785 26.64205165-3.37 70.5472423-3.37 70.5472423h56.02099041L196.11552616 0H128.06z"/>
      </g>
      <g transform="scale(-1 1) rotate(8.000003 -3060.42958082 -5223.40486433)">
        <path fill="rgb(178,139,103)" fill-rule="evenodd" d="M24.00457764 166.68966675c7.35775566-5.04510498 17.96072387-13.875 19.3933487-16.78140259 2.9304695-5.94514465 17.57186507-82.45858002 17.57186507-82.45858002l21.89739609.08218384S57.85055542 148.58258057 56.30793 152.40560913c-2.00392152 4.96621704 1.40001296 12.18170166 3.7081642 17.07441712.35708619.75692749.68794251 1.4582672.96849442 2.0870819-3.2026863 1.43310547-4.74114608-.29910278-6.3630867-2.12532043-1.8319397-2.06266785-3.77038192-4.24525452-8.33358383-2.12228394-1.76299667.8202057-3.43127441 1.789917-5.06117248 2.7373352-5.62995148 3.27250672-10.80194474 6.27882386-17.83771134 1.93754579-1.11542892-.68826294-2.33775902-3.27966309.61554337-5.30471802zm175.48853302-74.22933197l28.32791137 27.63502502c8.2423706 3.51581574 14.9958191 7.3979721 20.26037598 11.646492 1.18389893 1.42807007 2.47277832 4.16433716-3.09747314 2.93989564-5.57025147-1.22444153-11.48440552-2.26184082-12.53131104-.45036316-.45843506.79321289-.12463379 1.77134704.23303223 2.81944275.45916748 1.34539795.95761108 2.80603027-.12997437 4.13867187-1.28988647 1.58052063-5.62786865-3.4467926-13.01400757-15.08192444l-29.45727539-17.36727905 9.40872193-16.27996063z"/>
        <path fill="rgb(219,39,33)" fill-rule="evenodd" d="M127.69499548 5.3320284l8.6471231-1.48316787c13.62183596 48.15186274 83.61047614 80.9740953 87.90698806 98.97447858 1.57564448 6.6012163-3.17524042 9.93818196-.72115892 11.94885032l-11.23957435 8.22781172c-1.90332231-2.22066773-5.96500095 1.84145275-14.44708199-1.00000045-8.48208104-2.8414532-70.14629768-59.65210311-70.1462959-116.6679723z"/>
        <path fill="rgb(255,65,51)" fill-rule="evenodd" d="M139.24986267-2.83754945l-26.93423462-1.88342452c-2.20228576-.15399885-4.11528778 1.50894785-4.26927948 3.71123028l-.40960693 5.85764313c-16.27355957 12.5232811-56.60718918 49.94540023-67.11755371 119.60899734-1.10406113 7.31782532.89256286 11.23742676 2.48788833 14.36923218 1.09130478 2.14234924 1.99482727 3.9160614 1.58955384 6.15673828l14.70962906 4.06039429c0-4.06039429 11.16492462-5.73576355 14.04486846-16.27578736 1.6174698-5.9196167 3.9859848-13.31323242 6.81570435-21.53816223C80.43403625 122.12235546 82.49986267 132.14039898 87 140.437747c11.22733307 20.700943 76.10876465-2.00117493 82.8872757-23.1194992 3.61709594-11.26909638-1.51538086-20.73000336-8.30347443-33.24272156-8.61653137-15.88317108-19.9006958-36.6836815-19.34310913-72.34166336l.72039795-10.30212975c.1539917-2.2022829-1.50894165-4.11528396-3.71122742-4.26928258z"/>
      </g>
    </g>
  </g>
</svg>
