<svg xmlns="http://www.w3.org/2000/svg" width="1011" height="820.335" viewBox="0 0 1011 820.335">
  <g>
    <g>
      <g transform="translate(709.34864865 107.72941176)">
        <ellipse cx="53" cy="53" fill="rgb(242,242,242)" rx="53" ry="53"/>
        <ellipse cx="53" cy="11" fill="rgb(0,0,0)" fill-opacity=".1" rx="3" ry="3"/>
        <ellipse cx="11" cy="53" fill="rgb(0,0,0)" fill-opacity=".1" rx="3" ry="3"/>
        <ellipse cx="95" cy="53" fill="rgb(0,0,0)" fill-opacity=".1" rx="3" ry="3"/>
        <ellipse cx="53" cy="95" fill="rgb(0,0,0)" fill-opacity=".1" rx="3" ry="3"/>
        <path fill="rgb(175,185,197)" fill-rule="evenodd" d="M53 17l2 35h-4l2-35z"/>
        <path fill="rgb(175,185,197)" fill-rule="evenodd" d="M70.69847766 70.69849196l-18.3847632-15.55636468 2.8284295-2.82842474 15.5563337 18.38478942z"/>
        <ellipse cx="53" cy="53" fill="rgb(197,207,214)" rx="4" ry="4"/>
      </g>
      <g opacity=".346" transform="translate(39.62027027 284.1882353)">
        <path fill="rgb(242,242,242)" fill-rule="evenodd" d="M720.97993852 200.77765761C710.46583613 111.03858178 146.33948155-62.16728868 41.61139032 22.83179048c-104.72809124 84.99907917-4.04502078 244.5201158 215.42637541 285.3693935 219.4713962 40.8492777 474.45627517-17.68445053 463.94217279-107.42352637z"/>
        <path fill="rgb(221,227,233)" fill-rule="evenodd" d="M244.22696852 259.08612212c9.70942517-76.23685574 530.66142158-223.38201893 627.37434372-151.1719758 96.71292214 72.21004311 72.23299474 224.09550215-130.44156757 258.79856168-202.67456231 34.70305952-506.64220133-31.38973014-496.93277615-107.62658588z"/>
      </g>
      <g transform="translate(52.2831081)">
        <g transform="translate(0 187.26170468)">
          <ellipse cx="49.5" cy="34.5" fill="rgb(242,242,242)" rx="42.5" ry="22.5"/>
          <path fill="rgb(221,227,233)" fill-rule="evenodd" d="M99 50C99 22.38576251 76.83809512 0 49.5 0S0 22.38576251 0 50"/>
        </g>
        <rect width="5" height="194.588" x="47" y="0" fill="rgb(221,227,233)" rx="0" ry="0"/>
      </g>
      <g opacity=".7" transform="translate(170.66486486)">
        <g transform="translate(0 139.1882353)">
          <ellipse cx="37" cy="27.842" fill="rgb(242,242,242)" rx="31.768" ry="18.158"/>
          <path fill="rgb(221,227,233)" fill-rule="evenodd" d="M74 40.3508772C74 18.06570307 57.43453574 0 37 0S0 18.06570308 0 40.3508772"/>
        </g>
        <rect width="5" height="162.188" x="35" y="0" fill="rgb(221,227,233)" rx="0" ry="0"/>
      </g>
      <g transform="translate(715.8972973 242.14117647)">
        <path fill="none" stroke="rgb(203,203,203)" stroke-width="8" d="M60 40.40976854L98.0513276 14.9722233c2.69107359-1.79899915 6.20106136-1.79899915 8.89213495 0L200.24754036 77.34657c4.44140353 2.96910543 7.10786505 7.95906247 7.10786505 13.30150127v383.21075226"/>
        <path fill="rgb(175,185,197)" fill-rule="evenodd" d="M180.3554054 472.85882353h53c1.65574508 0 3 1.34425493 3 3v1c0 1.65574507-1.34425492 3-3 3h-53c-1.65574507 0-3-1.34425493-3-3v-1c0-1.65574507 1.34425493-3 3-3z"/>
        <g transform="rotate(45.000016 23.18808416 59.39517696)">
          <path fill="rgb(197,207,214)" fill-rule="evenodd" d="M33.03031192 1.38390164c18.2131958 0 33 14.7868042 33 33v28h-66v-28c0-18.2131958 14.7868042-33 33-33z"/>
          <ellipse cx="33.209" cy="61.445" fill="rgb(242,242,242)" rx="33" ry="6.5"/>
        </g>
      </g>
      <g transform="translate(46.76216216 483)">
        <g transform="translate(22)">
          <path fill="rgb(221,227,233)" fill-rule="evenodd" d="M25.25795391 1.17309307c2.86457674-.34997163 5.92195016-.22643308 8.58592267.90427304 5.66466501 2.40464223 7.27485507 9.0967775 7.19717505 14.53615213-.08374512 5.8545229-1.3270006 12.24914196 3.12406452 16.9662727 2.04606607 2.16866435 4.59121323 3.82832425 6.60031302 6.03680932 2.14675593 2.36006405 3.83120015 5.06044652 5.07840511 7.96022867 2.2900164 5.32635013 3.41399643 11.59006856 1.31990172 17.17744483-1.84381364 4.91935697-6.48264255 9.35949815-5.48030412 14.95328307 1.04552712 5.8353596 6.92877807 10.29654092 10.6070121 14.64296769 4.16272158 4.9187937 7.99545782 11.20546276 8.62508988 17.65594438.60375436 6.18185474-2.08712644 12.43391192-6.21676486 17.10688872-8.25102804 9.33738058-20.65360288 13.91487334-33.15920498 13.8865114-5.30953813-.01230028-11.32101327-.25210054-15.90300168-3.10535505-1.41612991-.88191963-2.16322943-1.87135404-3.00507898-3.24680827-.75480844-1.23338237-1.75190462-2.03564556-2.90602341-2.90838712-2.53559511-1.91692444-4.36674458-4.50047503-5.53533818-7.39248926-4.53790156-11.23280612-.91095502-25.12916468 5.44108003-35.10398386 1.50515186-2.36323856 2.73744353-4.63738253 2.00623464-7.45422385-.76303865-2.94044099-2.63842195-5.59255872-4.29717723-8.12011767-1.63911384-2.49801645-3.51038057-4.88109024-4.79150165-7.58199378-1.34176467-2.8293888-1.71959485-5.79223446-1.48252006-8.888765.4455658-5.81663043 2.95649491-11.18426463 6.51142403-15.86211999 3.42405457-4.50579793 7.44446618-8.8171488 7.45347472-14.72110158.0098926-6.25738572-4.1734048-11.82371627-2.3912583-18.18554445.73792528-2.63431771 2.2200763-5.33714357 4.60867193-6.91645611 2.2907079-1.51467687 5.31530371-2.0102858 8.00940403-2.33942996z"/>
          <path fill="rgb(197,207,214)" fill-rule="evenodd" d="M23.38615969 11.17643095c.05371807-.8403907 1.0505893-1.3444258 1.83534806-1.12512987 1.03295866.28879612 1.01309298 1.2539705.98582155 2.11386528-.08359892 2.64311201.29896698 5.21178538.93432657 7.77635356 1.3205265 5.33202265 3.76103707 10.24460547 5.6945336 15.36643592 1.93181139 5.11754278 2.83864438 10.40125092 1.7053628 15.81634178-1.0683465 5.10567557-2.7467515 10.07901794-3.840101 15.19113806-.96369888 4.50567727-1.98912064 9.25716669-.52153043 13.75137064 1.41218267 4.32599807 4.5343242 7.84905033 6.7825368 11.75848742 4.65405957 8.0927838 6.71880931 17.07076036 6.9949789 26.30988987.12798673 4.29029693.0127315 8.62004526-.98256837 12.8278928-.57286135 2.42288954-1.34269062 5.69731713-3.41894443 7.37008677-.95741386.77140192-2.59489556 1.03814109-3.40070416-.10421758-.75653694-1.07144163-.09284833-2.73014092.14732611-3.87212962 1.04012967-4.94348406 1.24938029-9.99552861 1.00035834-15.0151198-.24101302-4.86213357-.81547515-9.71614702-2.34572237-14.3596865-1.4202747-4.30927153-3.57793469-8.1798348-6.11737036-11.9495315-2.58766713-3.84158437-5.2777743-7.69136505-6.34698916-12.24324703-1.08635372-4.62309683-.2038003-9.32724638.97629467-13.86205195 1.24797923-4.79654508 2.88263675-9.4554916 4.57258126-14.12207691 1.64690896-4.54723944 2.23065745-8.8497366 1.32149473-13.60895099-1.79600727-9.4026215-6.6033906-18.22803466-5.97703311-28.01972035z"/>
        </g>
        <g transform="translate(32 11)">
          <path fill="rgb(221,227,233)" fill-rule="evenodd" d="M90.89233228 1.58227349c3.54484927 1.07633135 7.0655507 2.8129454 9.59248107 5.53600617 5.37309437 5.79067838 3.72448184 14.5426295.75832473 20.93496533-3.19270243 6.88014582-8.03087103 13.79582023-5.3035036 21.68996618 1.25356157 3.62912855 3.36153665 6.91592831 4.55069267 10.57291921 1.2704943 3.907864 1.81886297 7.97769252 1.7489978 12.05587469-.12934095 7.49039878-2.12178536 15.48275562-7.5312272 21.00113797-4.76279713 4.85856707-12.5505779 7.6963715-14.33159467 14.83316675-1.85804783 7.4449555 2.68441825 15.7814641 4.70127058 22.83516179 2.28257739 7.98263505 3.45510755 17.41128953.78412554 25.3673465-2.55934807 7.62490964-9.02008645 13.61889955-16.33370474 16.99695376-14.61303018 6.75026095-31.5795224 5.71162645-46.2323763-.82760935-6.2210661-2.77668726-13.14518768-6.1875853-17.0112892-11.94557168-1.19483242-1.77968371-1.54812959-3.33847263-1.80852388-5.40306977-.23339738-1.8512985-.97884769-3.31878769-1.87121795-4.95131312C.6439959 146.6921296-.13819652 142.68415012.01976625 138.6560499c.61471955-15.64492833 12.21385753-30.19230661 24.93648089-38.6843178 3.01451334-2.01181403 5.66189643-4.06021045 6.29313504-7.77187191.65923549-3.87439222-.1385969-7.9864724-.74818287-11.83855136-.60216354-3.80692331-1.53737396-7.59868356-1.61240871-11.4593106-.07825134-4.04412522 1.04463818-7.74461971 2.95941165-11.28332613 3.59705409-6.64710596 9.3792545-11.688769 16.02137376-15.37156938 6.39767325-3.54740463 13.39203752-6.55461279 16.52320801-13.53209531 3.31901858-7.39500167 1.35457109-16.15413475 6.807474-22.75068664C73.45817192 3.232793 76.62520045.8074086 80.26155328.18227321c3.48737619-.59961893 7.29689045.38772345 10.630779 1.40000028z"/>
          <path fill="rgb(197,207,214)" fill-rule="evenodd" d="M83.65125407 13.8108813c.50294735-.96706508 1.93257374-1.04147135 2.735348-.37045793 1.05659752.88340696.52788161 2.01598832.04564376 3.0200123-1.48201908 3.08624986-2.37996214 6.3286777-2.98016137 9.69874073-1.24841512 7.00649668-.96755165 14.10329492-1.38913252 21.18215041-.42130572 7.07289467-2.12815268 13.80534651-6.28933182 19.6241016-3.92320118 5.48636901-8.49044274 10.49627452-12.44625533 15.97717056-3.48660118 4.83067877-7.17411366 9.92010616-7.81177858 16.01150884-.61435966 5.8631666 1.1912739 11.67169678 1.77265503 17.47974534 1.20363195 12.02309143-1.08403685 23.73732497-5.59988047 34.82337693-2.0972835 5.1478027-4.49965364 10.2148348-7.867225 14.67625005-1.93878167 2.56901763-4.55385213 6.0432199-7.85770644 6.9359463-1.52351546.41171227-3.5779352-.13065872-3.9218914-1.90582847-.3234835-1.66536252 1.32127707-3.2817938 2.20020415-4.50829455 3.80526311-5.30908537 6.69582809-11.18222036 9.03353433-17.25711723 2.2646065-5.88423228 4.13505536-11.93361904 4.77766577-18.23471051.59613747-5.84759972.10028106-11.56215121-.89481541-17.35735294-1.01384449-5.9056132-2.14318039-11.87462465-1.00948424-17.8255313 1.15095258-6.04422478 4.64661474-11.15247217 8.40150501-15.90422606 3.97134766-5.0261349 8.32277767-9.6866511 12.74285587-14.3272359 4.30725183-4.5218074 7.24316307-9.31101643 8.6725949-15.42356533 2.82430925-12.07625716 1.82509142-25.04731567 7.68565576-36.31468285z"/>
        </g>
        <g transform="translate(0 57)">
          <path fill="rgb(197,207,214)" fill-rule="evenodd" d="M13.30597651 0C19.200266 0 24.38233193 3.1243612 27.95308938 7.55793367c4.17991066 5.19012638 5.0241236 11.52830248 6.72144761 17.71400889.84458369 3.07836677 2.2972083 6.13427958 4.84282358 8.22575818 2.31537538 1.9020685 5.25473424 2.2826995 8.02614032 3.2120041 5.53873384 1.85716057 10.01117151 6.3309329 11.77745627 11.78978258 2.15483775 6.65868841-.1275403 13.3738739.26546177 20.12201603.36074624 6.19729556 6.47118686 10.06372422 11.38742026 13.03452924 4.84764342 2.92951868 9.2147862 5.67180024 10.67482595 11.37873007 1.54827984 6.0527934 2.06770993 12.80890306-.07674663 18.78817782-3.5703867 9.9558003-14.01942184 14.33975675-24.11586738 15.01953256-9.16288026.61675984-20.68414368-.35165813-27.5653874-7.00274117-4.11762355-3.98014715-5.60880686-9.5465586-5.42379928-15.0847215.11493456-3.44378702.79712683-6.85570389 1.67915694-10.18359945.62509574-2.35875327 1.46967943-4.70736603 1.7103005-7.1447082.63955525-6.48448906-5.35372626-7.72996004-10.455338-9.51034252-6.48268031-2.26278066-11.02111267-6.53664022-14.17699341-12.49092588C.28500238 59.88147694-.9481343 53.65810582.81370138 47.55424774c.89982644-3.11675581 2.53189728-5.94450732 4.74531458-8.34961717.97434852-1.058596 2.34763122-1.94154403 3.22706603-3.05373984.82085526-1.03867716.64215055-2.38446668.35926321-3.6009648-1.30802952-5.61928692-5.3833868-10.27232884-6.84083126-15.88147526C.98869854 11.60544273 1.76654602 5.30420703 6.395443 2.0378788 8.39530446.62653818 10.86157781.01557291 13.30597651 0z"/>
          <path fill="rgb(175,185,197)" fill-rule="evenodd" d="M21.33769128 14.64137672c6.24731557 6.6546462 7.94541142 15.68359773 8.44376963 24.43477437.27915416 4.9072357-.01140155 10.08319235 1.43034324 14.8430299 1.2335745 4.07391103 4.1255233 7.18810437 7.10647778 10.13135932 6.00052712 5.9248986 12.69250328 11.94830407 14.44760689 20.52310995 1.0298177 5.03218008.33469075 10.22986619 1.75767815 15.20663615 1.2938924 4.52371079 3.57199629 8.96810905 6.34294151 12.78814759 2.23102651 3.0761668 5.137687 5.43127777 7.57651601 8.29884178.7440433.87533495 1.80990463 2.16389175 1.50279827 3.39957354-.35933282 1.44718183-2.20270652 1.90531122-3.51057501 1.67787624-3.0493638-.5298366-5.61618444-3.44158383-7.60998508-5.5583951-2.9154875-3.09536114-5.39293468-6.42467611-7.40659609-10.15924545-2.23544001-4.14742902-4.03541425-8.54836837-4.8044674-13.20136943-.79810873-4.82719886-.40089333-9.85793031-2.22330289-14.49065054-3.06665002-7.79508053-10.50487622-12.39520657-15.88273142-18.47076274-6.70043537-7.57054281-5.7011444-16.99279751-5.01484445-26.30531846.37698684-5.11764927.75176693-10.89696051-1.8341789-15.56951808-.98715384-1.78362626-3.1880214-3.44665403-3.61245341-5.47401237-.38875619-1.85750641 1.73303609-3.73456934 3.29100317-2.07407667z"/>
        </g>
        <path fill="rgb(137,197,204)" fill-rule="evenodd" d="M28.00037989 181c0 38.05848951 6.21084908 58 38.99971317 58s38.99971316-19.94151049 38.99971316-58H28.0003799z"/>
      </g>
      <g transform="translate(207.3277027 465)">
        <g transform="translate(23)">
          <path fill="rgb(175,185,197)" fill-rule="evenodd" d="M23 144h34c1.10383005 0 2 .89616995 2 2v5c0 1.10383005-.89616995 2-2 2H23c-1.10383005 0-2-.89616995-2-2v-5c0-1.10383005.89616995-2 2-2z"/>
          <path fill="rgb(221,227,233)" fill-rule="evenodd" d="M23.5 115C14.94531727 115 8 121.94532013 8 130.5c0 8.5546875 6.94531727 15.5 15.5 15.5h33c8.5546875 0 15.5-6.9453125 15.5-15.5 0-8.55467987-6.9453125-15.5-15.5-15.5h-33z"/>
          <path fill="rgb(197,207,214)" fill-rule="evenodd" d="M4.62222222 1.67861504S21.81111112 0 39 0c17.18888889 0 34.37777778 1.67861504 34.37777778 1.67861504L78 81.13306035S58.5 83 39 83 0 81.13306035 0 81.13306035l4.62222222-79.4544453z"/>
        </g>
        <path fill="rgb(242,242,242)" fill-rule="evenodd" d="M0 257V153h125v104h-21v-82H21v82H0z"/>
      </g>
      <g transform="translate(753.9831081 440)">
        <g transform="translate(13)">
          <path fill="rgb(193,222,226)" fill-rule="evenodd" d="M3.38092413.208187c8.83300085 20.989038 23.84827645 35.57234694 31.80097092 57.3966963 4.7158717 12.94248028 6.681657 27.01462317 6.80088934 41.42706482.06477775 7.82830703-.0714878 15.66163957-.10813497 23.4899466-.03561485 7.634107-.24311011 15.21939478-.89114567 22.80468256-.6511325 7.62549185-1.38020478 15.16016558-1.7017708 22.83268183-.25033633 5.97820182-.36466518 12.93171134-2.39109897 18.38474748-1.61144326 4.33665522-5.7071519 4.97202314-6.7939212-.2875309-.60390411-2.9237693-.5277709-6.1881963-.4611866-9.19309167.08542404-3.85528327.3096944-7.7048231.42402326-11.55938844.45963813-15.46779851-.13626554-30.93846875.17523543-46.41236966.30427476-15.11852565 2.2476072-30.2205389.09729566-45.2381954-1.77558131-12.40152015-6.28653853-23.0509325-11.47056495-33.26025387-4.98762854-9.82235717-10.41605546-19.40600267-13.786563-30.57878589C4.10715753 6.80560332 3.35898744 3.48051124 3 .0301404c.15691184-.07286987.28388655-.01364066.38092413.1780466z"/>
          <path fill="rgb(137,197,204)" fill-rule="evenodd" d="M.9735884 41.61695567c1.749076 1.26303625 2.72642344 3.11062158 3.90863793 4.93359433 1.47015608 2.26640963 3.19855742 4.31253655 4.6683376 6.58058702 3.064736 4.72848938 5.75732818 9.74740736 8.55103822 14.66746476 5.30398934 9.3388383 9.33103666 19.29217103 11.32557723 30.09627906 2.06746572 11.1966789 2.62492966 22.75352208 3.49213755 34.1171564.9198343 12.04417252 1.84605894 24.17612996 1.96785147 36.2666562.05450591 5.41682157.34733424 11.16714378-.3029777 16.54581583-.40484739 3.34854332-1.91597688 6.20237351-5.32278448 6.17529966-7.23650593-.05742939-10.63391597-8.07252039-12.05332516-14.64613385-2.08926809-9.67931251-2.50614436-19.96081315-2.17534984-29.85958796.39958473-11.93587711 2.47118539-23.6924925 3.3677137-35.5824261.94953063-12.58688021.41311725-24.95142666-3.91427646-36.80280053C12.29991743 68.11979612 9.76257314 62.2743052 7.4842259 56.3250312c-.97020527-2.53304606-1.76486392-5.13500738-3.07526128-7.49371424C2.95121334 46.20761453 1.14161698 43.82593592 0 41c.32440417.20592536.64918424.41144052.9735884.61695567z"/>
          <path fill="rgb(193,222,226)" fill-rule="evenodd" d="M84.33414274 16.5176702C84.55601333 16.34523696 84.77815706 16.17284015 85 16c-.63906027 2.69265753-1.79344111 4.87989383-2.67584634 7.34130657-.79319447 2.21282014-1.19523976 4.71691845-1.72948823 7.13564392-1.25452383 5.68080621-2.70423893 11.23356512-3.88916058 16.9627666-2.34560974 11.3370353-1.90197651 23.55046723-.36362051 36.12843534 1.45286636 11.8814737 3.75059365 23.74456034 4.84546086 35.62345633.90757485 9.85146123 1.29766394 20.0101318.43194764 29.40939102-.5883082 6.38336921-2.51673808 14.004994-7.77115522 13.36075964-2.47367587-.30325622-3.76407038-3.28063032-4.28394839-6.64155443-.83507784-5.3985606-1.0098887-11.07440308-1.33539362-16.44251186-.72644083-11.98178472-.87114689-23.92672055-1.0145794-35.78519452-.13580223-11.18849162-.50969768-22.59865656.23790104-33.50522874.72106936-10.5242152 2.97637126-20.00753055 6.20096092-28.75754522 1.69837618-4.60990406 3.31661321-9.32767417 5.22483824-13.72128429.91511789-2.10744675 2.03311694-3.96968941 2.94861857-6.07547205.73616264-1.69380214 1.32180304-3.43187075 2.50760776-4.51529811z"/>
          <path fill="rgb(193,222,226)" fill-rule="evenodd" d="M3.20880772 76.30182234c.95691387-1.60649718 3.06325745 3.69158691 3.38382499 4.35795273-.1355828-.33146669-.27170484-.66245783-.40903065-.99316103 1.89938561 3.15831268 3.63702278 6.4461154 4.71738084 10.06753787 1.0690674 3.58496086 1.98731812 7.24238567 2.9904271 10.85282722 1.88217955 6.77402027 4.31025566 13.35577688 6.01555263 20.19082087 1.66161919 6.66042372 2.0805833 13.20809066 1.67833548 20.09739771-.41805903 7.16029341-.67382448 14.43044536-.18611004 21.58687759.23292796 3.41794304 1.343535 6.6016919 2.10473062 9.89223751.7621229 3.2937895 1.36237521 6.63149577 2.26335953 9.88444612.2068168-.4237632.23316246.99294603.2327163 1.10048904-.00565453.81266975-.11913045 1.49413399-.38059236 2.26471353-.67186494 1.9815769-1.92878213 3.66503118-3.84142801 4.21159014-3.4564581.98756717-6.6657298-2.15651916-7.78037424-5.4765435-1.5990249-4.76372308-2.48015273-10.02805551-3.24219761-15.03495256-.69863802-4.59127866-.86396119-9.20996396-.656401-13.86446863.40886463-9.17893605 2.06996256-18.23770243 2.51930169-27.4138432.48904906-9.99002497-1.49026224-19.37646671-3.14747896-29.1009173-.7982408-4.68563432-1.5610804-9.32705791-3.11451964-13.79115923-.62893499-1.80767632-1.44893674-3.40295135-2.30871021-5.07223633-.4892113-.9497226-1.4785429-2.64381579-.83878646-3.75960855z"/>
          <path fill="rgb(105,161,172)" fill-rule="evenodd" d="M31.25209274 60.6970481c-.39645486 11.44477115-1.0800711 22.8027264-2.60590422 34.1268981-1.55725232 11.55633547-3.34586156 23.0729949-4.84423459 34.63954401-1.45857608 11.25896156-2.98740966 22.7049112-2.78358635 34.12100561.15011192 8.40896449-1.24422677 22.63420143 8.09500194 26.78447284 9.45871548 4.2029109 11.48765108-13.74558892 12.10874582-19.6698902 1.19022138-11.36620473.8048907-22.85222326.22726138-34.28049546-.59301136-11.72918161-1.58294459-23.39865274-2.80983007-35.08501565-1.36271173-12.98074476-2.43193819-26.02002151-3.29008334-39.0376925-.42457333-6.43891137-.52916835-12.86721628-.41202444-19.30769898C35.04817105 36.91067005 34.81726078 30.7703111 32.65649414 25c-.11321683.08210191-.22568124.16420383-.3389054.24591291"/>
          <path fill="rgb(137,197,204)" fill-rule="evenodd" d="M80.08274655 96.95522508c-1.70106212 2.47807023-3.41580279 4.93202832-5.02223646 7.5569634-2.8743708 4.69638696-5.4735894 9.91940495-6.25552564 16.6346355-1.63634894 14.0535407-.32356133 29.23213185-.006711 43.71585501.06480853 2.959765-.30952164 5.83020548.85704684 8.64694165 1.0576987 2.55424267 3.03520514 4.50074985 4.92018614 4.49033779 4.03529715-.02301614 3.41962241-9.90460888 3.42627225-14.25410985.01216845-7.62327177-.84265544-15.32381199-.7690817-22.93995972.07346015-7.54545532.53232334-15.11173477 1.62630247-22.27797191 1.1075706-7.25336965 2.72956292-14.21848964 4.87013522-20.71835496.29704966-.90201318 2.42880696-7.8720652.4147622-6.6708423"/>
          <path fill="rgb(105,161,172)" fill-rule="evenodd" d="M62.26219502 22c-2.65304374 0-2.636779 13.22599729-2.7165897 14.92481318-.2882263 6.13058086-.2205196 12.2628019-.40283598 18.39461288-.39905348 13.3814043-.88926516 26.88008142-2.89928433 40.1068988-1.08217253 7.12042916-2.33682695 14.20928488-3.68642205 21.27558813-1.3533776 7.08680549-3.17011115 14.16500004-4.06051106 21.34160535-.85484443 6.89900494-.3718195 13.93373474-.25456208 20.8667734.11725742 6.97486324.32794253 13.96366801 1.24179393 20.87743457.22543685 1.70660675.48983342 3.40706282.77276423 5.10341845.2356496 1.41342467.09834494 3.16636649.49702017 4.50967348.63924208 2.15150544 3.37928326 2.85555248 5.22438554 2.51931568 4.99251844-.91152974 8.18154207-7.18029572 9.8870702-11.76049692 2.17796205-5.84846998 3.33351503-12.19227417 4.47393803-18.3556586 1.29210114-6.9826541 2.04935714-14.07191986 2.40453365-21.18086778.72207877-14.447931-.20463311-28.9114437-1.23952443-43.31303963-.57569612-8.00940645-1.24065917-15.98354904-2.258151-23.94334006-1.01333108-7.9257573-2.31337547-15.81625073-3.1598984-23.76538059-.6150341-5.77671213-1.2209902-11.5612151-1.61928718-17.36006966C64.37131562 30.85860938 64.29112668 22 62.26219502 22"/>
          <path fill="rgb(137,197,204)" fill-rule="evenodd" d="M58.94079274 118.13870277c-.4324378-13.88600775-6.0142639-74.87979494-7.2842121-91.67157049C51.33900912 22.26416962 48.2815387 4.76463908 47.88491216 0c-1.0753512 1.346742-.98345816 22.30944543-.97163369 27.12619442.01250016 4.76463908-.57838556 9.45025904-.8824434 14.1892703-.30980114 4.83554272-7.4585386 67.28541728-8.38625282 71.93174126-1.84563103 9.24352795-3.08078151 18.72923882-4.03349605 28.18035212-.92805207 9.21192031-2.3709754 18.93041722-1.12906808 28.19060326.28547652 2.13180759.73717132 4.22944475 1.47265343 6.18783742.79460446 2.11600376 1.33920582 4.0726879 1.97705159 6.28693165 1.0263641 3.56653844 2.88314392 6.69654967 5.7362199 8.168868 5.84939699 3.01895732 8.99031438-3.81512832 10.5825639-9.76505412 2.54293699-9.50194182 4.17505186-19.15893196 4.94026407-29.13797838.84663213-11.04046535 2.09630982-22.1035686 1.75002173-33.22006316"/>
        </g>
        <g transform="translate(0 159)">
          <path fill="rgb(255,255,255)" fill-rule="evenodd" d="M12 0h87c1.10383005 0 2 .89616995 2 2v87c0 1.10383005-.89616995 2-2 2H12c-1.10383005 0-2-.89616995-2-2V2c0-1.10383005.89616995-2 2-2z"/>
          <path fill="rgb(197,207,214)" fill-rule="evenodd" d="M2 10h6c1.10383005 0 2 .89616995 2 2v109c0 1.10383005-.89616995 2-2 2H2c-1.10383005 0-2-.89616995-2-2V12c0-1.10383005.89616995-2 2-2z"/>
          <path fill="rgb(197,207,214)" fill-rule="evenodd" d="M52 10h6c1.10383005 0 2 .89616995 2 2v109c0 1.10383005-.89616995 2-2 2h-6c-1.10383005 0-2-.89616995-2-2V12c0-1.10383005.89616995-2 2-2z"/>
          <path fill="rgb(197,207,214)" fill-rule="evenodd" d="M103 10h6c1.10383005 0 2 .89616995 2 2v109c0 1.10383005-.89616995 2-2 2h-6c-1.10383005 0-2-.89616995-2-2V12c0-1.10383005.89616995-2 2-2z"/>
        </g>
      </g>
    </g>
    <g>
      <g>
        <g transform="translate(229.12666667 380)">
          <path fill="rgb(178,139,103)" fill-rule="evenodd" d="M101.39334098 48.51215334c5.79481125 10.80112171 5.1062355 38.1990633-2.38304138 40.12952519-2.98671341.76986694-9.34929657-1.1159935-15.82492256-5.01914597l4.06462287 28.75568771h-24l8.2622738-38.50987243c-4.60790897-5.40875244-7.72663904-12.03725052-7.20549751-19.464674 1.50155401-21.40047407 31.29175353-16.69264245 37.08656478-5.8915205z"/>
          <path fill="rgb(25,24,71)" fill-rule="evenodd" d="M92.85865944 31.89130826c-3.68390608-1.12412178-9.03164332-1.50534747-11.28127741-1.2474515 1.27969437-3.0682008 1.78749595-6.48654568 1.37351512-9.81490787-.40237148-3.23412052-1.84648865-5.98788035-3.1820799-8.8734879-.61563954-1.33007625-1.31331849-2.65290313-2.35351627-3.67026012-1.0596327-1.03647718-2.40098562-1.72063548-3.8075229-2.0470379-1.43938743-.33410485-2.94447519-.30628544-4.3860985-.00308097-.6377403.13411315-1.20995228.42589987-1.83539527.58810429-.64049216.16619156-.95119277-.23496987-1.41608275-.63812488-1.12034529-.97141417-2.76276736-1.4509593-4.18014003-1.6225879-1.590223-.19247049-3.24029864.04757393-4.75690976.57070584-1.47619337.5092675-2.89434 1.3362382-3.96162626 2.54099113-.4752094.53627137-.90656126 1.14666744-1.18690557 1.82058603-.11497557.27656306-.1339805.44039859-.40976707.54170839-.25506172.09378859-.55337903.0965071-.8166103.18576483-2.54528553.86267379-4.72147973 2.83069367-5.90640741 5.35754855-.6913153 1.47415726-1.01878498 4.06962717-.929092 6.9787225.08969298 2.90909533 2.71461006 10.49975517 5.16968665 13.2684668 2.19141535 2.47130667 5.41253706 4.1021407 8.52117707 4.81602139-2.06336851 2.3601196-3.43688364 5.3093403-4.45257279 8.3087628-1.10323225 3.25813402-1.78603403 6.6434943-2.03817192 10.09283019-.2394966 3.2772542-.26168335 6.74299176.50608167 9.95028965.7182318 2.99933188 2.25419184 5.45985512 4.81831032 7.02082346 1.17452226.7150587 2.43822153 1.25223625 3.7092304 1.74319912 1.25260589.48380413 2.50899557.95419695 3.82111013 1.22568546 2.483283.51361712 5.34460086.42544679 7.2574778-1.55254096.6894234-.71306512 1.44764297-1.60908596 1.95062882-2.48018713.18084788-.31326294.28988977-.51814797.07017207-.8243428-.26323127-.36672697-.68899344-.64773026-1.02712651-.93462367-1.92827007-1.63572736-3.12188327-3.81941568-3.42278043-6.41450516-.30528291-2.633058.40151153-6.03164836 2.95969635-7.18076246 3.15782925-1.41851843 6.63547461.20968772 9.44218552 1.72743176 1.19283924-4.2129653 3.64206815-8.00628328 7.48201123-9.9387813 4.24824822-2.13792674 9.12305738-2.38812026 13.48877503-4.22248007 1.13763033-.47800464 2.29632948-1.0206192 3.1339226-1.99457066.3500004-.40705153.76062742-.93507676.9003696-1.47343232.18359972-.70717502-.27217477-1.30008201-.62423906-1.8513958-1.86678352-2.92321362-8.9461222-8.82895904-12.63002827-9.95308082z"/>
        </g>
        <g transform="translate(162 581.33489461)">
          <ellipse cx="116" cy="58.5" fill="rgb(197,207,214)" rx="77" ry="73.5" transform="translate(10 42)"/>
          <path fill="rgb(178,139,103)" fill-rule="evenodd" d="M245.71102905 96.58005905c3.71936798 13.0282135 12.98545075 37.72148132 25.7982254 66.07978821l12.175354-3.5524292c-10.65173339-65.2548027-19.51651-108.45667267-24.59436034-121.60559082-3.35498047-8.6875267-28.73686981-7.66959953-25.81691742 9.81094742 1.2244873 7.33051681 6.06922912 26.95979309 12.43769836 49.2672844zm-50.04380798-46.2188301C175.81195068 54.4748764 134.64405823 69.0168228 122.8883438 73.6635437c-7.38809967 2.92030335-2.62532806 12.8244629 3.67744446 11.9579773 4.4970169-.61823273 57.04576874-6.12722779 94.11277008-11.46196747 14.88400269-2.142128 6.87742615-30.02152634-8.57647705-27.07128525-5.1992035.99255753-10.72924805 2.09086227-16.43486023 3.27296066z"/>
          <path fill="rgb(31,40,207)" fill-rule="evenodd" d="M158 0h7.56217957s92.27653503 23.51358414 94.30647277 30.13784218c.01431275.04673004.0270691.09354019.03829956.14042854.03155518.04138184.06259156.0830326.0930481.12493897 12.1914978 16.766819 19.49295044 98.62375259 21.8894043 104.75291824l-23.36166382 3.48524475c-3.5333252-13.102211-10.13923645-24.63288116-16.7887268-36.23964691-10.168396-17.74903107-20.43872071-35.67599487-19.97952271-59.67271423-.20507813-1.16423417-.25689698-2.26831437-.17236328-3.31275177L158 7.04671764V0z"/>
          <path fill="rgb(43,68,255)" fill-rule="evenodd" d="M163.2831726 58.64047623c-5.81806945-1.16465378-11.17588805-2.2040863-15.76046752-3.00821686C117.9092865 50.43808365 109.27376556 34.5862503 114.37954712 0h54.56221008c8.91282654 2.560318 55.23228455 21.98483849 79.26486206 32.31633759 15.90602112 6.83791732 10.891922 31.48816299 1.88433838 37.90315246-.04891968.39354706-.21102905.66086578-.49969482.78050995-34.1508484 14.15433502-63.27334595 13.09823608-81.97427368 12.42007446-7.83259583-.28404236-13.83700562-.50178528-17.61698914.49208832l-5.92288208-18.68374634 19.20605469-6.58794021z"/>
          <path fill="rgb(228,228,228)" fill-rule="evenodd" d="M129.0524207 72.6964136c.0236722-1.17065138-.95888987-2.11116523-2.12738774-2.03634734 0 0-4.34700895.27833512-6.77818378 1.46409712-2.43117484 1.185762-6.70029901 4.27067495-6.70029901 4.27067495l24.72490684 50.69362288s7.49642035-1.21016238 5.94084974-5.72158434c-1.55557062-4.51142196-2.50925897-7.53211638-2.50925897-7.53211638l-.98788277-28.6850562c-.01939093-.56305262-.4998584-.99895215-1.06213534-.96361214l-4.41259264.27733856s-3.7611301-3.04433227-4.96293858-5.5084073c-1.20180849-2.46407505-1.12507774-6.25860982-1.12507774-6.25860982z"/>
          <path fill="rgb(228,228,228)" fill-rule="evenodd" d="M268.4182776 156.35225237c-1.0417975-.5344558-2.31785241-.06362848-2.76284187 1.01940863 0 0-1.65543573 4.02908051-1.65543573 6.73400982C264 166.81060014 264.90124261 172 264.90124261 172h56.4018122s2.19852474-7.26823912-2.53823196-7.84777684c-4.7367567-.57953773-7.8698085-1.04655234-7.8698085-1.04655234l-26.2150217-11.68678736c-.51456887-.22939737-1.11697575.0113584-1.33169813.5322217l-1.68508143 4.08758988s-4.38499781 2.04593567-7.12653195 2.04593567c-2.74153414 0-6.11840355-1.73237834-6.11840355-1.73237834z"/>
        </g>
        <g transform="translate(181.46666667 473.17798595)">
          <path fill="rgb(178,139,103)" fill-rule="evenodd" d="M190.7811966 92.21148682l31.8982849 23.42359924c8.65145875 2.33448029 15.87948609 5.2389679 21.68405152 8.7134552 1.37115479 1.2494049 3.0282898 3.77966309-2.65814209 3.34236145-5.6864624-.43728638-11.68743896-.64151001-12.4720459 1.29804993-.34359741.8493042.12310791 1.77145385.62316895 2.759552.64193725 1.2684021 1.33883667 2.64544678.44729614 4.1164856q-.09753418.16091918-.23971558.25242614-2.1703186 1.396698-14.74667358-13.37636566l-31.58764648-13.0986023 7.05142211-17.4309616zM36.00457763 173.68966675c7.35775375-5.04512024 17.96072387-13.875 19.3933525-16.78141785C58.32839585 150.96310425 68.30793 93.01988983 68.30793 93.01988983l20.89739228.08217621s-19.35476685 62.48051453-20.89739228 66.3035431c-2.00391388 4.96620177 1.40000153 12.18167113 3.70814514 17.07437133.35709382.756958.68795777 1.45829773.9685135 2.08712768-3.20269013 1.43310547-4.7411499-.29911804-6.36309052-2.12533569-1.8319397-2.06266785-3.77037811-4.24523926-8.3335762-2.12228393-1.76298905.82020568-3.43126297 1.78991699-5.0611496 2.73731994-5.62997055 3.27252197-10.8019638 6.27885437-17.83773422 1.9375763-1.11543274-.68826294-2.33776093-3.27966309.61553955-5.30471802z"/>
          <path fill="rgb(232,118,19)" fill-rule="evenodd" d="M127.6949955 5.33202845l8.6471231-1.48316787c32.08334349 27.71541036 45.26112071 80.96004627 84.58737897 109.16590779l-9.46549766 11.73285383c-68.22388677-8.44714784-85.13376802-73.39281898-83.76900442-119.41559375z"/>
          <path fill="rgb(221,227,233)" fill-rule="evenodd" d="M90 114h76.5114507c3.4961831 0 2.83739407-5.0483629 2.33199964-7.59579448-5.8328626-29.40043923-28.60214608-61.09269004-28.60214608-102.94347522L118.1718001 0C99.91748497 29.35840682 93.6048263 65.50454992 90 114z"/>
          <path fill="rgb(255,155,33)" fill-rule="evenodd" d="M92.93153381 28.51287651C88.91584778 28.22588348 85.29122161 26.5454731 83 22.41119003 74.9335556 7.85607624 77.84672546-.15759277 86.4671936-2.79173088c4.74028778-1.4484787 9.19850922-.45980573 14.53523255.72368741 4.36697387.96843767 9.32219696 2.06732535 15.50154114 2.06804323L116.51002502 0c.59882355 0 1.14380646.04012132 1.6385193.11686563l7.32304381.41787434s29.7335968 100.77067804 16.4006958 134.46526575H81.39686585c-3.43861389 8.25863648-6.81056213 15.46487427-9.98786926 21H55C53.23459625 98.91862297 74.8454361 54.99643517 92.93153381 28.51287652z"/>
          <path fill="rgb(0,0,0)" fill-opacity=".1" fill-rule="evenodd" d="M81.39686584 135c4.51171875-10.83595276 9.13822175-23.48366547 13.59046174-36.545578C96.6446762 112.83889008 99.40472412 127.28636932 104 135H81.39686584z"/>
        </g>
      </g>
      <g transform="matrix(-1 0 0 1 701 308)">
        <path fill="rgb(178,139,103)" fill-rule="evenodd" d="M92.14334106 40.13393307c5.79481125 10.8011217 5.1062355 38.1990633-2.38304138 40.12952518-2.9867134.76986695-9.34929657-1.1159935-15.82492256-5.01914596L78 104H54l8.26227379-38.50987244c-4.60790944-5.40875053-7.72663903-12.03725052-7.2054975-19.464674 1.50155377-21.40047406 31.29175353-16.69264244 37.08656477-5.8915205z"/>
        <path fill="rgb(25,24,71)" fill-rule="evenodd" d="M78.46395003 27.68525676c-3.16313052-.51871894-11.67999893-.8753526-13.2506616-.87512237-1.00372758 0-2.09146254.22931383-2.68594103-.69231595-.48682968-.75470958-.30848614-2.03113115-.4537776-2.90694422-.16870335-1.01740745-.40833098-2.02169152-.65071294-3.02344301-.68973276-2.8505367-1.7327097-5.56247207-3.1920511-8.1086384-2.7382735-4.77691102-6.7497409-8.51868652-11.81405495-10.69601675-5.59245884-2.40411148-11.92078565-2.95460281-17.93626528-2.46696557-6.43735279.521712-12.26461915 2.64677893-18.3425305 4.64659815-5.791919 1.9056532-11.85835393 2.65575808-17.91606678 1.72514913-6.103389-.93751598-10.7150731-4.24552917-15.863165-7.38524074-5.270201-3.21430764-11.29302555-5.31658133-17.52334374-4.83331855-5.81578995.45126015-11.17596607 2.85260882-15.98504457 6.06046988-4.49944472 3.00134047-8.21206618 6.61234262-10.30811929 11.69454495-2.25488675 5.46692463-2.252821 11.4677637 1.4552099 16.29924037 5.3746364 7.00328126 15.35246436 8.81430797 23.65358755 8.63426438 4.80150406-.10383588 9.5171645-.98033966 14.0503499-2.57471544 6.04554785-2.12644835 11.26984318-5.73054345 16.92565185-8.65475528 2.65426612-1.37219923 5.39781877-2.49919844 8.27357978-3.31100624 2.79060597-.78809362 5.53920825-1.1495622 8.0658566.53621678 2.67285791 1.78339854 5.0679865 3.53525491 8.1257635 4.65166332 2.93337263 1.07105215 6.04049823 1.67012302 9.16575657 1.64594837 6.0806657-.0469679 12.07479919-1.94156982 17.98056426-3.21062388 4.81596435-1.03467506 9.96887635-2.0658966 14.8787178-1.07128239 2.04877027.4151133 5.04136122 1.27204711 5.7813607 3.40125827-12.45443912 2.2572217-17.34590686 17.65992787-13.83481132 28.9669877 1.89498626 6.10283307 13.28600897 13.2369804 17.71498848 10.0286289 2.80588595-2.03258299 1.10242478-4.7009963 0-6.46252253-2.11120199-3.37339986-2.83352778-7.70664849 1.07304515-10.05527339 3.36970606-2.0256055 6.91271984 2.78467002 6.97974212 2.77937462.926147-.07298442 8.92886177-4.5988712 14.44258658-11.20328786 5.43931001.32243658 6.26453207-3.26410448 4.96573136-6.19722101-1.2988007-2.93311654-9.40549662-6.62446993-13.7759464-7.34165124z"/>
      </g>
      <g transform="matrix(-1 0 0 1 817 501)">
        <path fill="rgb(153,118,89)" fill-rule="evenodd" d="M143.78666667 0l42.27197432 138.46653541 20.4775988 117.75686926h16.0558513L200.95419421 0h-57.16752754z"/>
        <path fill="rgb(178,139,103)" fill-rule="evenodd" d="M128.66404702 0c2.8712149 76.02557026-.5078171 115.24093616-1.15042933 122.14818976-.64261225 6.9072536-9.4420772 51.69425583-30.27374223 136.39397875l17.10870928-5.8873522c32.92250417-77.68218088 44.1413198-118.05498215 47.9172818-128.25558053C166.04182857 114.1986374 176.07059618 72.73222548 192.35216938 0h-63.68812235z"/>
        <path fill="rgb(228,228,228)" fill-rule="evenodd" d="M100.20984767 251.26644118c-1.04241786-.53581647-2.3200756-.0644756-2.76476927 1.01995135 0 0-1.96174507 4.78389813-1.96174507 7.82835831C95.48333333 263.15921104 96.4957292 269 96.4957292 269h63.3580357s2.46967613-8.1805704-2.85128057-8.83285344c-5.3209567-.65228304-8.84041822-1.17791873-8.84041822-1.17791873l-29.56307063-13.2050544c-.51490846-.22999621-1.11804502.01103754-1.33262104.53256042l-1.94136507 4.71845011s-4.9258142 2.30274768-8.00547089 2.30274768c-3.07965668 0-7.1096908-2.07149046-7.1096908-2.07149046z"/>
        <path fill="rgb(228,228,228)" fill-rule="evenodd" d="M205.803181 251.26644118c-1.04241786-.53581647-2.3200756-.0644756-2.76476927 1.01995135 0 0-1.96174506 4.78389813-1.96174506 7.82835831 0 3.0444602 1.01239587 8.88524916 1.01239587 8.88524916h63.3580357s2.46967613-8.1805704-2.85128057-8.83285344c-5.3209567-.65228304-8.84041823-1.17791873-8.84041823-1.17791873l-29.56307063-13.2050544c-.51490846-.22999621-1.11804501.01103754-1.33262104.53256042l-1.94136506 4.71845011s-4.92581421 2.30274768-8.0054709 2.30274768c-3.07965668 0-7.1096908-2.07149046-7.1096908-2.07149046z"/>
        <path fill="rgb(105,161,172)" fill-rule="evenodd" d="M138.17 0l17.97333333 70.5472423h54.89765708L202.85552616 0H138.17z"/>
        <path fill="rgb(137,197,204)" fill-rule="evenodd" d="M128.06 0c-8.870785 26.64205165-3.37 70.5472423-3.37 70.5472423h56.02099041L196.11552616 0H128.06z"/>
      </g>
      <g transform="scale(-1 1) rotate(8.000003 -3060.42958082 -5223.40486433)">
        <path fill="rgb(178,139,103)" fill-rule="evenodd" d="M24.00457764 166.68966675c7.35775566-5.04510498 17.96072387-13.875 19.3933487-16.78140259 2.9304695-5.94514465 17.57186507-82.45858002 17.57186507-82.45858002l21.89739609.08218384S57.85055542 148.58258057 56.30793 152.40560913c-2.00392152 4.96621704 1.40001296 12.18170166 3.7081642 17.07441712.35708619.75692749.68794251 1.4582672.96849442 2.0870819-3.2026863 1.43310547-4.74114608-.29910278-6.3630867-2.12532043-1.8319397-2.06266785-3.77038192-4.24525452-8.33358383-2.12228394-1.76299667.8202057-3.43127441 1.789917-5.06117248 2.7373352-5.62995148 3.27250672-10.80194474 6.27882386-17.83771134 1.93754579-1.11542892-.68826294-2.33775902-3.27966309.61554337-5.30471802zm175.48853302-74.22933197l28.32791137 27.63502502c8.2423706 3.51581574 14.9958191 7.3979721 20.26037598 11.646492 1.18389893 1.42807007 2.47277832 4.16433716-3.09747314 2.93989564-5.57025147-1.22444153-11.48440552-2.26184082-12.53131104-.45036316-.45843506.79321289-.12463379 1.77134704.23303223 2.81944275.45916748 1.34539795.95761108 2.80603027-.12997437 4.13867187-1.28988647 1.58052063-5.62786865-3.4467926-13.01400757-15.08192444l-29.45727539-17.36727905 9.40872193-16.27996063z"/>
        <path fill="rgb(219,39,33)" fill-rule="evenodd" d="M127.69499548 5.3320284l8.6471231-1.48316787c13.62183596 48.15186274 83.61047614 80.9740953 87.90698806 98.97447858 1.57564448 6.6012163-3.17524042 9.93818196-.72115892 11.94885032l-11.23957435 8.22781172c-1.90332231-2.22066773-5.96500095 1.84145275-14.44708199-1.00000045-8.48208104-2.8414532-70.14629768-59.65210311-70.1462959-116.6679723z"/>
        <path fill="rgb(255,65,51)" fill-rule="evenodd" d="M139.24986267-2.83754945l-26.93423462-1.88342452c-2.20228576-.15399885-4.11528778 1.50894785-4.26927948 3.71123028l-.40960693 5.85764313c-16.27355957 12.5232811-56.60718918 49.94540023-67.11755371 119.60899734-1.10406113 7.31782532.89256286 11.23742676 2.48788833 14.36923218 1.09130478 2.14234924 1.99482727 3.9160614 1.58955384 6.15673828l14.70962906 4.06039429c0-4.06039429 11.16492462-5.73576355 14.04486846-16.27578736 1.6174698-5.9196167 3.9859848-13.31323242 6.81570435-21.53816223C80.43403625 122.12235546 82.49986267 132.14039898 87 140.437747c11.22733307 20.700943 76.10876465-2.00117493 82.8872757-23.1194992 3.61709594-11.26909638-1.51538086-20.73000336-8.30347443-33.24272156-8.61653137-15.88317108-19.9006958-36.6836815-19.34310913-72.34166336l.72039795-10.30212975c.1539917-2.2022829-1.50894165-4.11528396-3.71122742-4.26928258z"/>
      </g>
    </g>
  </g>
</svg>
